<?xml version="1.0" encoding="UTF-8" standalone="no"?>
<!DOCTYPE svg PUBLIC "-//W3C//DTD SVG 1.1//EN"
 "http://www.w3.org/Graphics/SVG/1.1/DTD/svg11.dtd">
<!-- Generated by graphviz version 2.40.1 (20161225.0304)
 -->
<!-- Title: dependencies Pages: 1 -->
<svg width="504pt" height="284pt"
 viewBox="0.00 0.00 504.00 284.00" xmlns="http://www.w3.org/2000/svg" xmlns:xlink="http://www.w3.org/1999/xlink">
<g id="graph0" class="graph" transform="scale(1 1) rotate(0) translate(4 280)">
<title>dependencies</title>
<polygon fill="#ffffff" stroke="transparent" points="-4,4 -4,-280 500,-280 500,4 -4,4"/>
<text text-anchor="start" x="227.0091" y="-42.4" font-family="sans-serif" font-weight="bold" font-size="14.00" fill="#000000">Legend</text>
<polygon fill="#ffffb3" stroke="transparent" points="14,-10 14,-30 34,-30 34,-10 14,-10"/>
<text text-anchor="start" x="37.629" y="-15.4" font-family="sans-serif" font-size="14.00" fill="#000000"> &#160;Declarations</text>
<polygon fill="#8dd3c7" stroke="transparent" points="127,-10 127,-30 147,-30 147,-10 127,-10"/>
<text text-anchor="start" x="150.7251" y="-15.4" font-family="sans-serif" font-size="14.00" fill="#000000"> &#160;Module</text>
<polygon fill="#80b1d3" stroke="transparent" points="213,-10 213,-30 233,-30 233,-10 213,-10"/>
<text text-anchor="start" x="236.7812" y="-15.4" font-family="sans-serif" font-size="14.00" fill="#000000"> &#160;Bootstrap</text>
<polygon fill="#fdb462" stroke="transparent" points="310,-10 310,-30 330,-30 330,-10 310,-10"/>
<text text-anchor="start" x="333.6732" y="-15.4" font-family="sans-serif" font-size="14.00" fill="#000000"> &#160;Providers</text>
<polygon fill="#fb8072" stroke="transparent" points="406,-10 406,-30 426,-30 426,-10 406,-10"/>
<text text-anchor="start" x="429.7258" y="-15.4" font-family="sans-serif" font-size="14.00" fill="#000000"> &#160;Exports</text>
<g id="clust1" class="cluster">
<title>cluster_SharedModule</title>
<polygon fill="none" stroke="#000000" stroke-dasharray="1,5" points="104,-70 104,-268 392,-268 392,-70 104,-70"/>
</g>
<g id="clust2" class="cluster">
<title>cluster_SharedModule_declarations</title>
<polygon fill="none" stroke="#000000" points="116,-78 116,-130 380,-130 380,-78 116,-78"/>
</g>
<g id="clust6" class="cluster">
<title>cluster_SharedModule_exports</title>
<polygon fill="none" stroke="#000000" points="112,-208 112,-260 384,-260 384,-208 112,-208"/>
</g>
<!-- ByteNamePipe -->
<g id="node1" class="node">
<title>ByteNamePipe</title>
<polygon fill="#ffffb3" stroke="#000000" points="372.2563,-122 271.7437,-122 271.7437,-86 372.2563,-86 372.2563,-122"/>
<text text-anchor="middle" x="322" y="-99.8" font-family="Times,serif" font-size="14.00" fill="#000000">ByteNamePipe</text>
</g>
<!-- SharedModule -->
<g id="node3" class="node">
<title>SharedModule</title>
<polygon fill="#8dd3c7" stroke="#000000" points="239.4231,-187 236.4231,-191 215.4231,-191 212.4231,-187 140.5769,-187 140.5769,-151 239.4231,-151 239.4231,-187"/>
<text text-anchor="middle" x="190" y="-164.8" font-family="Times,serif" font-size="14.00" fill="#000000">SharedModule</text>
</g>
<!-- ByteNamePipe&#45;&gt;SharedModule -->
<g id="edge1" class="edge">
<title>ByteNamePipe&#45;&gt;SharedModule</title>
<path fill="none" stroke="#000000" d="M338.876,-122.0225C338.876,-139.3734 338.876,-163 338.876,-163 338.876,-163 249.5736,-163 249.5736,-163"/>
<polygon fill="#000000" stroke="#000000" points="249.5736,-159.5001 239.5736,-163 249.5735,-166.5001 249.5736,-159.5001"/>
</g>
<!-- RtlSupportDirective -->
<g id="node2" class="node">
<title>RtlSupportDirective</title>
<polygon fill="#ffffb3" stroke="#000000" points="253.5352,-122 124.4648,-122 124.4648,-86 253.5352,-86 253.5352,-122"/>
<text text-anchor="middle" x="189" y="-99.8" font-family="Times,serif" font-size="14.00" fill="#000000">RtlSupportDirective</text>
</g>
<!-- RtlSupportDirective&#45;&gt;SharedModule -->
<g id="edge2" class="edge">
<title>RtlSupportDirective&#45;&gt;SharedModule</title>
<path fill="none" stroke="#000000" d="M190,-122.1061C190,-122.1061 190,-140.991 190,-140.991"/>
<polygon fill="#000000" stroke="#000000" points="186.5001,-140.9909 190,-150.991 193.5001,-140.991 186.5001,-140.9909"/>
</g>
<!-- ByteNamePipe  -->
<g id="node4" class="node">
<title>ByteNamePipe </title>
<polygon fill="#fb8072" stroke="#000000" points="376.2563,-252 271.7437,-252 271.7437,-216 376.2563,-216 376.2563,-252"/>
<text text-anchor="middle" x="324" y="-229.8" font-family="Times,serif" font-size="14.00" fill="#000000">ByteNamePipe </text>
</g>
<!-- SharedModule&#45;&gt;ByteNamePipe  -->
<g id="edge3" class="edge">
<title>SharedModule&#45;&gt;ByteNamePipe </title>
<path fill="none" stroke="#000000" stroke-dasharray="5,2" d="M239.2636,-175C270.6219,-175 305.374,-175 305.374,-175 305.374,-175 305.374,-205.9775 305.374,-205.9775"/>
<polygon fill="#000000" stroke="#000000" points="301.8741,-205.9774 305.374,-215.9775 308.8741,-205.9775 301.8741,-205.9774"/>
</g>
<!-- RtlSupportDirective  -->
<g id="node5" class="node">
<title>RtlSupportDirective </title>
<polygon fill="#fb8072" stroke="#000000" points="253.5344,-252 120.4656,-252 120.4656,-216 253.5344,-216 253.5344,-252"/>
<text text-anchor="middle" x="187" y="-229.8" font-family="Times,serif" font-size="14.00" fill="#000000">RtlSupportDirective </text>
</g>
<!-- SharedModule&#45;&gt;RtlSupportDirective  -->
<g id="edge4" class="edge">
<title>SharedModule&#45;&gt;RtlSupportDirective </title>
<path fill="none" stroke="#000000" stroke-dasharray="5,2" d="M190,-187.1061C190,-187.1061 190,-205.991 190,-205.991"/>
<polygon fill="#000000" stroke="#000000" points="186.5001,-205.9909 190,-215.991 193.5001,-205.991 186.5001,-205.9909"/>
</g>
</g>
</svg>
