<?xml version="1.0" encoding="UTF-8" standalone="no"?>
<!DOCTYPE svg PUBLIC "-//W3C//DTD SVG 1.1//EN"
 "http://www.w3.org/Graphics/SVG/1.1/DTD/svg11.dtd">
<!-- Generated by graphviz version 2.40.1 (20161225.0304)
 -->
<!-- Title: dependencies Pages: 1 -->
<svg width="769pt" height="284pt"
 viewBox="0.00 0.00 769.00 284.00" xmlns="http://www.w3.org/2000/svg" xmlns:xlink="http://www.w3.org/1999/xlink">
<g id="graph0" class="graph" transform="scale(1 1) rotate(0) translate(4 280)">
<title>dependencies</title>
<polygon fill="#ffffff" stroke="transparent" points="-4,4 -4,-280 765,-280 765,4 -4,4"/>
<text text-anchor="start" x="359.5091" y="-42.4" font-family="sans-serif" font-weight="bold" font-size="14.00" fill="#000000">Legend</text>
<polygon fill="#ffffb3" stroke="transparent" points="146.5,-10 146.5,-30 166.5,-30 166.5,-10 146.5,-10"/>
<text text-anchor="start" x="170.129" y="-15.4" font-family="sans-serif" font-size="14.00" fill="#000000"> &#160;Declarations</text>
<polygon fill="#8dd3c7" stroke="transparent" points="259.5,-10 259.5,-30 279.5,-30 279.5,-10 259.5,-10"/>
<text text-anchor="start" x="283.2251" y="-15.4" font-family="sans-serif" font-size="14.00" fill="#000000"> &#160;Module</text>
<polygon fill="#80b1d3" stroke="transparent" points="345.5,-10 345.5,-30 365.5,-30 365.5,-10 345.5,-10"/>
<text text-anchor="start" x="369.2812" y="-15.4" font-family="sans-serif" font-size="14.00" fill="#000000"> &#160;Bootstrap</text>
<polygon fill="#fdb462" stroke="transparent" points="442.5,-10 442.5,-30 462.5,-30 462.5,-10 442.5,-10"/>
<text text-anchor="start" x="466.1732" y="-15.4" font-family="sans-serif" font-size="14.00" fill="#000000"> &#160;Providers</text>
<polygon fill="#fb8072" stroke="transparent" points="538.5,-10 538.5,-30 558.5,-30 558.5,-10 538.5,-10"/>
<text text-anchor="start" x="562.2258" y="-15.4" font-family="sans-serif" font-size="14.00" fill="#000000"> &#160;Exports</text>
<g id="clust1" class="cluster">
<title>cluster_SharedModule</title>
<polygon fill="none" stroke="#000000" stroke-dasharray="1,5" points="8,-70 8,-268 753,-268 753,-70 8,-70"/>
</g>
<g id="clust2" class="cluster">
<title>cluster_SharedModule_declarations</title>
<polygon fill="none" stroke="#000000" points="16,-78 16,-130 745,-130 745,-78 16,-78"/>
</g>
<g id="clust9" class="cluster">
<title>cluster_SharedModule_exports</title>
<polygon fill="none" stroke="#000000" points="73,-208 73,-260 688,-260 688,-208 73,-208"/>
</g>
<!-- AlertComponent -->
<g id="node1" class="node">
<title>AlertComponent</title>
<polygon fill="#ffffb3" stroke="#000000" points="737.0954,-122 626.9046,-122 626.9046,-86 737.0954,-86 737.0954,-122"/>
<text text-anchor="middle" x="682" y="-99.8" font-family="Times,serif" font-size="14.00" fill="#000000">AlertComponent</text>
</g>
<!-- SharedModule -->
<g id="node6" class="node">
<title>SharedModule</title>
<polygon fill="#8dd3c7" stroke="#000000" points="405.4231,-187 402.4231,-191 381.4231,-191 378.4231,-187 306.5769,-187 306.5769,-151 405.4231,-151 405.4231,-187"/>
<text text-anchor="middle" x="356" y="-164.8" font-family="Times,serif" font-size="14.00" fill="#000000">SharedModule</text>
</g>
<!-- AlertComponent&#45;&gt;SharedModule -->
<g id="edge1" class="edge">
<title>AlertComponent&#45;&gt;SharedModule</title>
<path fill="none" stroke="#000000" d="M653.6545,-122.1061C653.6545,-141.3391 653.6545,-169 653.6545,-169 653.6545,-169 415.4857,-169 415.4857,-169"/>
<polygon fill="#000000" stroke="#000000" points="415.4857,-165.5001 405.4857,-169 415.4857,-172.5001 415.4857,-165.5001"/>
</g>
<!-- BigInputActionComponent -->
<g id="node2" class="node">
<title>BigInputActionComponent</title>
<polygon fill="#ffffb3" stroke="#000000" points="608.7133,-122 439.2867,-122 439.2867,-86 608.7133,-86 608.7133,-122"/>
<text text-anchor="middle" x="524" y="-99.8" font-family="Times,serif" font-size="14.00" fill="#000000">BigInputActionComponent</text>
</g>
<!-- BigInputActionComponent&#45;&gt;SharedModule -->
<g id="edge2" class="edge">
<title>BigInputActionComponent&#45;&gt;SharedModule</title>
<path fill="none" stroke="#000000" d="M464.3494,-122.027C464.3494,-138.3976 464.3494,-160 464.3494,-160 464.3494,-160 415.4187,-160 415.4187,-160"/>
<polygon fill="#000000" stroke="#000000" points="415.4187,-156.5001 405.4187,-160 415.4187,-163.5001 415.4187,-156.5001"/>
</g>
<!-- BigInputComponent -->
<g id="node3" class="node">
<title>BigInputComponent</title>
<polygon fill="#ffffb3" stroke="#000000" points="421.6108,-122 290.3892,-122 290.3892,-86 421.6108,-86 421.6108,-122"/>
<text text-anchor="middle" x="356" y="-99.8" font-family="Times,serif" font-size="14.00" fill="#000000">BigInputComponent</text>
</g>
<!-- BigInputComponent&#45;&gt;SharedModule -->
<g id="edge3" class="edge">
<title>BigInputComponent&#45;&gt;SharedModule</title>
<path fill="none" stroke="#000000" d="M356,-122.1061C356,-122.1061 356,-140.991 356,-140.991"/>
<polygon fill="#000000" stroke="#000000" points="352.5001,-140.9909 356,-150.991 359.5001,-140.991 352.5001,-140.9909"/>
</g>
<!-- ByteNamePipe -->
<g id="node4" class="node">
<title>ByteNamePipe</title>
<polygon fill="#ffffb3" stroke="#000000" points="272.2563,-122 171.7437,-122 171.7437,-86 272.2563,-86 272.2563,-122"/>
<text text-anchor="middle" x="222" y="-99.8" font-family="Times,serif" font-size="14.00" fill="#000000">ByteNamePipe</text>
</g>
<!-- ByteNamePipe&#45;&gt;SharedModule -->
<g id="edge4" class="edge">
<title>ByteNamePipe&#45;&gt;SharedModule</title>
<path fill="none" stroke="#000000" d="M252.625,-122.027C252.625,-138.3976 252.625,-160 252.625,-160 252.625,-160 296.7346,-160 296.7346,-160"/>
<polygon fill="#000000" stroke="#000000" points="296.7346,-163.5001 306.7346,-160 296.7345,-156.5001 296.7346,-163.5001"/>
</g>
<!-- RtlSupportDirective -->
<g id="node5" class="node">
<title>RtlSupportDirective</title>
<polygon fill="#ffffb3" stroke="#000000" points="153.5352,-122 24.4648,-122 24.4648,-86 153.5352,-86 153.5352,-122"/>
<text text-anchor="middle" x="89" y="-99.8" font-family="Times,serif" font-size="14.00" fill="#000000">RtlSupportDirective</text>
</g>
<!-- RtlSupportDirective&#45;&gt;SharedModule -->
<g id="edge5" class="edge">
<title>RtlSupportDirective&#45;&gt;SharedModule</title>
<path fill="none" stroke="#000000" d="M117.625,-122.1061C117.625,-141.3391 117.625,-169 117.625,-169 117.625,-169 296.6085,-169 296.6085,-169"/>
<polygon fill="#000000" stroke="#000000" points="296.6086,-172.5001 306.6085,-169 296.6085,-165.5001 296.6086,-172.5001"/>
</g>
<!-- BigInputActionComponent  -->
<g id="node7" class="node">
<title>BigInputActionComponent </title>
<polygon fill="#fb8072" stroke="#000000" points="680.2134,-252 507.7866,-252 507.7866,-216 680.2134,-216 680.2134,-252"/>
<text text-anchor="middle" x="594" y="-229.8" font-family="Times,serif" font-size="14.00" fill="#000000">BigInputActionComponent </text>
</g>
<!-- SharedModule&#45;&gt;BigInputActionComponent  -->
<g id="edge6" class="edge">
<title>SharedModule&#45;&gt;BigInputActionComponent </title>
<path fill="none" stroke="#000000" stroke-dasharray="5,2" d="M405.4453,-178C465.2842,-178 558.125,-178 558.125,-178 558.125,-178 558.125,-205.973 558.125,-205.973"/>
<polygon fill="#000000" stroke="#000000" points="554.6251,-205.973 558.125,-215.973 561.6251,-205.973 554.6251,-205.973"/>
</g>
<!-- BigInputComponent  -->
<g id="node8" class="node">
<title>BigInputComponent </title>
<polygon fill="#fb8072" stroke="#000000" points="489.1114,-252 354.8886,-252 354.8886,-216 489.1114,-216 489.1114,-252"/>
<text text-anchor="middle" x="422" y="-229.8" font-family="Times,serif" font-size="14.00" fill="#000000">BigInputComponent </text>
</g>
<!-- SharedModule&#45;&gt;BigInputComponent  -->
<g id="edge7" class="edge">
<title>SharedModule&#45;&gt;BigInputComponent </title>
<path fill="none" stroke="#000000" stroke-dasharray="5,2" d="M379.9529,-187.1061C379.9529,-187.1061 379.9529,-205.991 379.9529,-205.991"/>
<polygon fill="#000000" stroke="#000000" points="376.4529,-205.9909 379.9529,-215.991 383.4529,-205.991 376.4529,-205.9909"/>
</g>
<!-- ByteNamePipe  -->
<g id="node9" class="node">
<title>ByteNamePipe </title>
<polygon fill="#fb8072" stroke="#000000" points="337.2563,-252 232.7437,-252 232.7437,-216 337.2563,-216 337.2563,-252"/>
<text text-anchor="middle" x="285" y="-229.8" font-family="Times,serif" font-size="14.00" fill="#000000">ByteNamePipe </text>
</g>
<!-- SharedModule&#45;&gt;ByteNamePipe  -->
<g id="edge8" class="edge">
<title>SharedModule&#45;&gt;ByteNamePipe </title>
<path fill="none" stroke="#000000" stroke-dasharray="5,2" d="M321.9584,-187.1061C321.9584,-187.1061 321.9584,-205.991 321.9584,-205.991"/>
<polygon fill="#000000" stroke="#000000" points="318.4585,-205.9909 321.9584,-215.991 325.4585,-205.991 318.4585,-205.9909"/>
</g>
<!-- RtlSupportDirective  -->
<g id="node10" class="node">
<title>RtlSupportDirective </title>
<polygon fill="#fb8072" stroke="#000000" points="214.5344,-252 81.4656,-252 81.4656,-216 214.5344,-216 214.5344,-252"/>
<text text-anchor="middle" x="148" y="-229.8" font-family="Times,serif" font-size="14.00" fill="#000000">RtlSupportDirective </text>
</g>
<!-- SharedModule&#45;&gt;RtlSupportDirective  -->
<g id="edge9" class="edge">
<title>SharedModule&#45;&gt;RtlSupportDirective </title>
<path fill="none" stroke="#000000" stroke-dasharray="5,2" d="M306.6734,-178C258.7187,-178 193.0696,-178 193.0696,-178 193.0696,-178 193.0696,-205.973 193.0696,-205.973"/>
<polygon fill="#000000" stroke="#000000" points="189.5697,-205.973 193.0696,-215.973 196.5697,-205.973 189.5697,-205.973"/>
</g>
</g>
</svg>
