<?xml version="1.0" encoding="UTF-8" standalone="no"?>
<!-- Created with Inkscape (http://www.inkscape.org/) -->

<svg
   xmlns:dc="http://purl.org/dc/elements/1.1/"
   xmlns:cc="http://creativecommons.org/ns#"
   xmlns:rdf="http://www.w3.org/1999/02/22-rdf-syntax-ns#"
   xmlns:svg="http://www.w3.org/2000/svg"
   xmlns="http://www.w3.org/2000/svg"
   xmlns:sodipodi="http://sodipodi.sourceforge.net/DTD/sodipodi-0.dtd"
   xmlns:inkscape="http://www.inkscape.org/namespaces/inkscape"
   width="127mm"
   height="167mm"
   viewBox="0 0 449.99976 591.73204"
   id="svg2"
   version="1.1"
   inkscape:version="0.91 r13725"
   sodipodi:docname="panda vector.svg">
  <defs
     id="defs4" />
  <sodipodi:namedview
     id="base"
     pagecolor="#ffffff"
     bordercolor="#666666"
     borderopacity="1.0"
     inkscape:pageopacity="0.0"
     inkscape:pageshadow="2"
     inkscape:zoom="0.35"
     inkscape:cx="75.288073"
     inkscape:cy="482.29688"
     inkscape:document-units="px"
     inkscape:current-layer="layer1"
     showgrid="false"
     inkscape:window-width="1366"
     inkscape:window-height="745"
     inkscape:window-x="-8"
     inkscape:window-y="-8"
     inkscape:window-maximized="1" />
  <metadata
     id="metadata7">
    <rdf:RDF>
      <cc:Work
         rdf:about="">
        <dc:format>image/svg+xml</dc:format>
        <dc:type
           rdf:resource="http://purl.org/dc/dcmitype/StillImage" />
        <dc:title></dc:title>
      </cc:Work>
    </rdf:RDF>
  </metadata>
  <g
     inkscape:label="Calque 1"
     inkscape:groupmode="layer"
     id="layer1"
     transform="translate(0,-460.63022)">
    <path
       style="fill:#3a3a3a"
       d="m 219.39174,490.88617 c -12.29386,-0.1563 -30.62977,2.99926 -31.06836,6.08789 -0.41274,2.9066 2.17042,3.92827 6.14063,2.42968 1.89014,-0.71344 3.44735,-0.79279 4.14844,-0.21093 0.69556,0.57726 3.57634,0.53576 7.57617,-0.10938 10.0345,-1.61847 18.46318,-1.1117 25.83008,1.55274 2.40665,0.87043 6.56915,1.58398 9.25,1.58398 5.28514,0 6.69218,1.95711 2.875,4 -2.73745,1.46504 -2.55367,3.35407 0.25781,2.64844 3.24852,-0.81532 5.31033,0.63304 3.28906,2.31054 -2.25992,1.87557 -1.8947,3.04102 0.95313,3.04102 2.52528,0 3.34217,1.36148 1.5,2.5 -1.89921,1.17377 -0.98826,2.60569 2.61523,4.11133 l 3.61523,1.51172 -2.14648,2.28515 -2.14648,2.28711 3.17382,2.44727 c 2.82427,2.178 3.04388,2.69635 1.98243,4.67968 -1.0029,1.87395 -0.8513,2.70972 0.94921,5.23829 1.64462,2.30967 1.87902,3.32722 1.00782,4.37695 -0.85735,1.03305 -0.81956,1.4717 0.15625,1.79687 0.75497,0.25159 1.31073,2.07602 1.33593,4.39063 0.0426,3.91095 2.10827,10.35897 3.32813,10.38867 2.60102,0.0634 3.51069,1.98889 1.62305,3.43359 -1.97625,1.51253 -1.97317,1.54539 0.41015,3.41211 2.78448,2.18091 2.28255,5.14063 -0.87304,5.14063 -3.46892,0 -2.21307,7.31289 1.80859,10.53125 1.10756,0.88633 1.06415,1.30193 -0.25,2.39258 -0.87467,0.72591 -1.58984,1.93961 -1.58984,2.69726 0,0.75766 -0.48129,1.37891 -1.06836,1.37891 -0.58992,0 -0.80076,0.84095 -0.47071,1.88086 0.38983,1.22825 0.0191,2.10418 -1.06836,2.52148 -1.48825,0.5711 -1.50627,0.82245 -0.16601,2.36719 1.51572,1.74697 2.32296,9.24314 0.99219,9.21484 -0.39575,-0.008 -1.37314,-0.4283 -2.17188,-0.93359 -0.79874,-0.50529 -1.83337,-0.68415 -2.29883,-0.39648 -1.43716,0.88821 1.36448,3.3457 3.81446,3.3457 3.03242,0 3.95663,1.62348 2.02343,3.55664 -1.23722,1.23722 -1.30658,1.91608 -0.35156,3.44531 1.46664,2.34846 0.34736,3.72532 -1.66797,2.05274 -2.35516,-1.95461 -4.01243,-0.20283 -1.95703,2.06836 1.25305,1.3846 1.43772,2.22829 0.65625,3.00976 -0.75179,0.75184 -0.77829,1.96902 -0.0859,3.95508 1.63555,4.69173 0.52925,5.2023 -3.69531,1.70703 -2.19145,-1.81314 -5.55937,-4.15981 -7.48437,-5.2168 -1.925,-1.05699 -3.88485,-2.5617 -4.35352,-3.34375 -0.46867,-0.78204 -2.38117,-2.06094 -4.25,-2.84179 -1.86883,-0.78084 -3.39648,-1.85734 -3.39648,-2.39258 0,-1.36613 -7.136,-4.19886 -9.21094,-3.65625 -0.94404,0.24687 -2.19619,-0.13057 -2.78321,-0.83789 -5.88145,-7.08671 -33.00585,-0.42381 -33.00585,8.10742 0,0.67191 -1.20614,3.622 -2.67969,6.55469 -3.18002,6.32896 -4.23627,10.60191 -5.26953,21.33203 -0.42371,4.4 -1.09314,8.75155 -1.48828,9.67187 -0.49364,1.1497 -0.0681,2.02121 1.35937,2.78516 1.14266,0.61153 2.07813,2.02743 2.07813,3.14649 0,4.77645 8.72931,13.89648 13.30273,13.89648 0.772,0 2.58746,1.09568 4.0332,2.43555 2.74356,2.54264 9.96084,4.23886 13.39649,3.14843 1.2491,-0.39645 2.5748,0.0975 3.7539,1.40039 1.08567,1.19966 3.0855,2.01563 4.94532,2.01563 1.71738,0 4.14616,0.71663 5.39843,1.59375 1.41091,0.9882 3.21591,1.36012 4.74414,0.97656 1.3564,-0.34044 3.40498,-0.11621 4.55274,0.49805 1.50918,0.80769 2.3895,0.81363 3.17969,0.0234 2.35139,-2.35139 4.49218,-1.23488 4.49218,2.34179 0,1.88853 0.28613,3.89489 0.63477,4.45899 0.34863,0.5641 0.0762,1.91816 -0.60547,3.00976 -1.0402,1.66563 -0.92634,2.33287 0.71484,4.14844 2.30369,2.54848 2.65101,8.92519 0.57422,10.53906 -1.14477,0.88961 -0.72264,1.60865 2.28711,3.9043 2.35019,1.79257 3.48325,3.35585 3.11914,4.30469 -0.3144,0.81932 0.17568,2.31603 1.08985,3.32617 1.25521,1.38699 1.38857,2.16666 0.54297,3.18555 -0.86595,1.0434 -0.43919,2.0021 1.88671,4.23047 2.40635,2.30542 2.99496,3.68898 2.94336,6.91992 -0.0355,2.22099 0.14049,5.83906 0.39063,8.03906 1.16983,10.28867 1.22166,12.07733 0.38476,13.18164 -0.56225,0.7419 -0.29206,2.10655 0.72461,3.6582 1.15887,1.76865 1.29789,2.6742 0.48633,3.17578 -0.69248,0.42797 -0.86533,1.73108 -0.4414,3.3418 1.22491,4.65396 1.38231,11.14258 0.26953,11.14258 -0.6644,0 -0.87845,1.85208 -0.57617,4.99805 0.32243,3.3557 0.0601,5.34963 -0.79883,6.0625 -0.95914,0.79601 -1.02299,1.79993 -0.25196,4.01171 0.5658,1.62306 0.68749,3.73384 0.26953,4.68946 -0.41794,0.95562 -0.66123,2.33419 -0.54101,3.0625 0.12023,0.7283 -0.26641,1.90857 -0.85938,2.62304 -0.59297,0.7145 -0.81121,1.99593 -0.48437,2.84766 0.32684,0.85174 0.12703,2.42276 -0.44531,3.49219 -0.73844,1.37979 -0.6901,2.87251 0.16601,5.14062 1.08211,2.86682 0.98387,3.37122 -0.9414,4.88477 -1.27695,1.00387 -2.41976,3.38315 -2.82032,5.87305 -0.42945,2.66953 -1.45972,4.70651 -2.8457,5.62695 -4.80096,3.18834 -7.67187,6.65603 -7.67187,9.26367 0,2.44816 -0.25705,2.62125 -3.06055,2.06055 -2.58624,-0.51724 -3.01442,-0.32665 -2.75195,1.22265 0.40253,2.37603 -1.91518,5.14063 -4.31055,5.14063 -1.03266,0 -1.87695,0.5806 -1.87695,1.29102 0,0.71041 -1.4625,1.98697 -3.25,2.83789 -4.28542,2.04003 -13.8679,6.77131 -15.70899,7.75585 -0.80178,0.42877 -1.82589,2.20506 -2.27734,3.94727 -0.45145,1.74221 -1.2587,3.16797 -1.79297,3.16797 -0.53428,0 -0.9707,0.88214 -0.9707,1.96094 0,1.45103 -1.06993,2.24939 -4.11133,3.06836 -3.87343,1.04301 -4.07801,1.27987 -3.51367,4.10156 0.52492,2.62459 0.36109,2.92019 -1.33204,2.38281 -1.37444,-0.43623 -2.4104,0.11504 -3.58789,1.91211 -1.78415,2.72297 -6.66499,5.57422 -9.54296,5.57422 -0.97844,0 -2.04855,0.85173 -2.37891,1.89258 -0.33035,1.04085 -2.0472,2.42732 -3.81641,3.08203 -1.76921,0.6547 -4.69579,1.82798 -6.50195,2.60742 -1.80616,0.77945 -4.14816,1.41797 -5.20508,1.41797 -1.05691,0 -3.58691,1.12995 -5.62305,2.51172 -3.29034,2.23288 -3.88402,2.34753 -5.33203,1.03711 -0.99206,-0.8978 -2.54411,-1.23388 -3.96875,-0.86133 -1.57836,0.41275 -2.62827,0.0964 -3.22656,-0.97266 -0.64895,-1.15961 -1.80586,-1.43574 -4.31055,-1.02929 -2.79163,0.45302 -3.85542,0.087 -5.77148,-1.98047 -1.29209,-1.39419 -4.02734,-2.84965 -6.07813,-3.23438 -2.05079,-0.38473 -4.06008,-1.24384 -4.46484,-1.91015 -0.40476,-0.66632 -1.52187,-1.5017 -2.48437,-1.85547 -0.9625,-0.35376 -1.75,-1.36299 -1.75,-2.24219 0,-1.64634 -6.58252,-8.46289 -8.17188,-8.46289 -0.49033,0 -1.13675,-0.63737 -1.43555,-1.41602 -0.29879,-0.77866 -2.30981,-2.64058 -4.46875,-4.13672 -2.15894,-1.49614 -3.92382,-3.53265 -3.92382,-4.52539 0,-3.00668 -1.81233,-3.16908 -5.33985,-0.47851 -3.814951,2.9098 -5.351011,3.10384 -8.101561,1.02344 -1.06762,-0.80751 -2.93155,-1.4668 -4.14258,-1.4668 -1.21104,0 -2.46271,-0.675 -2.7793,-1.5 -0.31658,-0.825 -1.23386,-1.5 -2.03906,-1.5 -0.8052,0 -1.76186,-0.94152 -2.12695,-2.0918 -0.45799,-1.443 -1.25496,-1.93721 -2.56836,-1.59375 -1.04698,0.27379 -1.90234,0.0974 -1.90234,-0.39062 0,-0.48803 -1.2375,-1.17794 -2.75,-1.53321 -1.5125,-0.35527 -4.16795,-1.98244 -5.90039,-3.61718 -2.33221,-2.20069 -3.70838,-2.7958 -5.29883,-2.29102 -3.19841,1.01514 -5.27684,-1.17855 -4.49414,-4.74219 0.58167,-2.64832 0.43694,-2.87394 -1.45508,-2.27343 -1.64741,0.52286 -2.3107,0.11295 -3.07617,-1.90039 -0.53682,-1.41193 -1.43835,-2.56641 -2.00196,-2.56641 -0.56361,0 -1.02343,-1.09566 -1.02343,-2.43359 0,-1.47882 -0.71785,-2.66067 -1.83008,-3.01368 -1.57646,-0.50035 -1.81168,-1.62399 -1.69727,-8.1289 0.073,-4.15212 -0.25455,-7.7891 -0.72851,-8.08203 -0.47396,-0.29292 -0.5707,-1.85835 -0.21485,-3.47852 0.35584,-1.62017 0.25152,-3.48933 -0.23242,-4.1543 -1.74445,-2.39705 -3.24877,-8.31319 -3.43164,-13.5 -0.10258,-2.90943 -0.56582,-5.5241 -1.0293,-5.81054 -0.46348,-0.28645 -0.37754,-1.39003 0.19141,-2.45313 1.1988,-2.23996 1.04724,-8.6197 -0.26758,-11.26367 -0.59628,-1.19905 -0.45379,-2.5595 0.41797,-4 0.91108,-1.50548 1.26061,-5.44025 1.125,-12.68164 -0.1707,-9.11427 -0.18506,-14.03082 -0.0762,-26 0.0125,-1.375 -0.0509,-4.975 -0.14063,-8 -0.25781,-8.69432 -0.16069,-9.16011 3,-14.29688 1.91116,-3.10603 2.77379,-5.57057 2.38086,-6.80859 -1.076,-3.39019 0.5259,-7.9431 3.14649,-8.93945 1.52709,-0.5806 2.64236,-1.98525 3.00195,-3.78321 0.48017,-2.40079 0.96751,-2.78468 3.03906,-2.38867 1.7628,0.33698 3.31144,-0.33753 5.42383,-2.36133 l 2.95703,-2.83203 3.16602,1.86914 c 3.13775,1.85351 3.17851,1.85125 4.60351,-0.29492 0.79076,-1.19095 2.09955,-2.16406 2.90821,-2.16406 2.46757,0 6.75545,-3.99816 7.32226,-6.82813 0.43547,-2.17416 1.04121,-2.63754 3.25,-2.48437 2.20484,0.1529 2.71485,-0.23418 2.71485,-2.0625 0,-1.23814 1.35,-3.5442 3,-5.125 2.92723,-2.80447 4.267361,-8.5 2,-8.5 -0.55,0 -1,-1.27565 -1,-2.83398 0,-1.55834 -0.32407,-3.1561 -0.71875,-3.55079 -0.39469,-0.39469 -1.68776,-5.53349 -2.875,-11.41797 -3.22361,-15.97748 -13.09721,-29.54789 -20.99805,-28.86328 -2.75312,0.23856 -2.24674,-8.41296 0.9043,-15.46679 1.31872,-2.95204 3.41021,-7.84219 4.64843,-10.86719 1.23821,-3.025 3.1228,-7.46708 4.18946,-9.87109 1.90282,-4.28856 1.9157,-5.90638 0.0351,-4.74415 -0.87526,0.54094 -8.50141,11.15221 -16.61133,23.11524 -5.32644,7.85708 -7.85526,9.89876 -15.27148,12.33008 -9.55379,3.1321 -19.37683,9.95577 -23.50781,16.33008 -0.93783,1.44712 -2.49451,2.56682 -3.45899,2.48632 -1.28383,-0.10715 -1.9211,0.84374 -2.3789,3.55078 -0.34392,2.03368 -1.14376,4.31901 -1.77539,5.08008 -3.72748,4.49134 -1.438,34.50919 3.14648,41.25586 1.46874,2.16145 2.67188,4.47449 2.67188,5.14063 0,0.66614 0.82479,1.80084 1.83398,2.51953 7.21972,5.14146 9.38711,20.05695 4.32227,29.74219 -2.11525,4.0452 -2.55939,7.4207 -2.11329,16.06445 0.0426,0.825 -0.42051,3.49404 -1.02929,5.93164 -0.76177,3.05018 -0.79076,5.23267 -0.0937,7 0.99606,2.5256 3.08982,26.18606 3.65039,41.25 0.15723,4.22535 0.76693,8.57975 1.35351,9.67578 0.58658,1.09603 1.26065,6.96912 1.5,13.05078 0.23935,6.08166 0.73708,11.54456 1.10547,12.14063 0.3684,0.59607 0.7973,7.24169 0.95313,14.76758 0.15584,7.52589 0.6151,14.48341 1.01953,15.46289 0.40444,0.97947 0.46741,3.118 0.14062,4.75195 -0.32679,1.63394 0.065,7.66925 0.8711,13.41211 0.80616,5.74286 1.18655,11.17308 0.84375,12.0664 -0.34281,0.89334 -0.0726,2.65439 0.60156,3.91407 1.03484,1.93363 0.88158,2.96336 -0.98047,6.61328 -1.89372,3.71199 -1.99998,4.47474 -0.7539,5.39258 0.79818,0.58793 1.71183,3.01803 2.02929,5.40039 0.64971,4.87565 7.73354,19.84971 11.90821,25.16992 1.51051,1.925 3.4347,5.075 4.27539,7 2.10365,4.81691 3.97343,7 5.99414,7 1.16204,0 1.65305,0.72218 1.52929,2.25 -0.32094,3.96209 -0.0257,4.51392 3.53907,6.61719 2.06268,1.21701 3.5,2.85186 3.5,3.98047 0,1.86844 4.7498,6.15328 8.25,7.44336 0.9625,0.35475 1.75,1.34529 1.75,2.20117 0,1.86726 3.91087,3.50781 8.36523,3.50781 1.77919,0 3.79706,0.5625 4.48438,1.25 0.68731,0.6875 2.23902,1.34578 3.44921,1.46289 4.971281,0.48105 8.702801,1.58331 9.791021,2.89453 0.63503,0.76517 2.2236,1.39258 3.53125,1.39258 2.18935,0 3.03382,0.64552 2.88672,1.44531 l 5.23242,0 c 2.32007,-1.47043 6.84975,-2.39364 9.50977,-1.3164 15.80486,2.16854 18.90548,3.89796 26.3351,5.65094 5.13307,-1.27515 12.25478,1.23888 13.2034,2.1875 1.12266,1.12267 1.51238,2.32558 1.35324,7.28265 -0.19491,6.07143 -2.13681,10.06786 -6.56948,13.41599 -2.65436,2.005 -3.33496,5.1107 -2.19141,10 0.46648,1.9944 0.28928,3.8878 -0.47851,5.1172 -1.91503,3.0664 -0.38565,5.1172 5.83398,7.8203 3.1693,1.3774 10.22682,4.7788 15.6836,7.5606 5.45678,2.7817 11.53178,5.6691 13.5,6.416 4.75493,1.8043 24.64787,0.2315 31.47265,-2.4883 1.59164,-0.6343 6.7665,-1.0673 11.5,-0.9629 8.65049,0.1909 16.10743,-1.3635 16.10743,-3.3574 0,-1.9767 13.14329,-13.9322 14.67187,-13.3457 10.51643,-12.8515 13.31675,-7.3793 17.07227,-26.45313 1.94439,-2.75565 6.16097,-12.26611 6.95898,-15.69336 0.28423,-1.2207 1.14216,-2.73695 1.90625,-3.3711 0.76409,-0.63414 1.39063,-1.94289 1.39063,-2.9082 0,-0.96531 0.675,-2.31531 1.5,-3 0.825,-0.68469 1.5,-2.51676 1.5,-4.07031 0,-1.55355 1.15141,-4.98535 2.56054,-7.62696 1.42205,-2.66582 2.37264,-5.81625 2.13477,-7.08007 -0.31281,-1.66207 0.37037,-2.84553 2.5293,-4.38282 2.22615,-1.58516 2.84402,-2.69843 2.5,-4.49804 -0.48917,-2.55884 2.57386,-4.97806 4.17382,-8.07813 2.17456,-3.64381 2.54428,-5.4095 4.64063,-10.55664 1.72376,-3.08414 2.33924,-5.33909 1.91797,-7.01758 -0.34499,-1.37452 -0.13993,-2.76927 0.46093,-3.14062 0.59457,-0.36746 1.08204,-1.99706 1.08204,-3.6211 0,-2.85922 0.11944,-2.93255 3.80078,-2.34375 2.8536,0.45631 5.36624,-0.0516 10.07422,-2.0332 6.32537,-2.6624 10.125,-2.66518 10.125,-0.008 0,0.77526 1.2375,2.20863 2.75,3.18359 1.5125,0.97495 3.46364,2.63085 4.33593,3.67969 2.10703,2.53347 12.38268,2.82524 16,0.45508 1.35385,-0.88707 4.80415,-1.93426 7.66797,-2.32813 2.86381,-0.39388 6.22869,-1.50757 7.47656,-2.47461 1.24787,-0.96703 4.94193,-2.06458 8.20899,-2.43945 14.85711,-1.70475 18.79011,-2.90701 20.83594,-6.36914 1.2886,-2.18068 2.68378,-3.25 4.24023,-3.25 2.40931,0 6.48438,-5.21389 6.48438,-8.29688 0,-0.85767 1.125,-2.44381 2.5,-3.52539 2.87924,-2.26481 3.10462,-3.43105 1,-5.17773 -0.825,-0.68469 -1.5,-2.02133 -1.5,-2.96875 0,-0.94741 -0.86042,-2.49921 -1.91016,-3.44922 -3.47182,-3.14194 -4.45413,-6.97941 -2.66992,-10.42969 0.86833,-1.67917 1.58008,-3.9824 1.58008,-5.11718 0,-1.13477 0.54513,-2.93857 1.21289,-4.00782 1.02005,-1.63335 0.86021,-2.32068 -1,-4.30078 -2.74432,-2.92116 -2.75242,-3.35338 -0.0781,-4.05273 2.00503,-0.52432 2.08953,-0.94514 1.36328,-6.86719 -0.42548,-3.46946 -0.71021,-7.39696 -0.63281,-8.72852 0.0774,-1.33156 -0.54742,-3.46906 -1.38672,-4.75 -1.38394,-2.11216 -1.37376,-2.32812 0.11328,-2.32812 1.19658,0 1.48587,-0.59523 1.06641,-2.19922 -0.31613,-1.20888 -0.0885,-2.78388 0.50586,-3.5 0.72389,-0.87222 0.75173,-1.71342 0.084,-2.55078 -0.54825,-0.6875 -1.25008,-2.6 -1.55859,-4.25 -1.05135,-5.62277 -2.54715,-11.99644 -3.22656,-13.75 -0.52123,-1.34528 -0.16249,-1.75 1.54687,-1.75 1.85262,0 2.10174,-0.37541 1.50195,-2.25 -0.39595,-1.2375 -0.84661,-4.05 -1.00195,-6.25 -0.15534,-2.2 -1.02172,-6.925 -1.92578,-10.5 -0.90407,-3.575 -2.0673,-8.42026 -2.58594,-10.76563 -0.51865,-2.34536 -1.40555,-5.12761 -1.9707,-6.18359 -0.56514,-1.05598 -1.02734,-2.89754 -1.02734,-4.0918 0,-1.19426 -1.08803,-3.46437 -2.41797,-5.04492 -1.93689,-2.30185 -2.40884,-3.96945 -2.36914,-8.38281 0.0279,-3.10435 -0.51439,-6.18946 -1.24219,-7.06641 -0.71046,-0.85605 -1.23401,-3.12102 -1.16211,-5.0332 0.0719,-1.91217 -0.72393,-4.99974 -1.76953,-6.86133 -1.05963,-1.8866 -1.65725,-4.31968 -1.34961,-5.49609 0.34922,-1.3354 -0.42892,-3.59239 -2.11914,-6.14649 -1.73897,-2.62776 -2.45116,-4.73282 -2.03906,-6.03125 0.3567,-1.12385 -0.0317,-3.01131 -0.89063,-4.32226 -1.34155,-2.04747 -2.20698,-6.15982 -4.11523,-19.57422 -0.27383,-1.925 -1.13466,-11.6 -1.91407,-21.5 -1.86382,-23.67393 -4.40886,-33.90927 -4.66211,-18.75 -0.0528,3.1625 -0.11838,7.1 -0.14648,8.75 -0.24536,14.38483 -3.1801,33.39601 -6.02344,39.02734 -0.82533,1.6346 -1.77255,5.38239 -2.10547,8.32813 -0.33291,2.94573 -1.01112,5.87073 -1.50586,6.5 -0.49474,0.62926 -1.19124,2.94453 -1.54882,5.14453 -1.80664,11.11538 -3.39481,17.41356 -5.4043,21.4375 -1.2189,2.44081 -2.21484,4.9573 -2.21484,5.59375 0,0.63645 -0.89327,1.96569 -1.98438,2.95312 -1.38247,1.25133 -1.80069,2.52258 -1.38086,4.19532 0.38386,1.52943 0.006,3.05759 -1.03906,4.21289 -1.21094,1.33807 -1.56998,3.35651 -1.36914,7.70898 0.2611,5.65857 0.17012,5.91033 -2.27539,6.19531 -1.63546,0.19058 -2.98567,1.26538 -3.76953,3 -3.00603,6.6521 -4.29881,8.1343 -7.63282,8.75977 -3.23056,0.60605 -7.54882,3.64386 -7.54882,5.31055 0,0.43474 -1.01159,0.75463 -2.24805,0.71093 -1.79603,-0.0634 -2.34904,0.58306 -2.75,3.21094 -0.27604,1.80915 -0.83945,3.2716 -1.25195,3.25 -0.4125,-0.0217 -1.6023,-0.0391 -2.64258,-0.0391 -2.10226,0 -5.10742,-6.22965 -5.10742,-10.58594 0,-1.40003 -0.50383,-3.48701 -1.11915,-4.63672 -0.93492,-1.74694 -0.75307,-2.36663 1.10938,-3.77148 2.11446,-1.59494 2.1486,-1.83536 0.67773,-4.67969 -0.85265,-1.64885 -1.52162,-4.53391 -1.48632,-6.41211 0.0353,-1.8782 -0.38301,-6.11406 -0.92969,-9.41406 -1.96223,-11.845 0.23373,-26.37728 3.24805,-21.5 1.26734,2.0506 2.43045,0.90032 1.8789,-1.85742 -0.41302,-2.06511 -0.13071,-3.02586 1.02344,-3.46875 0.87792,-0.33689 1.59766,-1.65689 1.59766,-2.9336 0,-1.2767 0.73731,-5.0032 1.64062,-8.28125 0.90332,-3.27806 1.78651,-7.53398 1.96094,-9.45898 0.17443,-1.925 0.61344,-6.06569 0.97656,-9.20117 0.4611,-3.98158 0.13952,-7.82894 -1.06836,-12.75781 -1.64692,-6.72023 -1.64661,-7.18722 0.0352,-9.75391 3.14497,-4.79984 2.83833,-9.90841 -1.33789,-22.28711 -0.2783,-0.825 -0.40966,-2.48589 -0.29297,-3.68945 0.1167,-1.20357 -0.50939,-3.28787 -1.39063,-4.63282 -0.88124,-1.34495 -1.50844,-2.83601 -1.39453,-3.3125 0.34891,-1.45959 -1.33526,-8.79462 -2.29883,-10.01367 -0.49928,-0.63165 -0.81865,-2.65665 -0.71093,-4.5 0.10772,-1.84335 -0.55117,-5.505 -1.46289,-8.13672 -0.91173,-2.63172 -1.65625,-5.65358 -1.65625,-6.71484 0,-1.06127 -1.125,-3.94534 -2.5,-6.4082 -1.375,-2.46286 -2.5,-5.61396 -2.5,-7.00196 0,-2.31491 -1.33422,-6.08515 -4.45313,-12.58984 -0.6593,-1.375 -1.80721,-4.525 -2.55078,-7 -0.74356,-2.475 -1.89442,-5.175 -2.55664,-6 -0.66221,-0.825 -1.54097,-2.625 -1.95313,-4 -2.99496,-9.99123 -12.08869,-22.34953 -18.35547,-24.94531 -2.01606,-0.83508 -3.13085,-2.00249 -3.13085,-3.27539 0,-1.08761 -1.2375,-3.23813 -2.75,-4.7793 -1.5125,-1.54116 -3.2,-3.29843 -3.75,-3.9043 -0.55,-0.60588 -3.07275,-3.01348 -5.60547,-5.34961 -2.53273,-2.33612 -5.11814,-5.22784 -5.7461,-6.42578 -0.74146,-1.41447 -3.07257,-2.73837 -6.64648,-3.77734 -3.02682,-0.87992 -5.50195,-2.04385 -5.50195,-2.58594 0,-2.02755 -19.86955,-10.07132 -24.34961,-9.85742 -1.73278,0.0827 -4.95039,-0.25735 -7.15039,-0.75586 -1.89929,-0.43037 -4.41491,-0.64167 -7.25196,-0.67773 z m -35.87695,5.82031 c -0.36921,0.0483 -0.6928,0.2239 -0.89844,0.55664 -0.32508,0.52598 -1.82937,0.95703 -3.3418,0.95703 -1.51242,0 -3.62378,0.67221 -4.6914,1.49414 -1.76926,1.36209 -1.36394,1.45762 4.56055,1.08398 7.76025,-0.4894 7,-0.276 7,-1.97265 0,-1.27166 -1.52127,-2.26401 -2.62891,-2.11914 z m -15.73438,2.53711 c -1.75175,-0.002 -3.56878,0.28134 -4.1875,0.85351 -0.5225,0.4832 -4.32421,1.88787 -8.44921,3.1211 -9.74184,2.91246 -15.81026,6.10129 -30.45899,16.00195 -2.64063,1.78472 -11.54101,10.59162 -11.54101,11.41992 0,1.71005 4.09635,-0.59987 11.64062,-6.56445 3.37799,-2.67067 6.39304,-4.85742 6.69922,-4.85742 0.30618,0 1.72094,-1.07909 3.14453,-2.39844 1.4236,-1.31934 5.15854,-3.41624 8.30078,-4.66016 3.14224,-1.24392 6.42466,-2.86483 7.29297,-3.60156 0.86831,-0.73674 2.2751,-1.33984 3.12695,-1.33984 0.85184,0 2.07453,-0.63241 2.7168,-1.40625 0.64227,-0.77389 3.96048,-1.72396 7.37305,-2.11133 6.27686,-0.71251 9.13544,-1.97657 8.13476,-3.59571 -0.35424,-0.57309 -2.04121,-0.85955 -3.79297,-0.86132 z m 26.57422,274.74414 c -6.4592,-0.16207 -16.30858,7.71226 -14.22461,12.61718 0.7277,1.71273 1.62321,6.71524 1.99024,11.11524 0.81133,9.72649 4.52819,17.0725 12.07031,23.85352 2.72329,2.44847 4.95313,5.13737 4.95313,5.97656 0,0.8392 0.72251,2.2479 1.60546,3.13086 1.6844,1.68439 3.558,1.45768 8.79688,-1.06446 1.597,-0.76884 3.52349,-1.39648 4.28125,-1.39648 0.75776,0 1.63654,-0.675 1.95312,-1.5 0.31659,-0.825 1.41179,-1.5 2.4336,-1.5 5.49445,0 6.18406,-17.71524 0.86328,-22.18164 -1.92487,-1.61579 -3.31252,-3.80146 -3.49219,-5.5 -0.19052,-1.80112 -1.76918,-4.13177 -4.37109,-6.45508 -2.23953,-1.99973 -4.07031,-4.32503 -4.07031,-5.16797 0,-2.03958 -6.78813,-9.52809 -10.27344,-11.33398 -0.73969,-0.38327 -1.59288,-0.5706 -2.51563,-0.59375 z m -78.37304,7.01953 c -0.68774,0.0176 -1.34311,0.0938 -1.94532,0.23828 -4.64426,1.11414 -11.89257,9.64191 -11.89257,13.99219 0,0.5014 -1.26629,2.39063 -2.812501,4.19726 -11.08127,12.94771 -10.90986,30.99045 0.3125,33 2.200001,0.39394 5.800001,1.39277 8.000001,2.21875 6.4715,2.42969 11.44897,0.71386 11.48437,-3.95703 0.008,-1.11218 1.37988,-3.6784 3.04883,-5.70312 7.58655,-9.2038 12.32861,-35.5732 6.7168,-37.35352 -0.9625,-0.30535 -1.75,-0.91562 -1.75,-1.35547 0,-2.63215 -6.34799,-5.40039 -11.16211,-5.27734 z m 70.4082,85.29101 c -0.48551,-0.11222 -1.18801,0.26223 -2.06055,1.13477 -2.70135,2.70135 -35.15475,2.85806 -38.24414,2.2168 0,0 0,0 -2.9414,0.14843 -1.23313,0.0622 -0.65481,1.43697 -3,0.92188 -9.58767,-2.10581 0.82183,7.837 11.41601,10.9043 2.24614,0.65032 4.14029,1.72536 4.20899,2.38867 0.0688,0.66332 0.1813,1.43203 0.25,1.70703 0.16917,0.67666 3.90141,0.62895 9.35937,-0.11914 3.57572,-0.49011 4.42373,-0.96779 4.07617,-2.29688 -0.44911,-1.71739 -0.18125,-1.8995 8.93555,-6.08203 5.11498,-2.34661 8.75391,-6.14415 8.75391,-9.13672 0,-1.07423 -0.26841,-1.67488 -0.75391,-1.78711 z"
       id="path4149"
       inkscape:connector-curvature="0"
       sodipodi:nodetypes="sssssssssssscccccssscscsssssssssscssssssscssssssssssscssssssscsssscsssssssssssscssssscccsssssssssssssssssssssssssssssssssssscsssssssssssssssssssscssscssssssssssscccsssssssssssssssssssssssscsssssscscssssssssssssssssssssccccsssssssssssccsssssssssccsssccsssssssssssssssssssscsssssssssssssssssssssssssscsssssscssssssscscsscssssssssssssscsscssssssssssssssssssssssssssssssssssssssscscsssssssssssssssssscsssssssssccssssccsssscc" />
  </g>
</svg>
