<?xml version="1.0" encoding="UTF-8" standalone="no"?>
<!DOCTYPE svg PUBLIC "-//W3C//DTD SVG 1.1//EN"
 "http://www.w3.org/Graphics/SVG/1.1/DTD/svg11.dtd">
<!-- Generated by graphviz version 2.40.1 (20161225.0304)
 -->
<!-- Title: dependencies Pages: 1 -->
<svg width="1311pt" height="284pt"
 viewBox="0.00 0.00 1311.00 284.00" xmlns="http://www.w3.org/2000/svg" xmlns:xlink="http://www.w3.org/1999/xlink">
<g id="graph0" class="graph" transform="scale(1 1) rotate(0) translate(4 280)">
<title>dependencies</title>
<polygon fill="#ffffff" stroke="transparent" points="-4,4 -4,-280 1307,-280 1307,4 -4,4"/>
<text text-anchor="start" x="630.5091" y="-42.4" font-family="sans-serif" font-weight="bold" font-size="14.00" fill="#000000">Legend</text>
<polygon fill="#ffffb3" stroke="transparent" points="417.5,-10 417.5,-30 437.5,-30 437.5,-10 417.5,-10"/>
<text text-anchor="start" x="441.129" y="-15.4" font-family="sans-serif" font-size="14.00" fill="#000000"> &#160;Declarations</text>
<polygon fill="#8dd3c7" stroke="transparent" points="530.5,-10 530.5,-30 550.5,-30 550.5,-10 530.5,-10"/>
<text text-anchor="start" x="554.2251" y="-15.4" font-family="sans-serif" font-size="14.00" fill="#000000"> &#160;Module</text>
<polygon fill="#80b1d3" stroke="transparent" points="616.5,-10 616.5,-30 636.5,-30 636.5,-10 616.5,-10"/>
<text text-anchor="start" x="640.2812" y="-15.4" font-family="sans-serif" font-size="14.00" fill="#000000"> &#160;Bootstrap</text>
<polygon fill="#fdb462" stroke="transparent" points="713.5,-10 713.5,-30 733.5,-30 733.5,-10 713.5,-10"/>
<text text-anchor="start" x="737.1732" y="-15.4" font-family="sans-serif" font-size="14.00" fill="#000000"> &#160;Providers</text>
<polygon fill="#fb8072" stroke="transparent" points="809.5,-10 809.5,-30 829.5,-30 829.5,-10 809.5,-10"/>
<text text-anchor="start" x="833.2258" y="-15.4" font-family="sans-serif" font-size="14.00" fill="#000000"> &#160;Exports</text>
<g id="clust1" class="cluster">
<title>cluster_FileManagerModule</title>
<polygon fill="none" stroke="#000000" stroke-dasharray="1,5" points="8,-70 8,-268 1295,-268 1295,-70 8,-70"/>
</g>
<g id="clust2" class="cluster">
<title>cluster_FileManagerModule_declarations</title>
<polygon fill="none" stroke="#000000" points="332,-78 332,-130 1287,-130 1287,-78 332,-78"/>
</g>
<g id="clust9" class="cluster">
<title>cluster_FileManagerModule_imports</title>
<polygon fill="none" stroke="#000000" points="16,-78 16,-130 324,-130 324,-78 16,-78"/>
</g>
<g id="clust10" class="cluster">
<title>cluster_FileManagerModule_exports</title>
<polygon fill="none" stroke="#000000" points="606,-208 606,-260 750,-260 750,-208 606,-208"/>
</g>
<!-- AddDialogComponent -->
<g id="node1" class="node">
<title>AddDialogComponent</title>
<polygon fill="#ffffb3" stroke="#000000" points="1278.5421,-122 1135.4579,-122 1135.4579,-86 1278.5421,-86 1278.5421,-122"/>
<text text-anchor="middle" x="1207" y="-99.8" font-family="Times,serif" font-size="14.00" fill="#000000">AddDialogComponent</text>
</g>
<!-- FileManagerModule -->
<g id="node7" class="node">
<title>FileManagerModule</title>
<polygon fill="#8dd3c7" stroke="#000000" points="743.5772,-187 740.5772,-191 719.5772,-191 716.5772,-187 612.4228,-187 612.4228,-151 743.5772,-151 743.5772,-187"/>
<text text-anchor="middle" x="678" y="-164.8" font-family="Times,serif" font-size="14.00" fill="#000000">FileManagerModule</text>
</g>
<!-- AddDialogComponent&#45;&gt;FileManagerModule -->
<g id="edge1" class="edge">
<title>AddDialogComponent&#45;&gt;FileManagerModule</title>
<path fill="none" stroke="#000000" d="M1207,-122.2921C1207,-144.2057 1207,-178 1207,-178 1207,-178 753.6623,-178 753.6623,-178"/>
<polygon fill="#000000" stroke="#000000" points="753.6623,-174.5001 743.6623,-178 753.6622,-181.5001 753.6623,-174.5001"/>
</g>
<!-- ByteNamePipe -->
<g id="node2" class="node">
<title>ByteNamePipe</title>
<polygon fill="#ffffb3" stroke="#000000" points="1117.2563,-122 1016.7437,-122 1016.7437,-86 1117.2563,-86 1117.2563,-122"/>
<text text-anchor="middle" x="1067" y="-99.8" font-family="Times,serif" font-size="14.00" fill="#000000">ByteNamePipe</text>
</g>
<!-- ByteNamePipe&#45;&gt;FileManagerModule -->
<g id="edge2" class="edge">
<title>ByteNamePipe&#45;&gt;FileManagerModule</title>
<path fill="none" stroke="#000000" d="M1067,-122.1061C1067,-141.3391 1067,-169 1067,-169 1067,-169 753.5487,-169 753.5487,-169"/>
<polygon fill="#000000" stroke="#000000" points="753.5487,-165.5001 743.5487,-169 753.5486,-172.5001 753.5487,-165.5001"/>
</g>
<!-- DeleteDialogComponent -->
<g id="node3" class="node">
<title>DeleteDialogComponent</title>
<polygon fill="#ffffb3" stroke="#000000" points="998.9664,-122 843.0336,-122 843.0336,-86 998.9664,-86 998.9664,-122"/>
<text text-anchor="middle" x="921" y="-99.8" font-family="Times,serif" font-size="14.00" fill="#000000">DeleteDialogComponent</text>
</g>
<!-- DeleteDialogComponent&#45;&gt;FileManagerModule -->
<g id="edge3" class="edge">
<title>DeleteDialogComponent&#45;&gt;FileManagerModule</title>
<path fill="none" stroke="#000000" d="M921,-122.027C921,-138.3976 921,-160 921,-160 921,-160 753.7593,-160 753.7593,-160"/>
<polygon fill="#000000" stroke="#000000" points="753.7593,-156.5001 743.7593,-160 753.7593,-163.5001 753.7593,-156.5001"/>
</g>
<!-- EditDialogComponent -->
<g id="node4" class="node">
<title>EditDialogComponent</title>
<polygon fill="#ffffb3" stroke="#000000" points="825.2688,-122 682.7312,-122 682.7312,-86 825.2688,-86 825.2688,-122"/>
<text text-anchor="middle" x="754" y="-99.8" font-family="Times,serif" font-size="14.00" fill="#000000">EditDialogComponent</text>
</g>
<!-- EditDialogComponent&#45;&gt;FileManagerModule -->
<g id="edge4" class="edge">
<title>EditDialogComponent&#45;&gt;FileManagerModule</title>
<path fill="none" stroke="#000000" d="M713.0772,-122.1061C713.0772,-122.1061 713.0772,-140.991 713.0772,-140.991"/>
<polygon fill="#000000" stroke="#000000" points="709.5772,-140.9909 713.0772,-150.991 716.5772,-140.991 709.5772,-140.9909"/>
</g>
<!-- FileListComponent -->
<g id="node5" class="node">
<title>FileListComponent</title>
<polygon fill="#ffffb3" stroke="#000000" points="664.3892,-122 539.6108,-122 539.6108,-86 664.3892,-86 664.3892,-122"/>
<text text-anchor="middle" x="602" y="-99.8" font-family="Times,serif" font-size="14.00" fill="#000000">FileListComponent</text>
</g>
<!-- FileListComponent&#45;&gt;FileManagerModule -->
<g id="edge5" class="edge">
<title>FileListComponent&#45;&gt;FileManagerModule</title>
<path fill="none" stroke="#000000" d="M638.453,-122.1061C638.453,-122.1061 638.453,-140.991 638.453,-140.991"/>
<polygon fill="#000000" stroke="#000000" points="634.9531,-140.9909 638.453,-150.991 641.9531,-140.991 634.9531,-140.9909"/>
</g>
<!-- ProgressSnackbarComponent -->
<g id="node6" class="node">
<title>ProgressSnackbarComponent</title>
<polygon fill="#ffffb3" stroke="#000000" points="521.6274,-122 340.3726,-122 340.3726,-86 521.6274,-86 521.6274,-122"/>
<text text-anchor="middle" x="431" y="-99.8" font-family="Times,serif" font-size="14.00" fill="#000000">ProgressSnackbarComponent</text>
</g>
<!-- ProgressSnackbarComponent&#45;&gt;FileManagerModule -->
<g id="edge6" class="edge">
<title>ProgressSnackbarComponent&#45;&gt;FileManagerModule</title>
<path fill="none" stroke="#000000" d="M431,-122.027C431,-138.3976 431,-160 431,-160 431,-160 602.457,-160 602.457,-160"/>
<polygon fill="#000000" stroke="#000000" points="602.457,-163.5001 612.457,-160 602.457,-156.5001 602.457,-163.5001"/>
</g>
<!-- FileListComponent  -->
<g id="node10" class="node">
<title>FileListComponent </title>
<polygon fill="#fb8072" stroke="#000000" points="742.3898,-252 613.6102,-252 613.6102,-216 742.3898,-216 742.3898,-252"/>
<text text-anchor="middle" x="678" y="-229.8" font-family="Times,serif" font-size="14.00" fill="#000000">FileListComponent </text>
</g>
<!-- FileManagerModule&#45;&gt;FileListComponent  -->
<g id="edge9" class="edge">
<title>FileManagerModule&#45;&gt;FileListComponent </title>
<path fill="none" stroke="#000000" stroke-dasharray="5,2" d="M678,-187.1061C678,-187.1061 678,-205.991 678,-205.991"/>
<polygon fill="#000000" stroke="#000000" points="674.5001,-205.9909 678,-215.991 681.5001,-205.991 674.5001,-205.9909"/>
</g>
<!-- FileManagerRoutingModule -->
<g id="node8" class="node">
<title>FileManagerRoutingModule</title>
<polygon fill="#8dd3c7" stroke="#000000" points="316.1951,-122 313.1951,-126 292.1951,-126 289.1951,-122 139.8049,-122 139.8049,-86 316.1951,-86 316.1951,-122"/>
<text text-anchor="middle" x="228" y="-99.8" font-family="Times,serif" font-size="14.00" fill="#000000">FileManagerRoutingModule</text>
</g>
<!-- FileManagerRoutingModule&#45;&gt;FileManagerModule -->
<g id="edge7" class="edge">
<title>FileManagerRoutingModule&#45;&gt;FileManagerModule</title>
<path fill="none" stroke="#000000" d="M228,-122.1061C228,-141.3391 228,-169 228,-169 228,-169 602.0842,-169 602.0842,-169"/>
<polygon fill="#000000" stroke="#000000" points="602.0842,-172.5001 612.0842,-169 602.0842,-165.5001 602.0842,-172.5001"/>
</g>
<!-- SharedModule -->
<g id="node9" class="node">
<title>SharedModule</title>
<polygon fill="#8dd3c7" stroke="#000000" points="122.4231,-122 119.4231,-126 98.4231,-126 95.4231,-122 23.5769,-122 23.5769,-86 122.4231,-86 122.4231,-122"/>
<text text-anchor="middle" x="73" y="-99.8" font-family="Times,serif" font-size="14.00" fill="#000000">SharedModule</text>
</g>
<!-- SharedModule&#45;&gt;FileManagerModule -->
<g id="edge8" class="edge">
<title>SharedModule&#45;&gt;FileManagerModule</title>
<path fill="none" stroke="#000000" d="M73,-122.2921C73,-144.2057 73,-178 73,-178 73,-178 602.3914,-178 602.3914,-178"/>
<polygon fill="#000000" stroke="#000000" points="602.3914,-181.5001 612.3914,-178 602.3914,-174.5001 602.3914,-181.5001"/>
</g>
</g>
</svg>
