<?xml version="1.0" encoding="UTF-8" standalone="no"?>
<!DOCTYPE svg PUBLIC "-//W3C//DTD SVG 1.1//EN"
 "http://www.w3.org/Graphics/SVG/1.1/DTD/svg11.dtd">
<!-- Generated by graphviz version 2.40.1 (20161225.0304)
 -->
<!-- Title: dependencies Pages: 1 -->
<svg width="1483pt" height="284pt"
 viewBox="0.00 0.00 1483.00 284.00" xmlns="http://www.w3.org/2000/svg" xmlns:xlink="http://www.w3.org/1999/xlink">
<g id="graph0" class="graph" transform="scale(1 1) rotate(0) translate(4 280)">
<title>dependencies</title>
<polygon fill="#ffffff" stroke="transparent" points="-4,4 -4,-280 1479,-280 1479,4 -4,4"/>
<text text-anchor="start" x="716.5091" y="-42.4" font-family="sans-serif" font-weight="bold" font-size="14.00" fill="#000000">Legend</text>
<polygon fill="#ffffb3" stroke="transparent" points="503.5,-10 503.5,-30 523.5,-30 523.5,-10 503.5,-10"/>
<text text-anchor="start" x="527.129" y="-15.4" font-family="sans-serif" font-size="14.00" fill="#000000"> &#160;Declarations</text>
<polygon fill="#8dd3c7" stroke="transparent" points="616.5,-10 616.5,-30 636.5,-30 636.5,-10 616.5,-10"/>
<text text-anchor="start" x="640.2251" y="-15.4" font-family="sans-serif" font-size="14.00" fill="#000000"> &#160;Module</text>
<polygon fill="#80b1d3" stroke="transparent" points="702.5,-10 702.5,-30 722.5,-30 722.5,-10 702.5,-10"/>
<text text-anchor="start" x="726.2812" y="-15.4" font-family="sans-serif" font-size="14.00" fill="#000000"> &#160;Bootstrap</text>
<polygon fill="#fdb462" stroke="transparent" points="799.5,-10 799.5,-30 819.5,-30 819.5,-10 799.5,-10"/>
<text text-anchor="start" x="823.1732" y="-15.4" font-family="sans-serif" font-size="14.00" fill="#000000"> &#160;Providers</text>
<polygon fill="#fb8072" stroke="transparent" points="895.5,-10 895.5,-30 915.5,-30 915.5,-10 895.5,-10"/>
<text text-anchor="start" x="919.2258" y="-15.4" font-family="sans-serif" font-size="14.00" fill="#000000"> &#160;Exports</text>
<g id="clust1" class="cluster">
<title>cluster_FileManagerModule</title>
<polygon fill="none" stroke="#000000" stroke-dasharray="1,5" points="8,-70 8,-268 1467,-268 1467,-70 8,-70"/>
</g>
<g id="clust2" class="cluster">
<title>cluster_FileManagerModule_declarations</title>
<polygon fill="none" stroke="#000000" points="332,-78 332,-130 1459,-130 1459,-78 332,-78"/>
</g>
<g id="clust9" class="cluster">
<title>cluster_FileManagerModule_imports</title>
<polygon fill="none" stroke="#000000" points="16,-78 16,-130 324,-130 324,-78 16,-78"/>
</g>
<g id="clust10" class="cluster">
<title>cluster_FileManagerModule_exports</title>
<polygon fill="none" stroke="#000000" points="668,-208 668,-260 812,-260 812,-208 668,-208"/>
</g>
<!-- AddFileDialogComponent -->
<g id="node1" class="node">
<title>AddFileDialogComponent</title>
<polygon fill="#ffffb3" stroke="#000000" points="1450.8201,-122 1285.1799,-122 1285.1799,-86 1450.8201,-86 1450.8201,-122"/>
<text text-anchor="middle" x="1368" y="-99.8" font-family="Times,serif" font-size="14.00" fill="#000000">AddFileDialogComponent</text>
</g>
<!-- FileManagerModule -->
<g id="node7" class="node">
<title>FileManagerModule</title>
<polygon fill="#8dd3c7" stroke="#000000" points="805.5772,-187 802.5772,-191 781.5772,-191 778.5772,-187 674.4228,-187 674.4228,-151 805.5772,-151 805.5772,-187"/>
<text text-anchor="middle" x="740" y="-164.8" font-family="Times,serif" font-size="14.00" fill="#000000">FileManagerModule</text>
</g>
<!-- AddFileDialogComponent&#45;&gt;FileManagerModule -->
<g id="edge1" class="edge">
<title>AddFileDialogComponent&#45;&gt;FileManagerModule</title>
<path fill="none" stroke="#000000" d="M1368,-122.2921C1368,-144.2057 1368,-178 1368,-178 1368,-178 815.7247,-178 815.7247,-178"/>
<polygon fill="#000000" stroke="#000000" points="815.7247,-174.5001 805.7247,-178 815.7246,-181.5001 815.7247,-174.5001"/>
</g>
<!-- DeleteFileDialogComponent -->
<g id="node2" class="node">
<title>DeleteFileDialogComponent</title>
<polygon fill="#ffffb3" stroke="#000000" points="1266.745,-122 1089.255,-122 1089.255,-86 1266.745,-86 1266.745,-122"/>
<text text-anchor="middle" x="1178" y="-99.8" font-family="Times,serif" font-size="14.00" fill="#000000">DeleteFileDialogComponent</text>
</g>
<!-- DeleteFileDialogComponent&#45;&gt;FileManagerModule -->
<g id="edge2" class="edge">
<title>DeleteFileDialogComponent&#45;&gt;FileManagerModule</title>
<path fill="none" stroke="#000000" d="M1178,-122.1061C1178,-141.3391 1178,-169 1178,-169 1178,-169 815.573,-169 815.573,-169"/>
<polygon fill="#000000" stroke="#000000" points="815.5731,-165.5001 805.573,-169 815.573,-172.5001 815.5731,-165.5001"/>
</g>
<!-- EditFileDialogComponent -->
<g id="node3" class="node">
<title>EditFileDialogComponent</title>
<polygon fill="#ffffb3" stroke="#000000" points="1071.0476,-122 906.9524,-122 906.9524,-86 1071.0476,-86 1071.0476,-122"/>
<text text-anchor="middle" x="989" y="-99.8" font-family="Times,serif" font-size="14.00" fill="#000000">EditFileDialogComponent</text>
</g>
<!-- EditFileDialogComponent&#45;&gt;FileManagerModule -->
<g id="edge3" class="edge">
<title>EditFileDialogComponent&#45;&gt;FileManagerModule</title>
<path fill="none" stroke="#000000" d="M989,-122.027C989,-138.3976 989,-160 989,-160 989,-160 815.7475,-160 815.7475,-160"/>
<polygon fill="#000000" stroke="#000000" points="815.7476,-156.5001 805.7475,-160 815.7475,-163.5001 815.7476,-156.5001"/>
</g>
<!-- FileListComponent -->
<g id="node4" class="node">
<title>FileListComponent</title>
<polygon fill="#ffffb3" stroke="#000000" points="888.3892,-122 763.6108,-122 763.6108,-86 888.3892,-86 888.3892,-122"/>
<text text-anchor="middle" x="826" y="-99.8" font-family="Times,serif" font-size="14.00" fill="#000000">FileListComponent</text>
</g>
<!-- FileListComponent&#45;&gt;FileManagerModule -->
<g id="edge4" class="edge">
<title>FileListComponent&#45;&gt;FileManagerModule</title>
<path fill="none" stroke="#000000" d="M784.547,-122.1061C784.547,-122.1061 784.547,-140.991 784.547,-140.991"/>
<polygon fill="#000000" stroke="#000000" points="781.0471,-140.9909 784.547,-150.991 788.0471,-140.991 781.0471,-140.9909"/>
</g>
<!-- ProgressSnackbarComponent -->
<g id="node5" class="node">
<title>ProgressSnackbarComponent</title>
<polygon fill="#ffffb3" stroke="#000000" points="745.6274,-122 564.3726,-122 564.3726,-86 745.6274,-86 745.6274,-122"/>
<text text-anchor="middle" x="655" y="-99.8" font-family="Times,serif" font-size="14.00" fill="#000000">ProgressSnackbarComponent</text>
</g>
<!-- ProgressSnackbarComponent&#45;&gt;FileManagerModule -->
<g id="edge5" class="edge">
<title>ProgressSnackbarComponent&#45;&gt;FileManagerModule</title>
<path fill="none" stroke="#000000" d="M710.1374,-122.1061C710.1374,-122.1061 710.1374,-140.991 710.1374,-140.991"/>
<polygon fill="#000000" stroke="#000000" points="706.6375,-140.9909 710.1374,-150.991 713.6375,-140.991 706.6375,-140.9909"/>
</g>
<!-- ViewFileTypesDialogComponent -->
<g id="node6" class="node">
<title>ViewFileTypesDialogComponent</title>
<polygon fill="#ffffb3" stroke="#000000" points="545.7436,-122 340.2564,-122 340.2564,-86 545.7436,-86 545.7436,-122"/>
<text text-anchor="middle" x="443" y="-99.8" font-family="Times,serif" font-size="14.00" fill="#000000">ViewFileTypesDialogComponent</text>
</g>
<!-- ViewFileTypesDialogComponent&#45;&gt;FileManagerModule -->
<g id="edge6" class="edge">
<title>ViewFileTypesDialogComponent&#45;&gt;FileManagerModule</title>
<path fill="none" stroke="#000000" d="M443,-122.027C443,-138.3976 443,-160 443,-160 443,-160 664.4544,-160 664.4544,-160"/>
<polygon fill="#000000" stroke="#000000" points="664.4545,-163.5001 674.4544,-160 664.4544,-156.5001 664.4545,-163.5001"/>
</g>
<!-- FileListComponent  -->
<g id="node10" class="node">
<title>FileListComponent </title>
<polygon fill="#fb8072" stroke="#000000" points="804.3898,-252 675.6102,-252 675.6102,-216 804.3898,-216 804.3898,-252"/>
<text text-anchor="middle" x="740" y="-229.8" font-family="Times,serif" font-size="14.00" fill="#000000">FileListComponent </text>
</g>
<!-- FileManagerModule&#45;&gt;FileListComponent  -->
<g id="edge9" class="edge">
<title>FileManagerModule&#45;&gt;FileListComponent </title>
<path fill="none" stroke="#000000" stroke-dasharray="5,2" d="M740,-187.1061C740,-187.1061 740,-205.991 740,-205.991"/>
<polygon fill="#000000" stroke="#000000" points="736.5001,-205.9909 740,-215.991 743.5001,-205.991 736.5001,-205.9909"/>
</g>
<!-- FileManagerRoutingModule -->
<g id="node8" class="node">
<title>FileManagerRoutingModule</title>
<polygon fill="#8dd3c7" stroke="#000000" points="316.1951,-122 313.1951,-126 292.1951,-126 289.1951,-122 139.8049,-122 139.8049,-86 316.1951,-86 316.1951,-122"/>
<text text-anchor="middle" x="228" y="-99.8" font-family="Times,serif" font-size="14.00" fill="#000000">FileManagerRoutingModule</text>
</g>
<!-- FileManagerRoutingModule&#45;&gt;FileManagerModule -->
<g id="edge7" class="edge">
<title>FileManagerRoutingModule&#45;&gt;FileManagerModule</title>
<path fill="none" stroke="#000000" d="M228,-122.1061C228,-141.3391 228,-169 228,-169 228,-169 664.3742,-169 664.3742,-169"/>
<polygon fill="#000000" stroke="#000000" points="664.3742,-172.5001 674.3742,-169 664.3741,-165.5001 664.3742,-172.5001"/>
</g>
<!-- SharedModule -->
<g id="node9" class="node">
<title>SharedModule</title>
<polygon fill="#8dd3c7" stroke="#000000" points="122.4231,-122 119.4231,-126 98.4231,-126 95.4231,-122 23.5769,-122 23.5769,-86 122.4231,-86 122.4231,-122"/>
<text text-anchor="middle" x="73" y="-99.8" font-family="Times,serif" font-size="14.00" fill="#000000">SharedModule</text>
</g>
<!-- SharedModule&#45;&gt;FileManagerModule -->
<g id="edge8" class="edge">
<title>SharedModule&#45;&gt;FileManagerModule</title>
<path fill="none" stroke="#000000" d="M73,-122.2921C73,-144.2057 73,-178 73,-178 73,-178 664.2201,-178 664.2201,-178"/>
<polygon fill="#000000" stroke="#000000" points="664.2201,-181.5001 674.2201,-178 664.22,-174.5001 664.2201,-181.5001"/>
</g>
</g>
</svg>
