<?xml version="1.0" encoding="UTF-8" standalone="no"?>
<!DOCTYPE svg PUBLIC "-//W3C//DTD SVG 1.1//EN"
 "http://www.w3.org/Graphics/SVG/1.1/DTD/svg11.dtd">
<!-- Generated by graphviz version 2.40.1 (20161225.0304)
 -->
<!-- Title: dependencies Pages: 1 -->
<svg width="580pt" height="284pt"
 viewBox="0.00 0.00 580.00 284.00" xmlns="http://www.w3.org/2000/svg" xmlns:xlink="http://www.w3.org/1999/xlink">
<g id="graph0" class="graph" transform="scale(1 1) rotate(0) translate(4 280)">
<title>dependencies</title>
<polygon fill="#ffffff" stroke="transparent" points="-4,4 -4,-280 576,-280 576,4 -4,4"/>
<text text-anchor="start" x="265.0091" y="-42.4" font-family="sans-serif" font-weight="bold" font-size="14.00" fill="#000000">Legend</text>
<polygon fill="#ffffb3" stroke="transparent" points="52,-10 52,-30 72,-30 72,-10 52,-10"/>
<text text-anchor="start" x="75.629" y="-15.4" font-family="sans-serif" font-size="14.00" fill="#000000"> &#160;Declarations</text>
<polygon fill="#8dd3c7" stroke="transparent" points="165,-10 165,-30 185,-30 185,-10 165,-10"/>
<text text-anchor="start" x="188.7251" y="-15.4" font-family="sans-serif" font-size="14.00" fill="#000000"> &#160;Module</text>
<polygon fill="#80b1d3" stroke="transparent" points="251,-10 251,-30 271,-30 271,-10 251,-10"/>
<text text-anchor="start" x="274.7812" y="-15.4" font-family="sans-serif" font-size="14.00" fill="#000000"> &#160;Bootstrap</text>
<polygon fill="#fdb462" stroke="transparent" points="348,-10 348,-30 368,-30 368,-10 348,-10"/>
<text text-anchor="start" x="371.6732" y="-15.4" font-family="sans-serif" font-size="14.00" fill="#000000"> &#160;Providers</text>
<polygon fill="#fb8072" stroke="transparent" points="444,-10 444,-30 464,-30 464,-10 444,-10"/>
<text text-anchor="start" x="467.7258" y="-15.4" font-family="sans-serif" font-size="14.00" fill="#000000"> &#160;Exports</text>
<g id="clust1" class="cluster">
<title>cluster_WorkspaceManagerModule</title>
<polygon fill="none" stroke="#000000" stroke-dasharray="1,5" points="8,-70 8,-268 564,-268 564,-70 8,-70"/>
</g>
<g id="clust2" class="cluster">
<title>cluster_WorkspaceManagerModule_declarations</title>
<polygon fill="none" stroke="#000000" points="374,-78 374,-130 556,-130 556,-78 374,-78"/>
</g>
<g id="clust4" class="cluster">
<title>cluster_WorkspaceManagerModule_imports</title>
<polygon fill="none" stroke="#000000" points="16,-78 16,-130 366,-130 366,-78 16,-78"/>
</g>
<g id="clust5" class="cluster">
<title>cluster_WorkspaceManagerModule_exports</title>
<polygon fill="none" stroke="#000000" points="216,-208 216,-260 402,-260 402,-208 216,-208"/>
</g>
<!-- WorkspaceListComponent -->
<g id="node1" class="node">
<title>WorkspaceListComponent</title>
<polygon fill="#ffffb3" stroke="#000000" points="548.0744,-122 381.9256,-122 381.9256,-86 548.0744,-86 548.0744,-122"/>
<text text-anchor="middle" x="465" y="-99.8" font-family="Times,serif" font-size="14.00" fill="#000000">WorkspaceListComponent</text>
</g>
<!-- WorkspaceManagerModule -->
<g id="node2" class="node">
<title>WorkspaceManagerModule</title>
<polygon fill="#8dd3c7" stroke="#000000" points="395.2626,-187 392.2626,-191 371.2626,-191 368.2626,-187 222.7374,-187 222.7374,-151 395.2626,-151 395.2626,-187"/>
<text text-anchor="middle" x="309" y="-164.8" font-family="Times,serif" font-size="14.00" fill="#000000">WorkspaceManagerModule</text>
</g>
<!-- WorkspaceListComponent&#45;&gt;WorkspaceManagerModule -->
<g id="edge1" class="edge">
<title>WorkspaceListComponent&#45;&gt;WorkspaceManagerModule</title>
<path fill="none" stroke="#000000" d="M388.547,-122.1061C388.547,-122.1061 388.547,-140.991 388.547,-140.991"/>
<polygon fill="#000000" stroke="#000000" points="385.0471,-140.9909 388.547,-150.991 392.0471,-140.991 385.0471,-140.9909"/>
</g>
<!-- WorkspaceListComponent  -->
<g id="node5" class="node">
<title>WorkspaceListComponent </title>
<polygon fill="#fb8072" stroke="#000000" points="393.5749,-252 224.4251,-252 224.4251,-216 393.5749,-216 393.5749,-252"/>
<text text-anchor="middle" x="309" y="-229.8" font-family="Times,serif" font-size="14.00" fill="#000000">WorkspaceListComponent </text>
</g>
<!-- WorkspaceManagerModule&#45;&gt;WorkspaceListComponent  -->
<g id="edge4" class="edge">
<title>WorkspaceManagerModule&#45;&gt;WorkspaceListComponent </title>
<path fill="none" stroke="#000000" stroke-dasharray="5,2" d="M309,-187.1061C309,-187.1061 309,-205.991 309,-205.991"/>
<polygon fill="#000000" stroke="#000000" points="305.5001,-205.9909 309,-215.991 312.5001,-205.991 305.5001,-205.9909"/>
</g>
<!-- SharedModule -->
<g id="node3" class="node">
<title>SharedModule</title>
<polygon fill="#8dd3c7" stroke="#000000" points="358.4231,-122 355.4231,-126 334.4231,-126 331.4231,-122 259.5769,-122 259.5769,-86 358.4231,-86 358.4231,-122"/>
<text text-anchor="middle" x="309" y="-99.8" font-family="Times,serif" font-size="14.00" fill="#000000">SharedModule</text>
</g>
<!-- SharedModule&#45;&gt;WorkspaceManagerModule -->
<g id="edge2" class="edge">
<title>SharedModule&#45;&gt;WorkspaceManagerModule</title>
<path fill="none" stroke="#000000" d="M309,-122.1061C309,-122.1061 309,-140.991 309,-140.991"/>
<polygon fill="#000000" stroke="#000000" points="305.5001,-140.9909 309,-150.991 312.5001,-140.991 305.5001,-140.9909"/>
</g>
<!-- WorkspaceManagerRoutingModule -->
<g id="node4" class="node">
<title>WorkspaceManagerRoutingModule</title>
<polygon fill="#8dd3c7" stroke="#000000" points="241.8805,-122 238.8805,-126 217.8805,-126 214.8805,-122 24.1195,-122 24.1195,-86 241.8805,-86 241.8805,-122"/>
<text text-anchor="middle" x="133" y="-99.8" font-family="Times,serif" font-size="14.00" fill="#000000">WorkspaceManagerRoutingModule</text>
</g>
<!-- WorkspaceManagerRoutingModule&#45;&gt;WorkspaceManagerModule -->
<g id="edge3" class="edge">
<title>WorkspaceManagerRoutingModule&#45;&gt;WorkspaceManagerModule</title>
<path fill="none" stroke="#000000" d="M232.2795,-122.1061C232.2795,-122.1061 232.2795,-140.991 232.2795,-140.991"/>
<polygon fill="#000000" stroke="#000000" points="228.7795,-140.9909 232.2795,-150.991 235.7795,-140.991 228.7795,-140.9909"/>
</g>
</g>
</svg>
