<?xml version="1.0" encoding="UTF-8" standalone="no"?>
<!DOCTYPE svg PUBLIC "-//W3C//DTD SVG 1.1//EN"
 "http://www.w3.org/Graphics/SVG/1.1/DTD/svg11.dtd">
<!-- Generated by graphviz version 2.40.1 (20161225.0304)
 -->
<!-- Title: dependencies Pages: 1 -->
<svg width="2669pt" height="284pt"
 viewBox="0.00 0.00 2669.00 284.00" xmlns="http://www.w3.org/2000/svg" xmlns:xlink="http://www.w3.org/1999/xlink">
<g id="graph0" class="graph" transform="scale(1 1) rotate(0) translate(4 280)">
<title>dependencies</title>
<polygon fill="#ffffff" stroke="transparent" points="-4,4 -4,-280 2665,-280 2665,4 -4,4"/>
<text text-anchor="start" x="1309.5091" y="-42.4" font-family="sans-serif" font-weight="bold" font-size="14.00" fill="#000000">Legend</text>
<polygon fill="#ffffb3" stroke="transparent" points="1096.5,-10 1096.5,-30 1116.5,-30 1116.5,-10 1096.5,-10"/>
<text text-anchor="start" x="1120.129" y="-15.4" font-family="sans-serif" font-size="14.00" fill="#000000"> &#160;Declarations</text>
<polygon fill="#8dd3c7" stroke="transparent" points="1209.5,-10 1209.5,-30 1229.5,-30 1229.5,-10 1209.5,-10"/>
<text text-anchor="start" x="1233.2251" y="-15.4" font-family="sans-serif" font-size="14.00" fill="#000000"> &#160;Module</text>
<polygon fill="#80b1d3" stroke="transparent" points="1295.5,-10 1295.5,-30 1315.5,-30 1315.5,-10 1295.5,-10"/>
<text text-anchor="start" x="1319.2812" y="-15.4" font-family="sans-serif" font-size="14.00" fill="#000000"> &#160;Bootstrap</text>
<polygon fill="#fdb462" stroke="transparent" points="1392.5,-10 1392.5,-30 1412.5,-30 1412.5,-10 1392.5,-10"/>
<text text-anchor="start" x="1416.1732" y="-15.4" font-family="sans-serif" font-size="14.00" fill="#000000"> &#160;Providers</text>
<polygon fill="#fb8072" stroke="transparent" points="1488.5,-10 1488.5,-30 1508.5,-30 1508.5,-10 1488.5,-10"/>
<text text-anchor="start" x="1512.2258" y="-15.4" font-family="sans-serif" font-size="14.00" fill="#000000"> &#160;Exports</text>
<g id="clust1" class="cluster">
<title>cluster_AppModule</title>
<polygon fill="none" stroke="#000000" stroke-dasharray="1,5" points="8,-70 8,-268 2653,-268 2653,-70 8,-70"/>
</g>
<g id="clust2" class="cluster">
<title>cluster_AppModule_declarations</title>
<polygon fill="none" stroke="#000000" points="1284,-78 1284,-130 2645,-130 2645,-78 1284,-78"/>
</g>
<g id="clust11" class="cluster">
<title>cluster_AppModule_imports</title>
<polygon fill="none" stroke="#000000" points="396,-78 396,-130 1276,-130 1276,-78 396,-78"/>
</g>
<g id="clust13" class="cluster">
<title>cluster_AppModule_bootstrap</title>
<polygon fill="none" stroke="#000000" points="1220,-208 1220,-260 1344,-260 1344,-208 1220,-208"/>
</g>
<g id="clust14" class="cluster">
<title>cluster_AppModule_providers</title>
<polygon fill="none" stroke="#000000" points="16,-78 16,-130 388,-130 388,-78 16,-78"/>
</g>
<!-- AppComponent -->
<g id="node1" class="node">
<title>AppComponent</title>
<polygon fill="#ffffb3" stroke="#000000" points="2636.9399,-122 2531.0601,-122 2531.0601,-86 2636.9399,-86 2636.9399,-122"/>
<text text-anchor="middle" x="2584" y="-99.8" font-family="Times,serif" font-size="14.00" fill="#000000">AppComponent</text>
</g>
<!-- AppModule -->
<g id="node9" class="node">
<title>AppModule</title>
<polygon fill="#8dd3c7" stroke="#000000" points="1323.6571,-187 1320.6571,-191 1299.6571,-191 1296.6571,-187 1240.3429,-187 1240.3429,-151 1323.6571,-151 1323.6571,-187"/>
<text text-anchor="middle" x="1282" y="-164.8" font-family="Times,serif" font-size="14.00" fill="#000000">AppModule</text>
</g>
<!-- AppComponent&#45;&gt;AppModule -->
<g id="edge1" class="edge">
<title>AppComponent&#45;&gt;AppModule</title>
<path fill="none" stroke="#000000" d="M2584,-122.3228C2584,-145.6602 2584,-183 2584,-183 2584,-183 1333.8452,-183 1333.8452,-183"/>
<polygon fill="#000000" stroke="#000000" points="1333.8453,-179.5001 1323.8452,-183 1333.8452,-186.5001 1333.8453,-179.5001"/>
</g>
<!-- LoginComponent -->
<g id="node2" class="node">
<title>LoginComponent</title>
<polygon fill="#ffffb3" stroke="#000000" points="2513.2758,-122 2398.7242,-122 2398.7242,-86 2513.2758,-86 2513.2758,-122"/>
<text text-anchor="middle" x="2456" y="-99.8" font-family="Times,serif" font-size="14.00" fill="#000000">LoginComponent</text>
</g>
<!-- LoginComponent&#45;&gt;AppModule -->
<g id="edge2" class="edge">
<title>LoginComponent&#45;&gt;AppModule</title>
<path fill="none" stroke="#000000" d="M2456,-122.2921C2456,-144.2057 2456,-178 2456,-178 2456,-178 1333.7833,-178 1333.7833,-178"/>
<polygon fill="#000000" stroke="#000000" points="1333.7833,-174.5001 1323.7833,-178 1333.7832,-181.5001 1333.7833,-174.5001"/>
</g>
<!-- PasswordChangeComponent -->
<g id="node3" class="node">
<title>PasswordChangeComponent</title>
<polygon fill="#ffffb3" stroke="#000000" points="2380.752,-122 2203.248,-122 2203.248,-86 2380.752,-86 2380.752,-122"/>
<text text-anchor="middle" x="2292" y="-99.8" font-family="Times,serif" font-size="14.00" fill="#000000">PasswordChangeComponent</text>
</g>
<!-- PasswordChangeComponent&#45;&gt;AppModule -->
<g id="edge3" class="edge">
<title>PasswordChangeComponent&#45;&gt;AppModule</title>
<path fill="none" stroke="#000000" d="M2292,-122.0267C2292,-142.7672 2292,-174 2292,-174 2292,-174 1333.7938,-174 1333.7938,-174"/>
<polygon fill="#000000" stroke="#000000" points="1333.7939,-170.5001 1323.7938,-174 1333.7938,-177.5001 1333.7939,-170.5001"/>
</g>
<!-- RegisterComponent -->
<g id="node4" class="node">
<title>RegisterComponent</title>
<polygon fill="#ffffb3" stroke="#000000" points="2184.9846,-122 2057.0154,-122 2057.0154,-86 2184.9846,-86 2184.9846,-122"/>
<text text-anchor="middle" x="2121" y="-99.8" font-family="Times,serif" font-size="14.00" fill="#000000">RegisterComponent</text>
</g>
<!-- RegisterComponent&#45;&gt;AppModule -->
<g id="edge4" class="edge">
<title>RegisterComponent&#45;&gt;AppModule</title>
<path fill="none" stroke="#000000" d="M2121,-122.1061C2121,-141.3391 2121,-169 2121,-169 2121,-169 1333.8932,-169 1333.8932,-169"/>
<polygon fill="#000000" stroke="#000000" points="1333.8932,-165.5001 1323.8932,-169 1333.8932,-172.5001 1333.8932,-165.5001"/>
</g>
<!-- RequestPasswordResetComponent -->
<g id="node5" class="node">
<title>RequestPasswordResetComponent</title>
<polygon fill="#ffffb3" stroke="#000000" points="2038.6881,-122 1827.3119,-122 1827.3119,-86 2038.6881,-86 2038.6881,-122"/>
<text text-anchor="middle" x="1933" y="-99.8" font-family="Times,serif" font-size="14.00" fill="#000000">RequestPasswordResetComponent</text>
</g>
<!-- RequestPasswordResetComponent&#45;&gt;AppModule -->
<g id="edge5" class="edge">
<title>RequestPasswordResetComponent&#45;&gt;AppModule</title>
<path fill="none" stroke="#000000" d="M1933,-122.302C1933,-140.2699 1933,-165 1933,-165 1933,-165 1333.7133,-165 1333.7133,-165"/>
<polygon fill="#000000" stroke="#000000" points="1333.7133,-161.5001 1323.7133,-165 1333.7133,-168.5001 1333.7133,-161.5001"/>
</g>
<!-- ResponsePasswordResetComponent -->
<g id="node6" class="node">
<title>ResponsePasswordResetComponent</title>
<polygon fill="#ffffb3" stroke="#000000" points="1809.7422,-122 1590.2578,-122 1590.2578,-86 1809.7422,-86 1809.7422,-122"/>
<text text-anchor="middle" x="1700" y="-99.8" font-family="Times,serif" font-size="14.00" fill="#000000">ResponsePasswordResetComponent</text>
</g>
<!-- ResponsePasswordResetComponent&#45;&gt;AppModule -->
<g id="edge6" class="edge">
<title>ResponsePasswordResetComponent&#45;&gt;AppModule</title>
<path fill="none" stroke="#000000" d="M1700,-122.027C1700,-138.3976 1700,-160 1700,-160 1700,-160 1333.9933,-160 1333.9933,-160"/>
<polygon fill="#000000" stroke="#000000" points="1333.9933,-156.5001 1323.9933,-160 1333.9932,-163.5001 1333.9933,-156.5001"/>
</g>
<!-- TutorialComponent -->
<g id="node7" class="node">
<title>TutorialComponent</title>
<polygon fill="#ffffb3" stroke="#000000" points="1572.4327,-122 1445.5673,-122 1445.5673,-86 1572.4327,-86 1572.4327,-122"/>
<text text-anchor="middle" x="1509" y="-99.8" font-family="Times,serif" font-size="14.00" fill="#000000">TutorialComponent</text>
</g>
<!-- TutorialComponent&#45;&gt;AppModule -->
<g id="edge7" class="edge">
<title>TutorialComponent&#45;&gt;AppModule</title>
<path fill="none" stroke="#000000" d="M1509,-122.1871C1509,-137.1824 1509,-156 1509,-156 1509,-156 1333.8998,-156 1333.8998,-156"/>
<polygon fill="#000000" stroke="#000000" points="1333.8999,-152.5001 1323.8998,-156 1333.8998,-159.5001 1333.8999,-152.5001"/>
</g>
<!-- WorkareaComponent -->
<g id="node8" class="node">
<title>WorkareaComponent</title>
<polygon fill="#ffffb3" stroke="#000000" points="1428.0129,-122 1291.9871,-122 1291.9871,-86 1428.0129,-86 1428.0129,-122"/>
<text text-anchor="middle" x="1360" y="-99.8" font-family="Times,serif" font-size="14.00" fill="#000000">WorkareaComponent</text>
</g>
<!-- WorkareaComponent&#45;&gt;AppModule -->
<g id="edge8" class="edge">
<title>WorkareaComponent&#45;&gt;AppModule</title>
<path fill="none" stroke="#000000" d="M1307.7861,-122.1061C1307.7861,-122.1061 1307.7861,-140.991 1307.7861,-140.991"/>
<polygon fill="#000000" stroke="#000000" points="1304.2862,-140.9909 1307.7861,-150.991 1311.2862,-140.991 1304.2862,-140.9909"/>
</g>
<!-- AppComponent  -->
<g id="node16" class="node">
<title>AppComponent </title>
<polygon fill="#80b1d3" stroke="#000000" points="1336.439,-252 1227.561,-252 1227.561,-216 1336.439,-216 1336.439,-252"/>
<text text-anchor="middle" x="1282" y="-229.8" font-family="Times,serif" font-size="14.00" fill="#000000">AppComponent </text>
</g>
<!-- AppModule&#45;&gt;AppComponent  -->
<g id="edge15" class="edge">
<title>AppModule&#45;&gt;AppComponent </title>
<path fill="none" stroke="#000000" stroke-dasharray="1,5" d="M1282,-187.1061C1282,-187.1061 1282,-205.991 1282,-205.991"/>
<polygon fill="#000000" stroke="#000000" points="1278.5001,-205.9909 1282,-215.991 1285.5001,-205.991 1278.5001,-205.9909"/>
</g>
<!-- AppRoutingModule -->
<g id="node10" class="node">
<title>AppRoutingModule</title>
<polygon fill="#8dd3c7" stroke="#000000" points="1268.2744,-122 1265.2744,-126 1244.2744,-126 1241.2744,-122 1139.7256,-122 1139.7256,-86 1268.2744,-86 1268.2744,-122"/>
<text text-anchor="middle" x="1204" y="-99.8" font-family="Times,serif" font-size="14.00" fill="#000000">AppRoutingModule</text>
</g>
<!-- AppRoutingModule&#45;&gt;AppModule -->
<g id="edge9" class="edge">
<title>AppRoutingModule&#45;&gt;AppModule</title>
<path fill="none" stroke="#000000" d="M1254.2795,-122.1061C1254.2795,-122.1061 1254.2795,-140.991 1254.2795,-140.991"/>
<polygon fill="#000000" stroke="#000000" points="1250.7795,-140.9909 1254.2795,-150.991 1257.7795,-140.991 1250.7795,-140.9909"/>
</g>
<!-- CoreModule -->
<g id="node11" class="node">
<title>CoreModule</title>
<polygon fill="#8dd3c7" stroke="#000000" points="1121.2619,-122 1118.2619,-126 1097.2619,-126 1094.2619,-122 1034.7381,-122 1034.7381,-86 1121.2619,-86 1121.2619,-122"/>
<text text-anchor="middle" x="1078" y="-99.8" font-family="Times,serif" font-size="14.00" fill="#000000">CoreModule</text>
</g>
<!-- CoreModule&#45;&gt;AppModule -->
<g id="edge10" class="edge">
<title>CoreModule&#45;&gt;AppModule</title>
<path fill="none" stroke="#000000" d="M1078,-122.1871C1078,-137.1824 1078,-156 1078,-156 1078,-156 1230.2253,-156 1230.2253,-156"/>
<polygon fill="#000000" stroke="#000000" points="1230.2253,-159.5001 1240.2253,-156 1230.2253,-152.5001 1230.2253,-159.5001"/>
</g>
<!-- FileManagerModule -->
<g id="node12" class="node">
<title>FileManagerModule</title>
<polygon fill="#8dd3c7" stroke="#000000" points="1016.5772,-122 1013.5772,-126 992.5772,-126 989.5772,-122 885.4228,-122 885.4228,-86 1016.5772,-86 1016.5772,-122"/>
<text text-anchor="middle" x="951" y="-99.8" font-family="Times,serif" font-size="14.00" fill="#000000">FileManagerModule</text>
</g>
<!-- FileManagerModule&#45;&gt;AppModule -->
<g id="edge11" class="edge">
<title>FileManagerModule&#45;&gt;AppModule</title>
<path fill="none" stroke="#000000" d="M951,-122.027C951,-138.3976 951,-160 951,-160 951,-160 1230.0786,-160 1230.0786,-160"/>
<polygon fill="#000000" stroke="#000000" points="1230.0787,-163.5001 1240.0786,-160 1230.0786,-156.5001 1230.0787,-163.5001"/>
</g>
<!-- SharedModule -->
<g id="node13" class="node">
<title>SharedModule</title>
<polygon fill="#8dd3c7" stroke="#000000" points="867.4231,-122 864.4231,-126 843.4231,-126 840.4231,-122 768.5769,-122 768.5769,-86 867.4231,-86 867.4231,-122"/>
<text text-anchor="middle" x="818" y="-99.8" font-family="Times,serif" font-size="14.00" fill="#000000">SharedModule</text>
</g>
<!-- SharedModule&#45;&gt;AppModule -->
<g id="edge12" class="edge">
<title>SharedModule&#45;&gt;AppModule</title>
<path fill="none" stroke="#000000" d="M818,-122.302C818,-140.2699 818,-165 818,-165 818,-165 1230.0047,-165 1230.0047,-165"/>
<polygon fill="#000000" stroke="#000000" points="1230.0048,-168.5001 1240.0047,-165 1230.0047,-161.5001 1230.0048,-168.5001"/>
</g>
<!-- WorkspaceDetailModule -->
<g id="node14" class="node">
<title>WorkspaceDetailModule</title>
<polygon fill="#8dd3c7" stroke="#000000" points="750.2212,-122 747.2212,-126 726.2212,-126 723.2212,-122 593.7788,-122 593.7788,-86 750.2212,-86 750.2212,-122"/>
<text text-anchor="middle" x="672" y="-99.8" font-family="Times,serif" font-size="14.00" fill="#000000">WorkspaceDetailModule</text>
</g>
<!-- WorkspaceDetailModule&#45;&gt;AppModule -->
<g id="edge13" class="edge">
<title>WorkspaceDetailModule&#45;&gt;AppModule</title>
<path fill="none" stroke="#000000" d="M672,-122.1061C672,-141.3391 672,-169 672,-169 672,-169 1230.0722,-169 1230.0722,-169"/>
<polygon fill="#000000" stroke="#000000" points="1230.0723,-172.5001 1240.0722,-169 1230.0722,-165.5001 1230.0723,-172.5001"/>
</g>
<!-- WorkspaceManagerModule -->
<g id="node15" class="node">
<title>WorkspaceManagerModule</title>
<polygon fill="#8dd3c7" stroke="#000000" points="576.2626,-122 573.2626,-126 552.2626,-126 549.2626,-122 403.7374,-122 403.7374,-86 576.2626,-86 576.2626,-122"/>
<text text-anchor="middle" x="490" y="-99.8" font-family="Times,serif" font-size="14.00" fill="#000000">WorkspaceManagerModule</text>
</g>
<!-- WorkspaceManagerModule&#45;&gt;AppModule -->
<g id="edge14" class="edge">
<title>WorkspaceManagerModule&#45;&gt;AppModule</title>
<path fill="none" stroke="#000000" d="M490,-122.0267C490,-142.7672 490,-174 490,-174 490,-174 1230.2562,-174 1230.2562,-174"/>
<polygon fill="#000000" stroke="#000000" points="1230.2562,-177.5001 1240.2562,-174 1230.2562,-170.5001 1230.2562,-177.5001"/>
</g>
<!-- HttpErrorInterceptor -->
<g id="node17" class="node">
<title>HttpErrorInterceptor</title>
<ellipse fill="#fdb462" stroke="#000000" cx="289" cy="-104" rx="90.8665" ry="18"/>
<text text-anchor="middle" x="289" y="-99.8" font-family="Times,serif" font-size="14.00" fill="#000000">HttpErrorInterceptor</text>
</g>
<!-- HttpErrorInterceptor&#45;&gt;AppModule -->
<g id="edge16" class="edge">
<title>HttpErrorInterceptor&#45;&gt;AppModule</title>
<path fill="none" stroke="#000000" d="M289,-122.2921C289,-144.2057 289,-178 289,-178 289,-178 1230.2818,-178 1230.2818,-178"/>
<polygon fill="#000000" stroke="#000000" points="1230.2818,-181.5001 1240.2818,-178 1230.2818,-174.5001 1230.2818,-181.5001"/>
</g>
<!-- TokenInterceptor -->
<g id="node18" class="node">
<title>TokenInterceptor</title>
<ellipse fill="#fdb462" stroke="#000000" cx="102" cy="-104" rx="78.1308" ry="18"/>
<text text-anchor="middle" x="102" y="-99.8" font-family="Times,serif" font-size="14.00" fill="#000000">TokenInterceptor</text>
</g>
<!-- TokenInterceptor&#45;&gt;AppModule -->
<g id="edge17" class="edge">
<title>TokenInterceptor&#45;&gt;AppModule</title>
<path fill="none" stroke="#000000" d="M102,-122.3228C102,-145.6602 102,-183 102,-183 102,-183 1230.0032,-183 1230.0032,-183"/>
<polygon fill="#000000" stroke="#000000" points="1230.0032,-186.5001 1240.0032,-183 1230.0031,-179.5001 1230.0032,-186.5001"/>
</g>
</g>
</svg>
