<?xml version="1.0" encoding="UTF-8" standalone="no"?>
<!DOCTYPE svg PUBLIC "-//W3C//DTD SVG 1.1//EN"
 "http://www.w3.org/Graphics/SVG/1.1/DTD/svg11.dtd">
<!-- Generated by graphviz version 2.40.1 (20161225.0304)
 -->
<!-- Title: dependencies Pages: 1 -->
<svg width="1002pt" height="284pt"
 viewBox="0.00 0.00 1002.00 284.00" xmlns="http://www.w3.org/2000/svg" xmlns:xlink="http://www.w3.org/1999/xlink">
<g id="graph0" class="graph" transform="scale(1 1) rotate(0) translate(4 280)">
<title>dependencies</title>
<polygon fill="#ffffff" stroke="transparent" points="-4,4 -4,-280 998,-280 998,4 -4,4"/>
<text text-anchor="start" x="476.0091" y="-42.4" font-family="sans-serif" font-weight="bold" font-size="14.00" fill="#000000">Legend</text>
<polygon fill="#ffffb3" stroke="transparent" points="263,-10 263,-30 283,-30 283,-10 263,-10"/>
<text text-anchor="start" x="286.629" y="-15.4" font-family="sans-serif" font-size="14.00" fill="#000000"> &#160;Declarations</text>
<polygon fill="#8dd3c7" stroke="transparent" points="376,-10 376,-30 396,-30 396,-10 376,-10"/>
<text text-anchor="start" x="399.7251" y="-15.4" font-family="sans-serif" font-size="14.00" fill="#000000"> &#160;Module</text>
<polygon fill="#80b1d3" stroke="transparent" points="462,-10 462,-30 482,-30 482,-10 462,-10"/>
<text text-anchor="start" x="485.7812" y="-15.4" font-family="sans-serif" font-size="14.00" fill="#000000"> &#160;Bootstrap</text>
<polygon fill="#fdb462" stroke="transparent" points="559,-10 559,-30 579,-30 579,-10 559,-10"/>
<text text-anchor="start" x="582.6732" y="-15.4" font-family="sans-serif" font-size="14.00" fill="#000000"> &#160;Providers</text>
<polygon fill="#fb8072" stroke="transparent" points="655,-10 655,-30 675,-30 675,-10 655,-10"/>
<text text-anchor="start" x="678.7258" y="-15.4" font-family="sans-serif" font-size="14.00" fill="#000000"> &#160;Exports</text>
<g id="clust1" class="cluster">
<title>cluster_WorkspaceDetailModule</title>
<polygon fill="none" stroke="#000000" stroke-dasharray="1,5" points="8,-70 8,-268 986,-268 986,-70 8,-70"/>
</g>
<g id="clust2" class="cluster">
<title>cluster_WorkspaceDetailModule_declarations</title>
<polygon fill="none" stroke="#000000" points="358,-78 358,-130 978,-130 978,-78 358,-78"/>
</g>
<g id="clust7" class="cluster">
<title>cluster_WorkspaceDetailModule_imports</title>
<polygon fill="none" stroke="#000000" points="16,-78 16,-130 350,-130 350,-78 16,-78"/>
</g>
<g id="clust8" class="cluster">
<title>cluster_WorkspaceDetailModule_exports</title>
<polygon fill="none" stroke="#000000" points="427,-208 427,-260 625,-260 625,-208 427,-208"/>
</g>
<!-- AddDialogComponent -->
<g id="node1" class="node">
<title>AddDialogComponent</title>
<polygon fill="#ffffb3" stroke="#000000" points="969.5421,-122 826.4579,-122 826.4579,-86 969.5421,-86 969.5421,-122"/>
<text text-anchor="middle" x="898" y="-99.8" font-family="Times,serif" font-size="14.00" fill="#000000">AddDialogComponent</text>
</g>
<!-- WorkspaceDetailModule -->
<g id="node5" class="node">
<title>WorkspaceDetailModule</title>
<polygon fill="#8dd3c7" stroke="#000000" points="604.2212,-187 601.2212,-191 580.2212,-191 577.2212,-187 447.7788,-187 447.7788,-151 604.2212,-151 604.2212,-187"/>
<text text-anchor="middle" x="526" y="-164.8" font-family="Times,serif" font-size="14.00" fill="#000000">WorkspaceDetailModule</text>
</g>
<!-- AddDialogComponent&#45;&gt;WorkspaceDetailModule -->
<g id="edge1" class="edge">
<title>AddDialogComponent&#45;&gt;WorkspaceDetailModule</title>
<path fill="none" stroke="#000000" d="M898,-122.2843C898,-143.3211 898,-175 898,-175 898,-175 614.4371,-175 614.4371,-175"/>
<polygon fill="#000000" stroke="#000000" points="614.4371,-171.5001 604.4371,-175 614.437,-178.5001 614.4371,-171.5001"/>
</g>
<!-- DeleteDialogComponent -->
<g id="node2" class="node">
<title>DeleteDialogComponent</title>
<polygon fill="#ffffb3" stroke="#000000" points="807.9664,-122 652.0336,-122 652.0336,-86 807.9664,-86 807.9664,-122"/>
<text text-anchor="middle" x="730" y="-99.8" font-family="Times,serif" font-size="14.00" fill="#000000">DeleteDialogComponent</text>
</g>
<!-- DeleteDialogComponent&#45;&gt;WorkspaceDetailModule -->
<g id="edge2" class="edge">
<title>DeleteDialogComponent&#45;&gt;WorkspaceDetailModule</title>
<path fill="none" stroke="#000000" d="M730,-122.0225C730,-139.3734 730,-163 730,-163 730,-163 614.2883,-163 614.2883,-163"/>
<polygon fill="#000000" stroke="#000000" points="614.2883,-159.5001 604.2883,-163 614.2883,-166.5001 614.2883,-159.5001"/>
</g>
<!-- FilterPipe -->
<g id="node3" class="node">
<title>FilterPipe</title>
<polygon fill="#ffffb3" stroke="#000000" points="633.7177,-122 562.2823,-122 562.2823,-86 633.7177,-86 633.7177,-122"/>
<text text-anchor="middle" x="598" y="-99.8" font-family="Times,serif" font-size="14.00" fill="#000000">FilterPipe</text>
</g>
<!-- FilterPipe&#45;&gt;WorkspaceDetailModule -->
<g id="edge3" class="edge">
<title>FilterPipe&#45;&gt;WorkspaceDetailModule</title>
<path fill="none" stroke="#000000" d="M583.3759,-122.1061C583.3759,-122.1061 583.3759,-140.991 583.3759,-140.991"/>
<polygon fill="#000000" stroke="#000000" points="579.876,-140.9909 583.3759,-150.991 586.876,-140.991 579.876,-140.9909"/>
</g>
<!-- WorkspaceDetailComponent -->
<g id="node4" class="node">
<title>WorkspaceDetailComponent</title>
<polygon fill="#ffffb3" stroke="#000000" points="544.0043,-122 365.9957,-122 365.9957,-86 544.0043,-86 544.0043,-122"/>
<text text-anchor="middle" x="455" y="-99.8" font-family="Times,serif" font-size="14.00" fill="#000000">WorkspaceDetailComponent</text>
</g>
<!-- WorkspaceDetailComponent&#45;&gt;WorkspaceDetailModule -->
<g id="edge4" class="edge">
<title>WorkspaceDetailComponent&#45;&gt;WorkspaceDetailModule</title>
<path fill="none" stroke="#000000" d="M495.9457,-122.1061C495.9457,-122.1061 495.9457,-140.991 495.9457,-140.991"/>
<polygon fill="#000000" stroke="#000000" points="492.4457,-140.9909 495.9457,-150.991 499.4457,-140.991 492.4457,-140.9909"/>
</g>
<!-- WorkspaceDetailComponent  -->
<g id="node8" class="node">
<title>WorkspaceDetailComponent </title>
<polygon fill="#fb8072" stroke="#000000" points="617.0036,-252 434.9964,-252 434.9964,-216 617.0036,-216 617.0036,-252"/>
<text text-anchor="middle" x="526" y="-229.8" font-family="Times,serif" font-size="14.00" fill="#000000">WorkspaceDetailComponent </text>
</g>
<!-- WorkspaceDetailModule&#45;&gt;WorkspaceDetailComponent  -->
<g id="edge7" class="edge">
<title>WorkspaceDetailModule&#45;&gt;WorkspaceDetailComponent </title>
<path fill="none" stroke="#000000" stroke-dasharray="5,2" d="M526,-187.1061C526,-187.1061 526,-205.991 526,-205.991"/>
<polygon fill="#000000" stroke="#000000" points="522.5001,-205.9909 526,-215.991 529.5001,-205.991 522.5001,-205.9909"/>
</g>
<!-- SharedModule -->
<g id="node6" class="node">
<title>SharedModule</title>
<polygon fill="#8dd3c7" stroke="#000000" points="342.4231,-122 339.4231,-126 318.4231,-126 315.4231,-122 243.5769,-122 243.5769,-86 342.4231,-86 342.4231,-122"/>
<text text-anchor="middle" x="293" y="-99.8" font-family="Times,serif" font-size="14.00" fill="#000000">SharedModule</text>
</g>
<!-- SharedModule&#45;&gt;WorkspaceDetailModule -->
<g id="edge5" class="edge">
<title>SharedModule&#45;&gt;WorkspaceDetailModule</title>
<path fill="none" stroke="#000000" d="M293,-122.0225C293,-139.3734 293,-163 293,-163 293,-163 437.7662,-163 437.7662,-163"/>
<polygon fill="#000000" stroke="#000000" points="437.7662,-166.5001 447.7662,-163 437.7662,-159.5001 437.7662,-166.5001"/>
</g>
<!-- WorkspaceDetailRoutingModule -->
<g id="node7" class="node">
<title>WorkspaceDetailRoutingModule</title>
<polygon fill="#8dd3c7" stroke="#000000" points="225.8389,-122 222.8389,-126 201.8389,-126 198.8389,-122 24.1611,-122 24.1611,-86 225.8389,-86 225.8389,-122"/>
<text text-anchor="middle" x="125" y="-99.8" font-family="Times,serif" font-size="14.00" fill="#000000">WorkspaceDetailRoutingModule</text>
</g>
<!-- WorkspaceDetailRoutingModule&#45;&gt;WorkspaceDetailModule -->
<g id="edge6" class="edge">
<title>WorkspaceDetailRoutingModule&#45;&gt;WorkspaceDetailModule</title>
<path fill="none" stroke="#000000" d="M125,-122.2843C125,-143.3211 125,-175 125,-175 125,-175 437.7312,-175 437.7312,-175"/>
<polygon fill="#000000" stroke="#000000" points="437.7313,-178.5001 447.7312,-175 437.7312,-171.5001 437.7313,-178.5001"/>
</g>
</g>
</svg>
