<?xml version="1.0" encoding="UTF-8" standalone="no"?>
<!DOCTYPE svg PUBLIC "-//W3C//DTD SVG 1.1//EN"
 "http://www.w3.org/Graphics/SVG/1.1/DTD/svg11.dtd">
<!-- Generated by graphviz version 2.40.1 (20161225.0304)
 -->
<!-- Title: dependencies Pages: 1 -->
<svg width="3149pt" height="211pt"
 viewBox="0.00 0.00 3149.00 211.00" xmlns="http://www.w3.org/2000/svg" xmlns:xlink="http://www.w3.org/1999/xlink">
<g id="graph0" class="graph" transform="scale(1 1) rotate(0) translate(4 207)">
<title>dependencies</title>
<polygon fill="#ffffff" stroke="transparent" points="-4,4 -4,-207 3145,-207 3145,4 -4,4"/>
<text text-anchor="start" x="1549.5091" y="-42.4" font-family="sans-serif" font-weight="bold" font-size="14.00" fill="#000000">Legend</text>
<polygon fill="#ffffb3" stroke="transparent" points="1336.5,-10 1336.5,-30 1356.5,-30 1356.5,-10 1336.5,-10"/>
<text text-anchor="start" x="1360.129" y="-15.4" font-family="sans-serif" font-size="14.00" fill="#000000"> &#160;Declarations</text>
<polygon fill="#8dd3c7" stroke="transparent" points="1449.5,-10 1449.5,-30 1469.5,-30 1469.5,-10 1449.5,-10"/>
<text text-anchor="start" x="1473.2251" y="-15.4" font-family="sans-serif" font-size="14.00" fill="#000000"> &#160;Module</text>
<polygon fill="#80b1d3" stroke="transparent" points="1535.5,-10 1535.5,-30 1555.5,-30 1555.5,-10 1535.5,-10"/>
<text text-anchor="start" x="1559.2812" y="-15.4" font-family="sans-serif" font-size="14.00" fill="#000000"> &#160;Bootstrap</text>
<polygon fill="#fdb462" stroke="transparent" points="1632.5,-10 1632.5,-30 1652.5,-30 1652.5,-10 1632.5,-10"/>
<text text-anchor="start" x="1656.1732" y="-15.4" font-family="sans-serif" font-size="14.00" fill="#000000"> &#160;Providers</text>
<polygon fill="#fb8072" stroke="transparent" points="1728.5,-10 1728.5,-30 1748.5,-30 1748.5,-10 1728.5,-10"/>
<text text-anchor="start" x="1752.2258" y="-15.4" font-family="sans-serif" font-size="14.00" fill="#000000"> &#160;Exports</text>
<g id="clust1" class="cluster">
<title>cluster_WorkspaceDetailModule</title>
<polygon fill="none" stroke="#000000" stroke-dasharray="1,5" points="8,-70 8,-195 3133,-195 3133,-70 8,-70"/>
</g>
<g id="clust2" class="cluster">
<title>cluster_WorkspaceDetailModule_declarations</title>
<polygon fill="none" stroke="#000000" points="484,-78 484,-130 3125,-130 3125,-78 484,-78"/>
</g>
<g id="clust18" class="cluster">
<title>cluster_WorkspaceDetailModule_imports</title>
<polygon fill="none" stroke="#000000" points="16,-78 16,-130 476,-130 476,-78 16,-78"/>
</g>
<!-- AddAnnotationDialogComponent -->
<g id="node1" class="node">
<title>AddAnnotationDialogComponent</title>
<polygon fill="#ffffb3" stroke="#000000" points="3117.0349,-122 2910.9651,-122 2910.9651,-86 3117.0349,-86 3117.0349,-122"/>
<text text-anchor="middle" x="3014" y="-99.8" font-family="Times,serif" font-size="14.00" fill="#000000">AddAnnotationDialogComponent</text>
</g>
<!-- WorkspaceDetailModule -->
<g id="node16" class="node">
<title>WorkspaceDetailModule</title>
<polygon fill="#8dd3c7" stroke="#000000" points="1569.2212,-187 1566.2212,-191 1545.2212,-191 1542.2212,-187 1412.7788,-187 1412.7788,-151 1569.2212,-151 1569.2212,-187"/>
<text text-anchor="middle" x="1491" y="-164.8" font-family="Times,serif" font-size="14.00" fill="#000000">WorkspaceDetailModule</text>
</g>
<!-- AddAnnotationDialogComponent&#45;&gt;WorkspaceDetailModule -->
<g id="edge1" class="edge">
<title>AddAnnotationDialogComponent&#45;&gt;WorkspaceDetailModule</title>
<path fill="none" stroke="#000000" d="M3014,-122.3228C3014,-145.6602 3014,-183 3014,-183 3014,-183 1579.4113,-183 1579.4113,-183"/>
<polygon fill="#000000" stroke="#000000" points="1579.4114,-179.5001 1569.4113,-183 1579.4113,-186.5001 1579.4114,-179.5001"/>
</g>
<!-- AddDialogComponent -->
<g id="node2" class="node">
<title>AddDialogComponent</title>
<polygon fill="#ffffb3" stroke="#000000" points="2892.5421,-122 2749.4579,-122 2749.4579,-86 2892.5421,-86 2892.5421,-122"/>
<text text-anchor="middle" x="2821" y="-99.8" font-family="Times,serif" font-size="14.00" fill="#000000">AddDialogComponent</text>
</g>
<!-- AddDialogComponent&#45;&gt;WorkspaceDetailModule -->
<g id="edge2" class="edge">
<title>AddDialogComponent&#45;&gt;WorkspaceDetailModule</title>
<path fill="none" stroke="#000000" d="M2821,-122.1554C2821,-144.3519 2821,-179 2821,-179 2821,-179 1579.2322,-179 1579.2322,-179"/>
<polygon fill="#000000" stroke="#000000" points="1579.2322,-175.5001 1569.2322,-179 1579.2321,-182.5001 1579.2322,-175.5001"/>
</g>
<!-- AddObservationSetDialogComponent -->
<g id="node3" class="node">
<title>AddObservationSetDialogComponent</title>
<polygon fill="#ffffb3" stroke="#000000" points="2730.8514,-122 2501.1486,-122 2501.1486,-86 2730.8514,-86 2730.8514,-122"/>
<text text-anchor="middle" x="2616" y="-99.8" font-family="Times,serif" font-size="14.00" fill="#000000">AddObservationSetDialogComponent</text>
</g>
<!-- AddObservationSetDialogComponent&#45;&gt;WorkspaceDetailModule -->
<g id="edge3" class="edge">
<title>AddObservationSetDialogComponent&#45;&gt;WorkspaceDetailModule</title>
<path fill="none" stroke="#000000" d="M2616,-122.2843C2616,-143.3211 2616,-175 2616,-175 2616,-175 1579.6607,-175 1579.6607,-175"/>
<polygon fill="#000000" stroke="#000000" points="1579.6607,-171.5001 1569.6607,-175 1579.6606,-178.5001 1579.6607,-171.5001"/>
</g>
<!-- AnnotationFilesPipe -->
<g id="node4" class="node">
<title>AnnotationFilesPipe</title>
<polygon fill="#ffffb3" stroke="#000000" points="2483.6038,-122 2352.3962,-122 2352.3962,-86 2483.6038,-86 2483.6038,-122"/>
<text text-anchor="middle" x="2418" y="-99.8" font-family="Times,serif" font-size="14.00" fill="#000000">AnnotationFilesPipe</text>
</g>
<!-- AnnotationFilesPipe&#45;&gt;WorkspaceDetailModule -->
<g id="edge4" class="edge">
<title>AnnotationFilesPipe&#45;&gt;WorkspaceDetailModule</title>
<path fill="none" stroke="#000000" d="M2418,-122.308C2418,-142.1455 2418,-171 2418,-171 2418,-171 1579.2366,-171 1579.2366,-171"/>
<polygon fill="#000000" stroke="#000000" points="1579.2366,-167.5001 1569.2366,-171 1579.2365,-174.5001 1579.2366,-167.5001"/>
</g>
<!-- DeleteDialogComponent -->
<g id="node5" class="node">
<title>DeleteDialogComponent</title>
<polygon fill="#ffffb3" stroke="#000000" points="2333.9664,-122 2178.0336,-122 2178.0336,-86 2333.9664,-86 2333.9664,-122"/>
<text text-anchor="middle" x="2256" y="-99.8" font-family="Times,serif" font-size="14.00" fill="#000000">DeleteDialogComponent</text>
</g>
<!-- DeleteDialogComponent&#45;&gt;WorkspaceDetailModule -->
<g id="edge5" class="edge">
<title>DeleteDialogComponent&#45;&gt;WorkspaceDetailModule</title>
<path fill="none" stroke="#000000" d="M2256,-122.2222C2256,-140.8285 2256,-167 2256,-167 2256,-167 1579.2733,-167 1579.2733,-167"/>
<polygon fill="#000000" stroke="#000000" points="1579.2734,-163.5001 1569.2733,-167 1579.2733,-170.5001 1579.2734,-163.5001"/>
</g>
<!-- DeleteSetDialogComponent -->
<g id="node6" class="node">
<title>DeleteSetDialogComponent</title>
<polygon fill="#ffffb3" stroke="#000000" points="2159.8543,-122 1986.1457,-122 1986.1457,-86 2159.8543,-86 2159.8543,-122"/>
<text text-anchor="middle" x="2073" y="-99.8" font-family="Times,serif" font-size="14.00" fill="#000000">DeleteSetDialogComponent</text>
</g>
<!-- DeleteSetDialogComponent&#45;&gt;WorkspaceDetailModule -->
<g id="edge6" class="edge">
<title>DeleteSetDialogComponent&#45;&gt;WorkspaceDetailModule</title>
<path fill="none" stroke="#000000" d="M2073,-122.0225C2073,-139.3734 2073,-163 2073,-163 2073,-163 1579.4911,-163 1579.4911,-163"/>
<polygon fill="#000000" stroke="#000000" points="1579.4911,-159.5001 1569.4911,-163 1579.4911,-166.5001 1579.4911,-159.5001"/>
</g>
<!-- EditDialogComponent -->
<g id="node7" class="node">
<title>EditDialogComponent</title>
<polygon fill="#ffffb3" stroke="#000000" points="1968.2688,-122 1825.7312,-122 1825.7312,-86 1968.2688,-86 1968.2688,-122"/>
<text text-anchor="middle" x="1897" y="-99.8" font-family="Times,serif" font-size="14.00" fill="#000000">EditDialogComponent</text>
</g>
<!-- EditDialogComponent&#45;&gt;WorkspaceDetailModule -->
<g id="edge7" class="edge">
<title>EditDialogComponent&#45;&gt;WorkspaceDetailModule</title>
<path fill="none" stroke="#000000" d="M1897,-122.0091C1897,-138.0494 1897,-159 1897,-159 1897,-159 1579.2809,-159 1579.2809,-159"/>
<polygon fill="#000000" stroke="#000000" points="1579.2809,-155.5001 1569.2809,-159 1579.2808,-162.5001 1579.2809,-155.5001"/>
</g>
<!-- EditFeatureSetDialogComponent -->
<g id="node8" class="node">
<title>EditFeatureSetDialogComponent</title>
<polygon fill="#ffffb3" stroke="#000000" points="1807.1343,-122 1604.8657,-122 1604.8657,-86 1807.1343,-86 1807.1343,-122"/>
<text text-anchor="middle" x="1706" y="-99.8" font-family="Times,serif" font-size="14.00" fill="#000000">EditFeatureSetDialogComponent</text>
</g>
<!-- EditFeatureSetDialogComponent&#45;&gt;WorkspaceDetailModule -->
<g id="edge8" class="edge">
<title>EditFeatureSetDialogComponent&#45;&gt;WorkspaceDetailModule</title>
<path fill="none" stroke="#000000" d="M1706,-122.1243C1706,-136.7832 1706,-155 1706,-155 1706,-155 1579.2281,-155 1579.2281,-155"/>
<polygon fill="#000000" stroke="#000000" points="1579.2282,-151.5001 1569.2281,-155 1579.2281,-158.5001 1579.2282,-151.5001"/>
</g>
<!-- FilterPipe -->
<g id="node9" class="node">
<title>FilterPipe</title>
<polygon fill="#ffffb3" stroke="#000000" points="1586.7177,-122 1515.2823,-122 1515.2823,-86 1586.7177,-86 1586.7177,-122"/>
<text text-anchor="middle" x="1551" y="-99.8" font-family="Times,serif" font-size="14.00" fill="#000000">FilterPipe</text>
</g>
<!-- FilterPipe&#45;&gt;WorkspaceDetailModule -->
<g id="edge9" class="edge">
<title>FilterPipe&#45;&gt;WorkspaceDetailModule</title>
<path fill="none" stroke="#000000" d="M1542.3759,-122.1061C1542.3759,-122.1061 1542.3759,-140.991 1542.3759,-140.991"/>
<polygon fill="#000000" stroke="#000000" points="1538.876,-140.9909 1542.3759,-150.991 1545.876,-140.991 1538.876,-140.9909"/>
</g>
<!-- MetadataComponent -->
<g id="node10" class="node">
<title>MetadataComponent</title>
<polygon fill="#ffffb3" stroke="#000000" points="1497.9173,-122 1364.0827,-122 1364.0827,-86 1497.9173,-86 1497.9173,-122"/>
<text text-anchor="middle" x="1431" y="-99.8" font-family="Times,serif" font-size="14.00" fill="#000000">MetadataComponent</text>
</g>
<!-- MetadataComponent&#45;&gt;WorkspaceDetailModule -->
<g id="edge10" class="edge">
<title>MetadataComponent&#45;&gt;WorkspaceDetailModule</title>
<path fill="none" stroke="#000000" d="M1455.1739,-122.1061C1455.1739,-122.1061 1455.1739,-140.991 1455.1739,-140.991"/>
<polygon fill="#000000" stroke="#000000" points="1451.674,-140.9909 1455.1739,-150.991 1458.674,-140.991 1451.674,-140.9909"/>
</g>
<!-- PreviewDialogComponent -->
<g id="node11" class="node">
<title>PreviewDialogComponent</title>
<polygon fill="#ffffb3" stroke="#000000" points="1346.8047,-122 1181.1953,-122 1181.1953,-86 1346.8047,-86 1346.8047,-122"/>
<text text-anchor="middle" x="1264" y="-99.8" font-family="Times,serif" font-size="14.00" fill="#000000">PreviewDialogComponent</text>
</g>
<!-- PreviewDialogComponent&#45;&gt;WorkspaceDetailModule -->
<g id="edge11" class="edge">
<title>PreviewDialogComponent&#45;&gt;WorkspaceDetailModule</title>
<path fill="none" stroke="#000000" d="M1264,-122.1243C1264,-136.7832 1264,-155 1264,-155 1264,-155 1402.5616,-155 1402.5616,-155"/>
<polygon fill="#000000" stroke="#000000" points="1402.5617,-158.5001 1412.5616,-155 1402.5616,-151.5001 1402.5617,-158.5001"/>
</g>
<!-- ValidFilesPipe -->
<g id="node12" class="node">
<title>ValidFilesPipe</title>
<polygon fill="#ffffb3" stroke="#000000" points="1163.7134,-122 1064.2866,-122 1064.2866,-86 1163.7134,-86 1163.7134,-122"/>
<text text-anchor="middle" x="1114" y="-99.8" font-family="Times,serif" font-size="14.00" fill="#000000">ValidFilesPipe</text>
</g>
<!-- ValidFilesPipe&#45;&gt;WorkspaceDetailModule -->
<g id="edge12" class="edge">
<title>ValidFilesPipe&#45;&gt;WorkspaceDetailModule</title>
<path fill="none" stroke="#000000" d="M1114,-122.0091C1114,-138.0494 1114,-159 1114,-159 1114,-159 1402.4273,-159 1402.4273,-159"/>
<polygon fill="#000000" stroke="#000000" points="1402.4274,-162.5001 1412.4273,-159 1402.4273,-155.5001 1402.4274,-162.5001"/>
</g>
<!-- ViewInfoDialogComponent -->
<g id="node13" class="node">
<title>ViewInfoDialogComponent</title>
<polygon fill="#ffffb3" stroke="#000000" points="1046.5744,-122 873.4256,-122 873.4256,-86 1046.5744,-86 1046.5744,-122"/>
<text text-anchor="middle" x="960" y="-99.8" font-family="Times,serif" font-size="14.00" fill="#000000">ViewInfoDialogComponent</text>
</g>
<!-- ViewInfoDialogComponent&#45;&gt;WorkspaceDetailModule -->
<g id="edge13" class="edge">
<title>ViewInfoDialogComponent&#45;&gt;WorkspaceDetailModule</title>
<path fill="none" stroke="#000000" d="M960,-122.0225C960,-139.3734 960,-163 960,-163 960,-163 1402.6491,-163 1402.6491,-163"/>
<polygon fill="#000000" stroke="#000000" points="1402.6492,-166.5001 1412.6491,-163 1402.6491,-159.5001 1402.6492,-166.5001"/>
</g>
<!-- ViewSetDialogComponent -->
<g id="node14" class="node">
<title>ViewSetDialogComponent</title>
<polygon fill="#ffffb3" stroke="#000000" points="855.6414,-122 688.3586,-122 688.3586,-86 855.6414,-86 855.6414,-122"/>
<text text-anchor="middle" x="772" y="-99.8" font-family="Times,serif" font-size="14.00" fill="#000000">ViewSetDialogComponent</text>
</g>
<!-- ViewSetDialogComponent&#45;&gt;WorkspaceDetailModule -->
<g id="edge14" class="edge">
<title>ViewSetDialogComponent&#45;&gt;WorkspaceDetailModule</title>
<path fill="none" stroke="#000000" d="M772,-122.2222C772,-140.8285 772,-167 772,-167 772,-167 1402.6857,-167 1402.6857,-167"/>
<polygon fill="#000000" stroke="#000000" points="1402.6857,-170.5001 1412.6857,-167 1402.6857,-163.5001 1402.6857,-170.5001"/>
</g>
<!-- WorkspaceDetailComponent -->
<g id="node15" class="node">
<title>WorkspaceDetailComponent</title>
<polygon fill="#ffffb3" stroke="#000000" points="670.0043,-122 491.9957,-122 491.9957,-86 670.0043,-86 670.0043,-122"/>
<text text-anchor="middle" x="581" y="-99.8" font-family="Times,serif" font-size="14.00" fill="#000000">WorkspaceDetailComponent</text>
</g>
<!-- WorkspaceDetailComponent&#45;&gt;WorkspaceDetailModule -->
<g id="edge15" class="edge">
<title>WorkspaceDetailComponent&#45;&gt;WorkspaceDetailModule</title>
<path fill="none" stroke="#000000" d="M581,-122.308C581,-142.1455 581,-171 581,-171 581,-171 1402.6263,-171 1402.6263,-171"/>
<polygon fill="#000000" stroke="#000000" points="1402.6263,-174.5001 1412.6263,-171 1402.6263,-167.5001 1402.6263,-174.5001"/>
</g>
<!-- AnalysisModule -->
<g id="node17" class="node">
<title>AnalysisModule</title>
<polygon fill="#8dd3c7" stroke="#000000" points="468.0424,-122 465.0424,-126 444.0424,-126 441.0424,-122 359.9576,-122 359.9576,-86 468.0424,-86 468.0424,-122"/>
<text text-anchor="middle" x="414" y="-99.8" font-family="Times,serif" font-size="14.00" fill="#000000">AnalysisModule</text>
</g>
<!-- AnalysisModule&#45;&gt;WorkspaceDetailModule -->
<g id="edge16" class="edge">
<title>AnalysisModule&#45;&gt;WorkspaceDetailModule</title>
<path fill="none" stroke="#000000" d="M414,-122.2843C414,-143.3211 414,-175 414,-175 414,-175 1402.6773,-175 1402.6773,-175"/>
<polygon fill="#000000" stroke="#000000" points="1402.6773,-178.5001 1412.6773,-175 1402.6772,-171.5001 1402.6773,-178.5001"/>
</g>
<!-- SharedModule -->
<g id="node18" class="node">
<title>SharedModule</title>
<polygon fill="#8dd3c7" stroke="#000000" points="342.4231,-122 339.4231,-126 318.4231,-126 315.4231,-122 243.5769,-122 243.5769,-86 342.4231,-86 342.4231,-122"/>
<text text-anchor="middle" x="293" y="-99.8" font-family="Times,serif" font-size="14.00" fill="#000000">SharedModule</text>
</g>
<!-- SharedModule&#45;&gt;WorkspaceDetailModule -->
<g id="edge17" class="edge">
<title>SharedModule&#45;&gt;WorkspaceDetailModule</title>
<path fill="none" stroke="#000000" d="M293,-122.1554C293,-144.3519 293,-179 293,-179 293,-179 1402.3959,-179 1402.3959,-179"/>
<polygon fill="#000000" stroke="#000000" points="1402.3959,-182.5001 1412.3959,-179 1402.3958,-175.5001 1402.3959,-182.5001"/>
</g>
<!-- WorkspaceDetailRoutingModule -->
<g id="node19" class="node">
<title>WorkspaceDetailRoutingModule</title>
<polygon fill="#8dd3c7" stroke="#000000" points="225.8389,-122 222.8389,-126 201.8389,-126 198.8389,-122 24.1611,-122 24.1611,-86 225.8389,-86 225.8389,-122"/>
<text text-anchor="middle" x="125" y="-99.8" font-family="Times,serif" font-size="14.00" fill="#000000">WorkspaceDetailRoutingModule</text>
</g>
<!-- WorkspaceDetailRoutingModule&#45;&gt;WorkspaceDetailModule -->
<g id="edge18" class="edge">
<title>WorkspaceDetailRoutingModule&#45;&gt;WorkspaceDetailModule</title>
<path fill="none" stroke="#000000" d="M125,-122.3228C125,-145.6602 125,-183 125,-183 125,-183 1402.6517,-183 1402.6517,-183"/>
<polygon fill="#000000" stroke="#000000" points="1402.6517,-186.5001 1412.6517,-183 1402.6516,-179.5001 1402.6517,-186.5001"/>
</g>
</g>
</svg>
