<?xml version="1.0" encoding="UTF-8" standalone="no"?>
<!DOCTYPE svg PUBLIC "-//W3C//DTD SVG 1.1//EN"
 "http://www.w3.org/Graphics/SVG/1.1/DTD/svg11.dtd">
<!-- Generated by graphviz version 2.40.1 (20161225.0304)
 -->
<!-- Title: dependencies Pages: 1 -->
<svg width="6710pt" height="360pt"
 viewBox="0.00 0.00 6710.00 360.00" xmlns="http://www.w3.org/2000/svg" xmlns:xlink="http://www.w3.org/1999/xlink">
<g id="graph0" class="graph" transform="scale(1 1) rotate(0) translate(4 356)">
<title>dependencies</title>
<polygon fill="#ffffff" stroke="transparent" points="-4,4 -4,-356 6706,-356 6706,4 -4,4"/>
<text text-anchor="start" x="3330.0091" y="-42.4" font-family="sans-serif" font-weight="bold" font-size="14.00" fill="#000000">Legend</text>
<polygon fill="#ffffb3" stroke="transparent" points="3117,-10 3117,-30 3137,-30 3137,-10 3117,-10"/>
<text text-anchor="start" x="3140.629" y="-15.4" font-family="sans-serif" font-size="14.00" fill="#000000"> &#160;Declarations</text>
<polygon fill="#8dd3c7" stroke="transparent" points="3230,-10 3230,-30 3250,-30 3250,-10 3230,-10"/>
<text text-anchor="start" x="3253.7251" y="-15.4" font-family="sans-serif" font-size="14.00" fill="#000000"> &#160;Module</text>
<polygon fill="#80b1d3" stroke="transparent" points="3316,-10 3316,-30 3336,-30 3336,-10 3316,-10"/>
<text text-anchor="start" x="3339.7812" y="-15.4" font-family="sans-serif" font-size="14.00" fill="#000000"> &#160;Bootstrap</text>
<polygon fill="#fdb462" stroke="transparent" points="3413,-10 3413,-30 3433,-30 3433,-10 3413,-10"/>
<text text-anchor="start" x="3436.6732" y="-15.4" font-family="sans-serif" font-size="14.00" fill="#000000"> &#160;Providers</text>
<polygon fill="#fb8072" stroke="transparent" points="3509,-10 3509,-30 3529,-30 3529,-10 3509,-10"/>
<text text-anchor="start" x="3532.7258" y="-15.4" font-family="sans-serif" font-size="14.00" fill="#000000"> &#160;Exports</text>
<g id="clust1" class="cluster">
<title>cluster_AboutModule</title>
<polygon fill="none" stroke="#000000" stroke-dasharray="1,5" points="5870,-70 5870,-206 6298,-206 6298,-70 5870,-70"/>
</g>
<g id="clust2" class="cluster">
<title>cluster_AboutModule_declarations</title>
<polygon fill="none" stroke="#000000" points="6158,-78 6158,-130 6290,-130 6290,-78 6158,-78"/>
</g>
<g id="clust4" class="cluster">
<title>cluster_AboutModule_imports</title>
<polygon fill="none" stroke="#000000" points="5878,-78 5878,-130 6150,-130 6150,-78 5878,-78"/>
</g>
<g id="clust14" class="cluster">
<title>cluster_AppModule</title>
<polygon fill="none" stroke="#000000" stroke-dasharray="1,5" points="8,-70 8,-344 2188,-344 2188,-70 8,-70"/>
</g>
<g id="clust15" class="cluster">
<title>cluster_AppModule_declarations</title>
<polygon fill="none" stroke="#000000" points="819,-154 819,-206 2180,-206 2180,-154 819,-154"/>
</g>
<g id="clust24" class="cluster">
<title>cluster_AppModule_imports</title>
<polygon fill="none" stroke="#000000" points="48,-154 48,-206 811,-206 811,-154 48,-154"/>
</g>
<g id="clust26" class="cluster">
<title>cluster_AppModule_bootstrap</title>
<polygon fill="none" stroke="#000000" points="907,-284 907,-336 1031,-336 1031,-284 907,-284"/>
</g>
<g id="clust27" class="cluster">
<title>cluster_AppModule_providers</title>
<polygon fill="none" stroke="#000000" points="16,-78 16,-130 388,-130 388,-78 16,-78"/>
</g>
<g id="clust40" class="cluster">
<title>cluster_FileManagerModule</title>
<polygon fill="none" stroke="#000000" stroke-dasharray="1,5" points="2196,-70 2196,-138 3585,-138 3585,-70 2196,-70"/>
</g>
<g id="clust41" class="cluster">
<title>cluster_FileManagerModule_declarations</title>
<polygon fill="none" stroke="#000000" points="2556,-78 2556,-130 3577,-130 3577,-78 2556,-78"/>
</g>
<g id="clust48" class="cluster">
<title>cluster_FileManagerModule_imports</title>
<polygon fill="none" stroke="#000000" points="2356,-78 2356,-130 2548,-130 2548,-78 2356,-78"/>
</g>
<g id="clust49" class="cluster">
<title>cluster_FileManagerModule_exports</title>
<polygon fill="none" stroke="#000000" points="2204,-78 2204,-130 2348,-130 2348,-78 2204,-78"/>
</g>
<g id="clust58" class="cluster">
<title>cluster_SettingsModule</title>
<polygon fill="none" stroke="#000000" stroke-dasharray="1,5" points="6306,-70 6306,-206 6694,-206 6694,-70 6306,-70"/>
</g>
<g id="clust59" class="cluster">
<title>cluster_SettingsModule_declarations</title>
<polygon fill="none" stroke="#000000" points="6488,-78 6488,-130 6686,-130 6686,-78 6488,-78"/>
</g>
<g id="clust61" class="cluster">
<title>cluster_SettingsModule_imports</title>
<polygon fill="none" stroke="#000000" points="6314,-78 6314,-130 6480,-130 6480,-78 6314,-78"/>
</g>
<g id="clust71" class="cluster">
<title>cluster_SharedModule</title>
<polygon fill="none" stroke="#000000" stroke-dasharray="1,5" points="5420,-146 5420,-214 5862,-214 5862,-146 5420,-146"/>
</g>
<g id="clust72" class="cluster">
<title>cluster_SharedModule_declarations</title>
<polygon fill="none" stroke="#000000" points="5708,-154 5708,-206 5854,-206 5854,-154 5708,-154"/>
</g>
<g id="clust76" class="cluster">
<title>cluster_SharedModule_exports</title>
<polygon fill="none" stroke="#000000" points="5428,-154 5428,-206 5700,-206 5700,-154 5428,-154"/>
</g>
<g id="clust79" class="cluster">
<title>cluster_WorkspaceDetailModule</title>
<polygon fill="none" stroke="#000000" stroke-dasharray="1,5" points="3593,-70 3593,-138 4661,-138 4661,-70 3593,-70"/>
</g>
<g id="clust80" class="cluster">
<title>cluster_WorkspaceDetailModule_declarations</title>
<polygon fill="none" stroke="#000000" points="4033,-78 4033,-130 4653,-130 4653,-78 4033,-78"/>
</g>
<g id="clust85" class="cluster">
<title>cluster_WorkspaceDetailModule_imports</title>
<polygon fill="none" stroke="#000000" points="3807,-78 3807,-130 4025,-130 4025,-78 3807,-78"/>
</g>
<g id="clust86" class="cluster">
<title>cluster_WorkspaceDetailModule_exports</title>
<polygon fill="none" stroke="#000000" points="3601,-78 3601,-130 3799,-130 3799,-78 3601,-78"/>
</g>
<g id="clust95" class="cluster">
<title>cluster_WorkspaceManagerModule</title>
<polygon fill="none" stroke="#000000" stroke-dasharray="1,5" points="4669,-70 4669,-138 5862,-138 5862,-70 4669,-70"/>
</g>
<g id="clust96" class="cluster">
<title>cluster_WorkspaceManagerModule_declarations</title>
<polygon fill="none" stroke="#000000" points="5113,-78 5113,-130 5854,-130 5854,-78 5113,-78"/>
</g>
<g id="clust101" class="cluster">
<title>cluster_WorkspaceManagerModule_imports</title>
<polygon fill="none" stroke="#000000" points="4871,-78 4871,-130 5105,-130 5105,-78 4871,-78"/>
</g>
<g id="clust102" class="cluster">
<title>cluster_WorkspaceManagerModule_exports</title>
<polygon fill="none" stroke="#000000" points="4677,-78 4677,-130 4863,-130 4863,-78 4677,-78"/>
</g>
<!-- AboutComponent -->
<g id="node1" class="node">
<title>AboutComponent</title>
<polygon fill="#ffffb3" stroke="#000000" points="6282.3301,-122 6165.6699,-122 6165.6699,-86 6282.3301,-86 6282.3301,-122"/>
<text text-anchor="middle" x="6224" y="-99.8" font-family="Times,serif" font-size="14.00" fill="#000000">AboutComponent</text>
</g>
<!-- AboutModule -->
<g id="node2" class="node">
<title>AboutModule</title>
<polygon fill="#8dd3c7" stroke="#000000" points="5982.0481,-198 5979.0481,-202 5958.0481,-202 5955.0481,-198 5887.9519,-198 5887.9519,-162 5982.0481,-162 5982.0481,-198"/>
<text text-anchor="middle" x="5935" y="-175.8" font-family="Times,serif" font-size="14.00" fill="#000000">AboutModule</text>
</g>
<!-- AboutComponent&#45;&gt;AboutModule -->
<g id="edge1" class="edge">
<title>AboutComponent&#45;&gt;AboutModule</title>
<path fill="none" stroke="#000000" d="M6224,-122.0263C6224,-146.9773 6224,-189 6224,-189 6224,-189 5992.076,-189 5992.076,-189"/>
<polygon fill="#000000" stroke="#000000" points="5992.0761,-185.5001 5982.076,-189 5992.076,-192.5001 5992.0761,-185.5001"/>
</g>
<!-- AboutRoutingModule -->
<g id="node3" class="node">
<title>AboutRoutingModule</title>
<polygon fill="#8dd3c7" stroke="#000000" points="6141.6652,-122 6138.6652,-126 6117.6652,-126 6114.6652,-122 6002.3348,-122 6002.3348,-86 6141.6652,-86 6141.6652,-122"/>
<text text-anchor="middle" x="6072" y="-99.8" font-family="Times,serif" font-size="14.00" fill="#000000">AboutRoutingModule</text>
</g>
<!-- AboutRoutingModule&#45;&gt;AboutModule -->
<g id="edge2" class="edge">
<title>AboutRoutingModule&#45;&gt;AboutModule</title>
<path fill="none" stroke="#000000" d="M6072,-122.0109C6072,-144.4852 6072,-180 6072,-180 6072,-180 5992.1476,-180 5992.1476,-180"/>
<polygon fill="#000000" stroke="#000000" points="5992.1477,-176.5001 5982.1476,-180 5992.1476,-183.5001 5992.1477,-176.5001"/>
</g>
<!-- SharedModule -->
<g id="node4" class="node">
<title>SharedModule</title>
<polygon fill="#8dd3c7" stroke="#000000" points="5984.4231,-122 5981.4231,-126 5960.4231,-126 5957.4231,-122 5885.5769,-122 5885.5769,-86 5984.4231,-86 5984.4231,-122"/>
<text text-anchor="middle" x="5935" y="-99.8" font-family="Times,serif" font-size="14.00" fill="#000000">SharedModule</text>
</g>
<!-- SharedModule&#45;&gt;AboutModule -->
<g id="edge3" class="edge">
<title>SharedModule&#45;&gt;AboutModule</title>
<path fill="none" stroke="#000000" d="M5966.5157,-122.0109C5966.5157,-122.0109 5966.5157,-151.855 5966.5157,-151.855"/>
<polygon fill="#000000" stroke="#000000" points="5963.0158,-151.8549 5966.5157,-161.855 5970.0158,-151.855 5963.0158,-151.8549"/>
</g>
<!-- AppModule -->
<g id="node13" class="node">
<title>AppModule</title>
<polygon fill="#8dd3c7" stroke="#000000" points="1010.6571,-263 1007.6571,-267 986.6571,-267 983.6571,-263 927.3429,-263 927.3429,-227 1010.6571,-227 1010.6571,-263"/>
<text text-anchor="middle" x="969" y="-240.8" font-family="Times,serif" font-size="14.00" fill="#000000">AppModule</text>
</g>
<!-- SharedModule&#45;&gt;AppModule -->
<g id="edge15" class="edge">
<title>SharedModule&#45;&gt;AppModule</title>
<path fill="none" stroke="#000000" d="M5885.5418,-98C5877.9702,-98 5872.6157,-98 5872.6157,-98 5872.6157,-98 5872.6157,-259 5872.6157,-259 5872.6157,-259 1021.0215,-259 1021.0215,-259"/>
<polygon fill="#000000" stroke="#000000" points="1021.0215,-255.5001 1011.0215,-259 1021.0214,-262.5001 1021.0215,-255.5001"/>
</g>
<!-- FileManagerModule -->
<g id="node16" class="node">
<title>FileManagerModule</title>
<polygon fill="#8dd3c7" stroke="#000000" points="291.5772,-198 288.5772,-202 267.5772,-202 264.5772,-198 160.4228,-198 160.4228,-162 291.5772,-162 291.5772,-198"/>
<text text-anchor="middle" x="226" y="-175.8" font-family="Times,serif" font-size="14.00" fill="#000000">FileManagerModule</text>
</g>
<!-- SharedModule&#45;&gt;FileManagerModule -->
<g id="edge29" class="edge">
<title>SharedModule&#45;&gt;FileManagerModule</title>
<path fill="none" stroke="#000000" d="M5903.4843,-122.1944C5903.4843,-130.2782 5903.4843,-138 5903.4843,-138 5903.4843,-138 274.5437,-138 274.5437,-138 274.5437,-138 274.5437,-151.9445 274.5437,-151.9445"/>
<polygon fill="#000000" stroke="#000000" points="271.0438,-151.9444 274.5437,-161.9445 278.0438,-151.9445 271.0438,-151.9444"/>
</g>
<!-- WorkspaceDetailModule -->
<g id="node17" class="node">
<title>WorkspaceDetailModule</title>
<polygon fill="#8dd3c7" stroke="#000000" points="466.2212,-198 463.2212,-202 442.2212,-202 439.2212,-198 309.7788,-198 309.7788,-162 466.2212,-162 466.2212,-198"/>
<text text-anchor="middle" x="388" y="-175.8" font-family="Times,serif" font-size="14.00" fill="#000000">WorkspaceDetailModule</text>
</g>
<!-- SharedModule&#45;&gt;WorkspaceDetailModule -->
<g id="edge42" class="edge">
<title>SharedModule&#45;&gt;WorkspaceDetailModule</title>
<path fill="none" stroke="#000000" d="M5919.2422,-122.1804C5919.2422,-135.0382 5919.2422,-150 5919.2422,-150 5919.2422,-150 444.7537,-150 444.7537,-150 444.7537,-150 444.7537,-151.8568 444.7537,-151.8568"/>
<polygon fill="#000000" stroke="#000000" points="441.2538,-151.8568 444.7537,-161.8568 448.2538,-151.8568 441.2538,-151.8568"/>
</g>
<!-- WorkspaceManagerModule -->
<g id="node18" class="node">
<title>WorkspaceManagerModule</title>
<polygon fill="#8dd3c7" stroke="#000000" points="656.2626,-198 653.2626,-202 632.2626,-202 629.2626,-198 483.7374,-198 483.7374,-162 656.2626,-162 656.2626,-198"/>
<text text-anchor="middle" x="570" y="-175.8" font-family="Times,serif" font-size="14.00" fill="#000000">WorkspaceManagerModule</text>
</g>
<!-- SharedModule&#45;&gt;WorkspaceManagerModule -->
<g id="edge49" class="edge">
<title>SharedModule&#45;&gt;WorkspaceManagerModule</title>
<path fill="none" stroke="#000000" d="M5918.5963,-85.9445C5918.5963,-74.561 5918.5963,-62 5918.5963,-62 5918.5963,-62 508.4777,-62 508.4777,-62 508.4777,-62 508.4777,-151.8211 508.4777,-151.8211"/>
<polygon fill="#000000" stroke="#000000" points="504.9778,-151.8211 508.4777,-161.8211 511.9778,-151.8211 504.9778,-151.8211"/>
</g>
<!-- SettingsModule -->
<g id="node31" class="node">
<title>SettingsModule</title>
<polygon fill="#8dd3c7" stroke="#000000" points="6449.1639,-198 6446.1639,-202 6425.1639,-202 6422.1639,-198 6344.8361,-198 6344.8361,-162 6449.1639,-162 6449.1639,-198"/>
<text text-anchor="middle" x="6397" y="-175.8" font-family="Times,serif" font-size="14.00" fill="#000000">SettingsModule</text>
</g>
<!-- SharedModule&#45;&gt;SettingsModule -->
<g id="edge33" class="edge">
<title>SharedModule&#45;&gt;SettingsModule</title>
<path fill="none" stroke="#000000" d="M5984.6033,-104C5989.7763,-104 5993.1894,-104 5993.1894,-104 5993.1894,-104 5993.1894,-171 5993.1894,-171 5993.1894,-171 6334.6228,-171 6334.6228,-171"/>
<polygon fill="#000000" stroke="#000000" points="6334.6228,-174.5001 6344.6228,-171 6334.6228,-167.5001 6334.6228,-174.5001"/>
</g>
<!-- ByteNamePipe  -->
<g id="node34" class="node">
<title>ByteNamePipe </title>
<polygon fill="#fb8072" stroke="#000000" points="5692.2563,-198 5587.7437,-198 5587.7437,-162 5692.2563,-162 5692.2563,-198"/>
<text text-anchor="middle" x="5640" y="-175.8" font-family="Times,serif" font-size="14.00" fill="#000000">ByteNamePipe </text>
</g>
<!-- SharedModule&#45;&gt;ByteNamePipe  -->
<g id="edge36" class="edge">
<title>SharedModule&#45;&gt;ByteNamePipe </title>
<path fill="none" stroke="#000000" stroke-dasharray="5,2" d="M5950.7578,-122.0352C5950.7578,-138.7344 5950.7578,-161 5950.7578,-161 5950.7578,-161 5686.9294,-161 5686.9294,-161 5686.9294,-161 5686.9294,-161.0816 5686.9294,-161.0816"/>
<polygon fill="#000000" stroke="#000000" points="5683.4307,-151.8159 5686.9294,-161.8164 5690.4307,-151.8169 5683.4307,-151.8159"/>
</g>
<!-- RtlSupportDirective  -->
<g id="node35" class="node">
<title>RtlSupportDirective </title>
<polygon fill="#fb8072" stroke="#000000" points="5569.5344,-198 5436.4656,-198 5436.4656,-162 5569.5344,-162 5569.5344,-198"/>
<text text-anchor="middle" x="5503" y="-175.8" font-family="Times,serif" font-size="14.00" fill="#000000">RtlSupportDirective </text>
</g>
<!-- SharedModule&#45;&gt;RtlSupportDirective  -->
<g id="edge37" class="edge">
<title>SharedModule&#45;&gt;RtlSupportDirective </title>
<path fill="none" stroke="#000000" stroke-dasharray="5,2" d="M5935,-122.0091C5935,-138.0494 5935,-159 5935,-159 5935,-159 5541.8509,-159 5541.8509,-159 5541.8509,-159 5541.8509,-159.292 5541.8509,-159.292"/>
<polygon fill="#000000" stroke="#000000" points="5538.3512,-151.9198 5541.8509,-161.92 5545.3512,-151.9201 5538.3512,-151.9198"/>
</g>
<!-- AppComponent -->
<g id="node5" class="node">
<title>AppComponent</title>
<polygon fill="#ffffb3" stroke="#000000" points="2171.9399,-198 2066.0601,-198 2066.0601,-162 2171.9399,-162 2171.9399,-198"/>
<text text-anchor="middle" x="2119" y="-175.8" font-family="Times,serif" font-size="14.00" fill="#000000">AppComponent</text>
</g>
<!-- AppComponent&#45;&gt;AppModule -->
<g id="edge4" class="edge">
<title>AppComponent&#45;&gt;AppModule</title>
<path fill="none" stroke="#000000" d="M2119,-198.2921C2119,-220.2057 2119,-254 2119,-254 2119,-254 1020.9501,-254 1020.9501,-254"/>
<polygon fill="#000000" stroke="#000000" points="1020.9501,-250.5001 1010.9501,-254 1020.9501,-257.5001 1020.9501,-250.5001"/>
</g>
<!-- LoginComponent -->
<g id="node6" class="node">
<title>LoginComponent</title>
<polygon fill="#ffffb3" stroke="#000000" points="2048.2758,-198 1933.7242,-198 1933.7242,-162 2048.2758,-162 2048.2758,-198"/>
<text text-anchor="middle" x="1991" y="-175.8" font-family="Times,serif" font-size="14.00" fill="#000000">LoginComponent</text>
</g>
<!-- LoginComponent&#45;&gt;AppModule -->
<g id="edge5" class="edge">
<title>LoginComponent&#45;&gt;AppModule</title>
<path fill="none" stroke="#000000" d="M1991,-198.0267C1991,-218.7672 1991,-250 1991,-250 1991,-250 1020.9689,-250 1020.9689,-250"/>
<polygon fill="#000000" stroke="#000000" points="1020.969,-246.5001 1010.9689,-250 1020.9689,-253.5001 1020.969,-246.5001"/>
</g>
<!-- PasswordChangeComponent -->
<g id="node7" class="node">
<title>PasswordChangeComponent</title>
<polygon fill="#ffffb3" stroke="#000000" points="1915.752,-198 1738.248,-198 1738.248,-162 1915.752,-162 1915.752,-198"/>
<text text-anchor="middle" x="1827" y="-175.8" font-family="Times,serif" font-size="14.00" fill="#000000">PasswordChangeComponent</text>
</g>
<!-- PasswordChangeComponent&#45;&gt;AppModule -->
<g id="edge6" class="edge">
<title>PasswordChangeComponent&#45;&gt;AppModule</title>
<path fill="none" stroke="#000000" d="M1827,-198.1061C1827,-217.3391 1827,-245 1827,-245 1827,-245 1020.6731,-245 1020.6731,-245"/>
<polygon fill="#000000" stroke="#000000" points="1020.6731,-241.5001 1010.6731,-245 1020.673,-248.5001 1020.6731,-241.5001"/>
</g>
<!-- RegisterComponent -->
<g id="node8" class="node">
<title>RegisterComponent</title>
<polygon fill="#ffffb3" stroke="#000000" points="1719.9846,-198 1592.0154,-198 1592.0154,-162 1719.9846,-162 1719.9846,-198"/>
<text text-anchor="middle" x="1656" y="-175.8" font-family="Times,serif" font-size="14.00" fill="#000000">RegisterComponent</text>
</g>
<!-- RegisterComponent&#45;&gt;AppModule -->
<g id="edge7" class="edge">
<title>RegisterComponent&#45;&gt;AppModule</title>
<path fill="none" stroke="#000000" d="M1656,-198.302C1656,-216.2699 1656,-241 1656,-241 1656,-241 1020.6839,-241 1020.6839,-241"/>
<polygon fill="#000000" stroke="#000000" points="1020.684,-237.5001 1010.6839,-241 1020.6839,-244.5001 1020.684,-237.5001"/>
</g>
<!-- RequestPasswordResetComponent -->
<g id="node9" class="node">
<title>RequestPasswordResetComponent</title>
<polygon fill="#ffffb3" stroke="#000000" points="1573.6881,-198 1362.3119,-198 1362.3119,-162 1573.6881,-162 1573.6881,-198"/>
<text text-anchor="middle" x="1468" y="-175.8" font-family="Times,serif" font-size="14.00" fill="#000000">RequestPasswordResetComponent</text>
</g>
<!-- RequestPasswordResetComponent&#45;&gt;AppModule -->
<g id="edge8" class="edge">
<title>RequestPasswordResetComponent&#45;&gt;AppModule</title>
<path fill="none" stroke="#000000" d="M1468,-198.027C1468,-214.3976 1468,-236 1468,-236 1468,-236 1020.6862,-236 1020.6862,-236"/>
<polygon fill="#000000" stroke="#000000" points="1020.6862,-232.5001 1010.6862,-236 1020.6861,-239.5001 1020.6862,-232.5001"/>
</g>
<!-- ResponsePasswordResetComponent -->
<g id="node10" class="node">
<title>ResponsePasswordResetComponent</title>
<polygon fill="#ffffb3" stroke="#000000" points="1344.7422,-198 1125.2578,-198 1125.2578,-162 1344.7422,-162 1344.7422,-198"/>
<text text-anchor="middle" x="1235" y="-175.8" font-family="Times,serif" font-size="14.00" fill="#000000">ResponsePasswordResetComponent</text>
</g>
<!-- ResponsePasswordResetComponent&#45;&gt;AppModule -->
<g id="edge9" class="edge">
<title>ResponsePasswordResetComponent&#45;&gt;AppModule</title>
<path fill="none" stroke="#000000" d="M1235,-198.1871C1235,-213.1824 1235,-232 1235,-232 1235,-232 1020.8551,-232 1020.8551,-232"/>
<polygon fill="#000000" stroke="#000000" points="1020.8552,-228.5001 1010.8551,-232 1020.8551,-235.5001 1020.8552,-228.5001"/>
</g>
<!-- TutorialComponent -->
<g id="node11" class="node">
<title>TutorialComponent</title>
<polygon fill="#ffffb3" stroke="#000000" points="1107.4327,-198 980.5673,-198 980.5673,-162 1107.4327,-162 1107.4327,-198"/>
<text text-anchor="middle" x="1044" y="-175.8" font-family="Times,serif" font-size="14.00" fill="#000000">TutorialComponent</text>
</g>
<!-- TutorialComponent&#45;&gt;AppModule -->
<g id="edge10" class="edge">
<title>TutorialComponent&#45;&gt;AppModule</title>
<path fill="none" stroke="#000000" d="M995.8061,-198.1061C995.8061,-198.1061 995.8061,-216.991 995.8061,-216.991"/>
<polygon fill="#000000" stroke="#000000" points="992.3062,-216.9909 995.8061,-226.991 999.3062,-216.991 992.3062,-216.9909"/>
</g>
<!-- WorkareaComponent -->
<g id="node12" class="node">
<title>WorkareaComponent</title>
<polygon fill="#ffffb3" stroke="#000000" points="963.0129,-198 826.9871,-198 826.9871,-162 963.0129,-162 963.0129,-198"/>
<text text-anchor="middle" x="895" y="-175.8" font-family="Times,serif" font-size="14.00" fill="#000000">WorkareaComponent</text>
</g>
<!-- WorkareaComponent&#45;&gt;AppModule -->
<g id="edge11" class="edge">
<title>WorkareaComponent&#45;&gt;AppModule</title>
<path fill="none" stroke="#000000" d="M945.2139,-198.1061C945.2139,-198.1061 945.2139,-216.991 945.2139,-216.991"/>
<polygon fill="#000000" stroke="#000000" points="941.714,-216.9909 945.2139,-226.991 948.714,-216.991 941.714,-216.9909"/>
</g>
<!-- AppComponent  -->
<g id="node19" class="node">
<title>AppComponent </title>
<polygon fill="#80b1d3" stroke="#000000" points="1023.439,-328 914.561,-328 914.561,-292 1023.439,-292 1023.439,-328"/>
<text text-anchor="middle" x="969" y="-305.8" font-family="Times,serif" font-size="14.00" fill="#000000">AppComponent </text>
</g>
<!-- AppModule&#45;&gt;AppComponent  -->
<g id="edge18" class="edge">
<title>AppModule&#45;&gt;AppComponent </title>
<path fill="none" stroke="#000000" stroke-dasharray="1,5" d="M969,-263.1061C969,-263.1061 969,-281.991 969,-281.991"/>
<polygon fill="#000000" stroke="#000000" points="965.5001,-281.9909 969,-291.991 972.5001,-281.991 965.5001,-281.9909"/>
</g>
<!-- AppRoutingModule -->
<g id="node14" class="node">
<title>AppRoutingModule</title>
<polygon fill="#8dd3c7" stroke="#000000" points="803.2744,-198 800.2744,-202 779.2744,-202 776.2744,-198 674.7256,-198 674.7256,-162 803.2744,-162 803.2744,-198"/>
<text text-anchor="middle" x="739" y="-175.8" font-family="Times,serif" font-size="14.00" fill="#000000">AppRoutingModule</text>
</g>
<!-- AppRoutingModule&#45;&gt;AppModule -->
<g id="edge12" class="edge">
<title>AppRoutingModule&#45;&gt;AppModule</title>
<path fill="none" stroke="#000000" d="M739,-198.2396C739,-213.5706 739,-233 739,-233 739,-233 917.0819,-233 917.0819,-233"/>
<polygon fill="#000000" stroke="#000000" points="917.0819,-236.5001 927.0819,-233 917.0819,-229.5001 917.0819,-236.5001"/>
</g>
<!-- CoreModule -->
<g id="node15" class="node">
<title>CoreModule</title>
<polygon fill="#8dd3c7" stroke="#000000" points="142.2619,-198 139.2619,-202 118.2619,-202 115.2619,-198 55.7381,-198 55.7381,-162 142.2619,-162 142.2619,-198"/>
<text text-anchor="middle" x="99" y="-175.8" font-family="Times,serif" font-size="14.00" fill="#000000">CoreModule</text>
</g>
<!-- CoreModule&#45;&gt;AppModule -->
<g id="edge13" class="edge">
<title>CoreModule&#45;&gt;AppModule</title>
<path fill="none" stroke="#000000" d="M99,-198.0908C99,-221.1328 99,-258 99,-258 99,-258 917.3312,-258 917.3312,-258"/>
<polygon fill="#000000" stroke="#000000" points="917.3312,-261.5001 927.3312,-258 917.3312,-254.5001 917.3312,-261.5001"/>
</g>
<!-- FileManagerModule&#45;&gt;AppModule -->
<g id="edge14" class="edge">
<title>FileManagerModule&#45;&gt;AppModule</title>
<path fill="none" stroke="#000000" d="M226,-198.2228C226,-218.3652 226,-248 226,-248 226,-248 917.193,-248 917.193,-248"/>
<polygon fill="#000000" stroke="#000000" points="917.193,-251.5001 927.193,-248 917.193,-244.5001 917.193,-251.5001"/>
</g>
<!-- FileListComponent  -->
<g id="node29" class="node">
<title>FileListComponent </title>
<polygon fill="#fb8072" stroke="#000000" points="2340.3898,-122 2211.6102,-122 2211.6102,-86 2340.3898,-86 2340.3898,-122"/>
<text text-anchor="middle" x="2276" y="-99.8" font-family="Times,serif" font-size="14.00" fill="#000000">FileListComponent </text>
</g>
<!-- FileManagerModule&#45;&gt;FileListComponent  -->
<g id="edge30" class="edge">
<title>FileManagerModule&#45;&gt;FileListComponent </title>
<path fill="none" stroke="#000000" stroke-dasharray="5,2" d="M283.0412,-161.7181C283.0412,-146.0522 283.0412,-126 283.0412,-126 283.0412,-126 2276,-126 2276,-126 2276,-126 2276,-125.6168 2276,-125.6168"/>
<polygon fill="#000000" stroke="#000000" points="2279.5003,-132.1678 2276,-122.1679 2272.5003,-132.168 2279.5003,-132.1678"/>
</g>
<!-- WorkspaceDetailModule&#45;&gt;AppModule -->
<g id="edge16" class="edge">
<title>WorkspaceDetailModule&#45;&gt;AppModule</title>
<path fill="none" stroke="#000000" d="M388,-198.2222C388,-216.8285 388,-243 388,-243 388,-243 917.2159,-243 917.2159,-243"/>
<polygon fill="#000000" stroke="#000000" points="917.2159,-246.5001 927.2159,-243 917.2159,-239.5001 917.2159,-246.5001"/>
</g>
<!-- WorkspaceDetailComponent  -->
<g id="node41" class="node">
<title>WorkspaceDetailComponent </title>
<polygon fill="#fb8072" stroke="#000000" points="3791.0036,-122 3608.9964,-122 3608.9964,-86 3791.0036,-86 3791.0036,-122"/>
<text text-anchor="middle" x="3700" y="-99.8" font-family="Times,serif" font-size="14.00" fill="#000000">WorkspaceDetailComponent </text>
</g>
<!-- WorkspaceDetailModule&#45;&gt;WorkspaceDetailComponent  -->
<g id="edge44" class="edge">
<title>WorkspaceDetailModule&#45;&gt;WorkspaceDetailComponent </title>
<path fill="none" stroke="#000000" stroke-dasharray="5,2" d="M455.5571,-161.8726C455.5571,-151.2891 455.5571,-140 455.5571,-140 455.5571,-140 3700,-140 3700,-140 3700,-140 3700,-132.4218 3700,-132.4218"/>
<polygon fill="#000000" stroke="#000000" points="3703.5001,-132.4218 3700,-122.4218 3696.5001,-132.4219 3703.5001,-132.4218"/>
</g>
<!-- WorkspaceManagerModule&#45;&gt;AppModule -->
<g id="edge17" class="edge">
<title>WorkspaceManagerModule&#45;&gt;AppModule</title>
<path fill="none" stroke="#000000" d="M598.7104,-198.0336C598.7104,-215.0597 598.7104,-238 598.7104,-238 598.7104,-238 917.2429,-238 917.2429,-238"/>
<polygon fill="#000000" stroke="#000000" points="917.2429,-241.5001 927.2429,-238 917.2428,-234.5001 917.2429,-241.5001"/>
</g>
<!-- WorkspaceListComponent  -->
<g id="node47" class="node">
<title>WorkspaceListComponent </title>
<polygon fill="#fb8072" stroke="#000000" points="4854.5749,-122 4685.4251,-122 4685.4251,-86 4854.5749,-86 4854.5749,-122"/>
<text text-anchor="middle" x="4770" y="-99.8" font-family="Times,serif" font-size="14.00" fill="#000000">WorkspaceListComponent </text>
</g>
<!-- WorkspaceManagerModule&#45;&gt;WorkspaceListComponent  -->
<g id="edge51" class="edge">
<title>WorkspaceManagerModule&#45;&gt;WorkspaceListComponent </title>
<path fill="none" stroke="#000000" stroke-dasharray="5,2" d="M631.5223,-161.7985C631.5223,-155.972 631.5223,-151 631.5223,-151 631.5223,-151 4770,-151 4770,-151 4770,-151 4770,-132.037 4770,-132.037"/>
<polygon fill="#000000" stroke="#000000" points="4773.5001,-132.037 4770,-122.037 4766.5001,-132.037 4773.5001,-132.037"/>
</g>
<!-- HttpErrorInterceptor -->
<g id="node20" class="node">
<title>HttpErrorInterceptor</title>
<ellipse fill="#fdb462" stroke="#000000" cx="289" cy="-104" rx="90.8665" ry="18"/>
<text text-anchor="middle" x="289" y="-99.8" font-family="Times,serif" font-size="14.00" fill="#000000">HttpErrorInterceptor</text>
</g>
<!-- HttpErrorInterceptor&#45;&gt;AppModule -->
<g id="edge19" class="edge">
<title>HttpErrorInterceptor&#45;&gt;AppModule</title>
<path fill="none" stroke="#000000" d="M380.0528,-104C566.009,-104 972.02,-104 972.02,-104 972.02,-104 972.02,-216.8554 972.02,-216.8554"/>
<polygon fill="#000000" stroke="#000000" points="968.5201,-216.8553 972.02,-226.8554 975.5201,-216.8554 968.5201,-216.8553"/>
</g>
<!-- HttpErrorInterceptor&#45;&gt;CoreModule -->
<g id="edge21" class="edge">
<title>HttpErrorInterceptor&#45;&gt;CoreModule</title>
<path fill="none" stroke="#000000" d="M206.5642,-111.6753C206.5642,-117.3154 206.5642,-124 206.5642,-124 206.5642,-124 99,-124 99,-124 99,-124 99,-151.973 99,-151.973"/>
<polygon fill="#000000" stroke="#000000" points="95.5001,-151.973 99,-161.973 102.5001,-151.973 95.5001,-151.973"/>
</g>
<!-- TokenInterceptor -->
<g id="node21" class="node">
<title>TokenInterceptor</title>
<ellipse fill="#fdb462" stroke="#000000" cx="102" cy="-104" rx="78.1308" ry="18"/>
<text text-anchor="middle" x="102" y="-99.8" font-family="Times,serif" font-size="14.00" fill="#000000">TokenInterceptor</text>
</g>
<!-- TokenInterceptor&#45;&gt;AppModule -->
<g id="edge20" class="edge">
<title>TokenInterceptor&#45;&gt;AppModule</title>
<path fill="none" stroke="#000000" d="M151.4211,-118.0176C151.4211,-155.1091 151.4211,-253 151.4211,-253 151.4211,-253 917.3321,-253 917.3321,-253"/>
<polygon fill="#000000" stroke="#000000" points="917.3322,-256.5001 927.3321,-253 917.3321,-249.5001 917.3322,-256.5001"/>
</g>
<!-- AddFileDialogComponent -->
<g id="node22" class="node">
<title>AddFileDialogComponent</title>
<polygon fill="#ffffb3" stroke="#000000" points="3568.8201,-122 3403.1799,-122 3403.1799,-86 3568.8201,-86 3568.8201,-122"/>
<text text-anchor="middle" x="3486" y="-99.8" font-family="Times,serif" font-size="14.00" fill="#000000">AddFileDialogComponent</text>
</g>
<!-- AddFileDialogComponent&#45;&gt;FileManagerModule -->
<g id="edge22" class="edge">
<title>AddFileDialogComponent&#45;&gt;FileManagerModule</title>
<path fill="none" stroke="#000000" d="M3486,-122.0449C3486,-129.749 3486,-137 3486,-137 3486,-137 266.0463,-137 266.0463,-137 266.0463,-137 266.0463,-151.5146 266.0463,-151.5146"/>
<polygon fill="#000000" stroke="#000000" points="262.5464,-151.5145 266.0463,-161.5146 269.5464,-151.5146 262.5464,-151.5145"/>
</g>
<!-- ByteNamePipe -->
<g id="node23" class="node">
<title>ByteNamePipe</title>
<polygon fill="#ffffb3" stroke="#000000" points="3385.2563,-122 3284.7437,-122 3284.7437,-86 3385.2563,-86 3385.2563,-122"/>
<text text-anchor="middle" x="3335" y="-99.8" font-family="Times,serif" font-size="14.00" fill="#000000">ByteNamePipe</text>
</g>
<!-- ByteNamePipe&#45;&gt;SharedModule -->
<g id="edge34" class="edge">
<title>ByteNamePipe&#45;&gt;SharedModule</title>
<path fill="none" stroke="#000000" d="M3335,-85.8568C3335,-79.5389 3335,-74 3335,-74 3335,-74 5951.4037,-74 5951.4037,-74 5951.4037,-74 5951.4037,-75.8568 5951.4037,-75.8568"/>
<polygon fill="#000000" stroke="#000000" points="5947.9038,-75.8568 5951.4037,-85.8568 5954.9038,-75.8568 5947.9038,-75.8568"/>
</g>
<!-- ByteNamePipe&#45;&gt;FileManagerModule -->
<g id="edge23" class="edge">
<title>ByteNamePipe&#45;&gt;FileManagerModule</title>
<path fill="none" stroke="#000000" d="M3335,-122.0328C3335,-128.8526 3335,-135 3335,-135 3335,-135 257.5488,-135 257.5488,-135 257.5488,-135 257.5488,-151.9561 257.5488,-151.9561"/>
<polygon fill="#000000" stroke="#000000" points="254.0489,-151.956 257.5488,-161.9561 261.0489,-151.9561 254.0489,-151.956"/>
</g>
<!-- DeleteFileDialogComponent -->
<g id="node24" class="node">
<title>DeleteFileDialogComponent</title>
<polygon fill="#ffffb3" stroke="#000000" points="3266.745,-122 3089.255,-122 3089.255,-86 3266.745,-86 3266.745,-122"/>
<text text-anchor="middle" x="3178" y="-99.8" font-family="Times,serif" font-size="14.00" fill="#000000">DeleteFileDialogComponent</text>
</g>
<!-- DeleteFileDialogComponent&#45;&gt;FileManagerModule -->
<g id="edge24" class="edge">
<title>DeleteFileDialogComponent&#45;&gt;FileManagerModule</title>
<path fill="none" stroke="#000000" d="M3178,-122.1432C3178,-128.4611 3178,-134 3178,-134 3178,-134 249.0514,-134 249.0514,-134 249.0514,-134 249.0514,-151.8196 249.0514,-151.8196"/>
<polygon fill="#000000" stroke="#000000" points="245.5515,-151.8195 249.0514,-161.8196 252.5515,-151.8196 245.5515,-151.8195"/>
</g>
<!-- EditFileDialogComponent -->
<g id="node25" class="node">
<title>EditFileDialogComponent</title>
<polygon fill="#ffffb3" stroke="#000000" points="3071.0476,-122 2906.9524,-122 2906.9524,-86 3071.0476,-86 3071.0476,-122"/>
<text text-anchor="middle" x="2989" y="-99.8" font-family="Times,serif" font-size="14.00" fill="#000000">EditFileDialogComponent</text>
</g>
<!-- EditFileDialogComponent&#45;&gt;FileManagerModule -->
<g id="edge25" class="edge">
<title>EditFileDialogComponent&#45;&gt;FileManagerModule</title>
<path fill="none" stroke="#000000" d="M2989,-122.207C2989,-127.5549 2989,-132 2989,-132 2989,-132 240.554,-132 240.554,-132 240.554,-132 240.554,-151.8533 240.554,-151.8533"/>
<polygon fill="#000000" stroke="#000000" points="237.0541,-151.8532 240.554,-161.8533 244.0541,-151.8533 237.0541,-151.8532"/>
</g>
<!-- FileListComponent -->
<g id="node26" class="node">
<title>FileListComponent</title>
<polygon fill="#ffffb3" stroke="#000000" points="2888.3892,-122 2763.6108,-122 2763.6108,-86 2888.3892,-86 2888.3892,-122"/>
<text text-anchor="middle" x="2826" y="-99.8" font-family="Times,serif" font-size="14.00" fill="#000000">FileListComponent</text>
</g>
<!-- FileListComponent&#45;&gt;FileManagerModule -->
<g id="edge26" class="edge">
<title>FileListComponent&#45;&gt;FileManagerModule</title>
<path fill="none" stroke="#000000" d="M2826,-122.0579C2826,-126.4945 2826,-130 2826,-130 2826,-130 232.0565,-130 232.0565,-130 232.0565,-130 232.0565,-151.9489 232.0565,-151.9489"/>
<polygon fill="#000000" stroke="#000000" points="228.5566,-151.9488 232.0565,-161.9489 235.5566,-151.9489 228.5566,-151.9488"/>
</g>
<!-- ProgressSnackbarComponent -->
<g id="node27" class="node">
<title>ProgressSnackbarComponent</title>
<polygon fill="#ffffb3" stroke="#000000" points="2745.6274,-122 2564.3726,-122 2564.3726,-86 2745.6274,-86 2745.6274,-122"/>
<text text-anchor="middle" x="2655" y="-99.8" font-family="Times,serif" font-size="14.00" fill="#000000">ProgressSnackbarComponent</text>
</g>
<!-- ProgressSnackbarComponent&#45;&gt;FileManagerModule -->
<g id="edge27" class="edge">
<title>ProgressSnackbarComponent&#45;&gt;FileManagerModule</title>
<path fill="none" stroke="#000000" d="M2655,-122.1686C2655,-126.0459 2655,-129 2655,-129 2655,-129 223.5591,-129 223.5591,-129 223.5591,-129 223.5591,-151.8757 223.5591,-151.8757"/>
<polygon fill="#000000" stroke="#000000" points="220.0592,-151.8757 223.5591,-161.8757 227.0592,-151.8757 220.0592,-151.8757"/>
</g>
<!-- FileManagerRoutingModule -->
<g id="node28" class="node">
<title>FileManagerRoutingModule</title>
<polygon fill="#8dd3c7" stroke="#000000" points="2540.1951,-122 2537.1951,-126 2516.1951,-126 2513.1951,-122 2363.8049,-122 2363.8049,-86 2540.1951,-86 2540.1951,-122"/>
<text text-anchor="middle" x="2452" y="-99.8" font-family="Times,serif" font-size="14.00" fill="#000000">FileManagerRoutingModule</text>
</g>
<!-- FileManagerRoutingModule&#45;&gt;FileManagerModule -->
<g id="edge28" class="edge">
<title>FileManagerRoutingModule&#45;&gt;FileManagerModule</title>
<path fill="none" stroke="#000000" d="M2452,-122.1223C2452,-124.9729 2452,-127 2452,-127 2452,-127 215.0616,-127 215.0616,-127 215.0616,-127 215.0616,-151.7604 215.0616,-151.7604"/>
<polygon fill="#000000" stroke="#000000" points="211.5617,-151.7604 215.0616,-161.7604 218.5617,-151.7604 211.5617,-151.7604"/>
</g>
<!-- SettingsContainerComponent -->
<g id="node30" class="node">
<title>SettingsContainerComponent</title>
<polygon fill="#ffffb3" stroke="#000000" points="6677.6539,-122 6496.3461,-122 6496.3461,-86 6677.6539,-86 6677.6539,-122"/>
<text text-anchor="middle" x="6587" y="-99.8" font-family="Times,serif" font-size="14.00" fill="#000000">SettingsContainerComponent</text>
</g>
<!-- SettingsContainerComponent&#45;&gt;SettingsModule -->
<g id="edge31" class="edge">
<title>SettingsContainerComponent&#45;&gt;SettingsModule</title>
<path fill="none" stroke="#000000" d="M6587,-122.0109C6587,-144.4852 6587,-180 6587,-180 6587,-180 6459.1696,-180 6459.1696,-180"/>
<polygon fill="#000000" stroke="#000000" points="6459.1697,-176.5001 6449.1696,-180 6459.1696,-183.5001 6459.1697,-176.5001"/>
</g>
<!-- SettingsRoutingModule -->
<g id="node32" class="node">
<title>SettingsRoutingModule</title>
<polygon fill="#8dd3c7" stroke="#000000" points="6471.7814,-122 6468.7814,-126 6447.7814,-126 6444.7814,-122 6322.2186,-122 6322.2186,-86 6471.7814,-86 6471.7814,-122"/>
<text text-anchor="middle" x="6397" y="-99.8" font-family="Times,serif" font-size="14.00" fill="#000000">SettingsRoutingModule</text>
</g>
<!-- SettingsRoutingModule&#45;&gt;SettingsModule -->
<g id="edge32" class="edge">
<title>SettingsRoutingModule&#45;&gt;SettingsModule</title>
<path fill="none" stroke="#000000" d="M6397,-122.0109C6397,-122.0109 6397,-151.855 6397,-151.855"/>
<polygon fill="#000000" stroke="#000000" points="6393.5001,-151.8549 6397,-161.855 6400.5001,-151.855 6393.5001,-151.8549"/>
</g>
<!-- RtlSupportDirective -->
<g id="node33" class="node">
<title>RtlSupportDirective</title>
<polygon fill="#ffffb3" stroke="#000000" points="5845.5352,-198 5716.4648,-198 5716.4648,-162 5845.5352,-162 5845.5352,-198"/>
<text text-anchor="middle" x="5781" y="-175.8" font-family="Times,serif" font-size="14.00" fill="#000000">RtlSupportDirective</text>
</g>
<!-- RtlSupportDirective&#45;&gt;SharedModule -->
<g id="edge35" class="edge">
<title>RtlSupportDirective&#45;&gt;SharedModule</title>
<path fill="none" stroke="#000000" d="M5845.7789,-180C5853.9079,-180 5859.4425,-180 5859.4425,-180 5859.4425,-180 5859.4425,-110 5859.4425,-110 5859.4425,-110 5875.4451,-110 5875.4451,-110"/>
<polygon fill="#000000" stroke="#000000" points="5875.4451,-113.5001 5885.4451,-110 5875.4451,-106.5001 5875.4451,-113.5001"/>
</g>
<!-- AddDialogComponent -->
<g id="node36" class="node">
<title>AddDialogComponent</title>
<polygon fill="#ffffb3" stroke="#000000" points="4644.5421,-122 4501.4579,-122 4501.4579,-86 4644.5421,-86 4644.5421,-122"/>
<text text-anchor="middle" x="4573" y="-99.8" font-family="Times,serif" font-size="14.00" fill="#000000">AddDialogComponent</text>
</g>
<!-- AddDialogComponent&#45;&gt;WorkspaceDetailModule -->
<g id="edge38" class="edge">
<title>AddDialogComponent&#45;&gt;WorkspaceDetailModule</title>
<path fill="none" stroke="#000000" d="M4573,-122.1505C4573,-134.2708 4573,-148 4573,-148 4573,-148 433.9503,-148 433.9503,-148 433.9503,-148 433.9503,-151.7566 433.9503,-151.7566"/>
<polygon fill="#000000" stroke="#000000" points="430.4504,-151.7566 433.9503,-161.7566 437.4504,-151.7566 430.4504,-151.7566"/>
</g>
<!-- DeleteDialogComponent -->
<g id="node37" class="node">
<title>DeleteDialogComponent</title>
<polygon fill="#ffffb3" stroke="#000000" points="4482.9664,-122 4327.0336,-122 4327.0336,-86 4482.9664,-86 4482.9664,-122"/>
<text text-anchor="middle" x="4405" y="-99.8" font-family="Times,serif" font-size="14.00" fill="#000000">DeleteDialogComponent</text>
</g>
<!-- DeleteDialogComponent&#45;&gt;WorkspaceDetailModule -->
<g id="edge39" class="edge">
<title>DeleteDialogComponent&#45;&gt;WorkspaceDetailModule</title>
<path fill="none" stroke="#000000" d="M4405,-122.0555C4405,-133.439 4405,-146 4405,-146 4405,-146 423.1469,-146 423.1469,-146 423.1469,-146 423.1469,-151.8056 423.1469,-151.8056"/>
<polygon fill="#000000" stroke="#000000" points="419.647,-151.8055 423.1469,-161.8056 426.647,-151.8056 419.647,-151.8055"/>
</g>
<!-- FilterPipe -->
<g id="node38" class="node">
<title>FilterPipe</title>
<polygon fill="#ffffb3" stroke="#000000" points="4308.7177,-122 4237.2823,-122 4237.2823,-86 4308.7177,-86 4308.7177,-122"/>
<text text-anchor="middle" x="4273" y="-99.8" font-family="Times,serif" font-size="14.00" fill="#000000">FilterPipe</text>
</g>
<!-- FilterPipe&#45;&gt;WorkspaceDetailModule -->
<g id="edge40" class="edge">
<title>FilterPipe&#45;&gt;WorkspaceDetailModule</title>
<path fill="none" stroke="#000000" d="M4273,-122.1025C4273,-133.0859 4273,-145 4273,-145 4273,-145 412.3435,-145 412.3435,-145 412.3435,-145 412.3435,-151.68 412.3435,-151.68"/>
<polygon fill="#000000" stroke="#000000" points="408.8436,-151.6799 412.3435,-161.68 415.8436,-151.68 408.8436,-151.6799"/>
</g>
<!-- WorkspaceDetailComponent -->
<g id="node39" class="node">
<title>WorkspaceDetailComponent</title>
<polygon fill="#ffffb3" stroke="#000000" points="4219.0043,-122 4040.9957,-122 4040.9957,-86 4219.0043,-86 4219.0043,-122"/>
<text text-anchor="middle" x="4130" y="-99.8" font-family="Times,serif" font-size="14.00" fill="#000000">WorkspaceDetailComponent</text>
</g>
<!-- WorkspaceDetailComponent&#45;&gt;WorkspaceDetailModule -->
<g id="edge41" class="edge">
<title>WorkspaceDetailComponent&#45;&gt;WorkspaceDetailModule</title>
<path fill="none" stroke="#000000" d="M4130,-122.1299C4130,-132.3145 4130,-143 4130,-143 4130,-143 401.5401,-143 401.5401,-143 401.5401,-143 401.5401,-151.9336 401.5401,-151.9336"/>
<polygon fill="#000000" stroke="#000000" points="398.0402,-151.9335 401.5401,-161.9336 405.0402,-151.9336 398.0402,-151.9335"/>
</g>
<!-- WorkspaceDetailRoutingModule -->
<g id="node40" class="node">
<title>WorkspaceDetailRoutingModule</title>
<polygon fill="#8dd3c7" stroke="#000000" points="4016.8389,-122 4013.8389,-126 3992.8389,-126 3989.8389,-122 3815.1611,-122 3815.1611,-86 4016.8389,-86 4016.8389,-122"/>
<text text-anchor="middle" x="3916" y="-99.8" font-family="Times,serif" font-size="14.00" fill="#000000">WorkspaceDetailRoutingModule</text>
</g>
<!-- WorkspaceDetailRoutingModule&#45;&gt;WorkspaceDetailModule -->
<g id="edge43" class="edge">
<title>WorkspaceDetailRoutingModule&#45;&gt;WorkspaceDetailModule</title>
<path fill="none" stroke="#000000" d="M3916,-122.1097C3916,-131.897 3916,-142 3916,-142 3916,-142 390.7366,-142 390.7366,-142 390.7366,-142 390.7366,-151.8903 390.7366,-151.8903"/>
<polygon fill="#000000" stroke="#000000" points="387.2367,-151.8903 390.7366,-161.8903 394.2367,-151.8904 387.2367,-151.8903"/>
</g>
<!-- AddWSDialogComponent -->
<g id="node42" class="node">
<title>AddWSDialogComponent</title>
<polygon fill="#ffffb3" stroke="#000000" points="5846.0392,-122 5681.9608,-122 5681.9608,-86 5846.0392,-86 5846.0392,-122"/>
<text text-anchor="middle" x="5764" y="-99.8" font-family="Times,serif" font-size="14.00" fill="#000000">AddWSDialogComponent</text>
</g>
<!-- AddWSDialogComponent&#45;&gt;WorkspaceManagerModule -->
<g id="edge45" class="edge">
<title>AddWSDialogComponent&#45;&gt;WorkspaceManagerModule</title>
<path fill="none" stroke="#000000" d="M5704.1804,-122.4904C5704.1804,-153.5885 5704.1804,-213 5704.1804,-213 5704.1804,-213 541.2896,-213 541.2896,-213 541.2896,-213 541.2896,-208.0449 541.2896,-208.0449"/>
<polygon fill="#000000" stroke="#000000" points="544.7897,-208.0448 541.2896,-198.0449 537.7897,-208.0449 544.7897,-208.0448"/>
</g>
<!-- DeleteWSDialogComponent -->
<g id="node43" class="node">
<title>DeleteWSDialogComponent</title>
<polygon fill="#ffffb3" stroke="#000000" points="5663.4636,-122 5486.5364,-122 5486.5364,-86 5663.4636,-86 5663.4636,-122"/>
<text text-anchor="middle" x="5575" y="-99.8" font-family="Times,serif" font-size="14.00" fill="#000000">DeleteWSDialogComponent</text>
</g>
<!-- DeleteWSDialogComponent&#45;&gt;WorkspaceManagerModule -->
<g id="edge46" class="edge">
<title>DeleteWSDialogComponent&#45;&gt;WorkspaceManagerModule</title>
<path fill="none" stroke="#000000" d="M5514.1845,-122.2819C5514.1845,-137.9478 5514.1845,-158 5514.1845,-158 5514.1845,-158 606.9134,-158 606.9134,-158 606.9134,-158 606.9134,-158.3832 606.9134,-158.3832"/>
<polygon fill="#000000" stroke="#000000" points="603.4137,-151.832 606.9134,-161.8321 610.4137,-151.8322 603.4137,-151.832"/>
</g>
<!-- EditWSDialogComponent -->
<g id="node44" class="node">
<title>EditWSDialogComponent</title>
<polygon fill="#ffffb3" stroke="#000000" points="5468.766,-122 5305.234,-122 5305.234,-86 5468.766,-86 5468.766,-122"/>
<text text-anchor="middle" x="5387" y="-99.8" font-family="Times,serif" font-size="14.00" fill="#000000">EditWSDialogComponent</text>
</g>
<!-- EditWSDialogComponent&#45;&gt;WorkspaceManagerModule -->
<g id="edge47" class="edge">
<title>EditWSDialogComponent&#45;&gt;WorkspaceManagerModule</title>
<path fill="none" stroke="#000000" d="M5370.8,-122.1871C5370.8,-137.1824 5370.8,-156 5370.8,-156 5370.8,-156 582.3045,-156 582.3045,-156 582.3045,-156 582.3045,-156.581 582.3045,-156.581"/>
<polygon fill="#000000" stroke="#000000" points="578.8046,-151.8097 582.3045,-161.8097 585.8046,-151.8098 578.8046,-151.8097"/>
</g>
<!-- WorkspaceListComponent -->
<g id="node45" class="node">
<title>WorkspaceListComponent</title>
<polygon fill="#ffffb3" stroke="#000000" points="5287.0744,-122 5120.9256,-122 5120.9256,-86 5287.0744,-86 5287.0744,-122"/>
<text text-anchor="middle" x="5204" y="-99.8" font-family="Times,serif" font-size="14.00" fill="#000000">WorkspaceListComponent</text>
</g>
<!-- WorkspaceListComponent&#45;&gt;WorkspaceManagerModule -->
<g id="edge48" class="edge">
<title>WorkspaceListComponent&#45;&gt;WorkspaceManagerModule</title>
<path fill="none" stroke="#000000" d="M5204,-122.0511C5204,-136.373 5204,-154 5204,-154 5204,-154 557.6955,-154 557.6955,-154 557.6955,-154 557.6955,-154.7942 557.6955,-154.7942"/>
<polygon fill="#000000" stroke="#000000" points="554.1957,-151.9421 557.6955,-161.9421 561.1957,-151.9422 554.1957,-151.9421"/>
</g>
<!-- WorkspaceManagerRoutingModule -->
<g id="node46" class="node">
<title>WorkspaceManagerRoutingModule</title>
<polygon fill="#8dd3c7" stroke="#000000" points="5096.8805,-122 5093.8805,-126 5072.8805,-126 5069.8805,-122 4879.1195,-122 4879.1195,-86 5096.8805,-86 5096.8805,-122"/>
<text text-anchor="middle" x="4988" y="-99.8" font-family="Times,serif" font-size="14.00" fill="#000000">WorkspaceManagerRoutingModule</text>
</g>
<!-- WorkspaceManagerRoutingModule&#45;&gt;WorkspaceManagerModule -->
<g id="edge50" class="edge">
<title>WorkspaceManagerRoutingModule&#45;&gt;WorkspaceManagerModule</title>
<path fill="none" stroke="#000000" d="M4988,-122.2458C4988,-136.1772 4988,-153 4988,-153 4988,-153 533.0866,-153 533.0866,-153 533.0866,-153 533.0866,-153.8841 533.0866,-153.8841"/>
<polygon fill="#000000" stroke="#000000" points="529.5868,-151.8408 533.0866,-161.8408 536.5868,-151.8409 529.5868,-151.8408"/>
</g>
</g>
</svg>
