<?xml version="1.0" encoding="UTF-8" standalone="no"?>
<!DOCTYPE svg PUBLIC "-//W3C//DTD SVG 1.1//EN"
 "http://www.w3.org/Graphics/SVG/1.1/DTD/svg11.dtd">
<!-- Generated by graphviz version 2.40.1 (20161225.0304)
 -->
<!-- Title: dependencies Pages: 1 -->
<svg width="5573pt" height="360pt"
 viewBox="0.00 0.00 5573.00 360.00" xmlns="http://www.w3.org/2000/svg" xmlns:xlink="http://www.w3.org/1999/xlink">
<g id="graph0" class="graph" transform="scale(1 1) rotate(0) translate(4 356)">
<title>dependencies</title>
<polygon fill="#ffffff" stroke="transparent" points="-4,4 -4,-356 5569,-356 5569,4 -4,4"/>
<text text-anchor="start" x="2761.5091" y="-42.4" font-family="sans-serif" font-weight="bold" font-size="14.00" fill="#000000">Legend</text>
<polygon fill="#ffffb3" stroke="transparent" points="2548.5,-10 2548.5,-30 2568.5,-30 2568.5,-10 2548.5,-10"/>
<text text-anchor="start" x="2572.129" y="-15.4" font-family="sans-serif" font-size="14.00" fill="#000000"> &#160;Declarations</text>
<polygon fill="#8dd3c7" stroke="transparent" points="2661.5,-10 2661.5,-30 2681.5,-30 2681.5,-10 2661.5,-10"/>
<text text-anchor="start" x="2685.2251" y="-15.4" font-family="sans-serif" font-size="14.00" fill="#000000"> &#160;Module</text>
<polygon fill="#80b1d3" stroke="transparent" points="2747.5,-10 2747.5,-30 2767.5,-30 2767.5,-10 2747.5,-10"/>
<text text-anchor="start" x="2771.2812" y="-15.4" font-family="sans-serif" font-size="14.00" fill="#000000"> &#160;Bootstrap</text>
<polygon fill="#fdb462" stroke="transparent" points="2844.5,-10 2844.5,-30 2864.5,-30 2864.5,-10 2844.5,-10"/>
<text text-anchor="start" x="2868.1732" y="-15.4" font-family="sans-serif" font-size="14.00" fill="#000000"> &#160;Providers</text>
<polygon fill="#fb8072" stroke="transparent" points="2940.5,-10 2940.5,-30 2960.5,-30 2960.5,-10 2940.5,-10"/>
<text text-anchor="start" x="2964.2258" y="-15.4" font-family="sans-serif" font-size="14.00" fill="#000000"> &#160;Exports</text>
<g id="clust1" class="cluster">
<title>cluster_AboutModule</title>
<polygon fill="none" stroke="#000000" stroke-dasharray="1,5" points="4733,-70 4733,-206 5161,-206 5161,-70 4733,-70"/>
</g>
<g id="clust2" class="cluster">
<title>cluster_AboutModule_declarations</title>
<polygon fill="none" stroke="#000000" points="5021,-78 5021,-130 5153,-130 5153,-78 5021,-78"/>
</g>
<g id="clust4" class="cluster">
<title>cluster_AboutModule_imports</title>
<polygon fill="none" stroke="#000000" points="4741,-78 4741,-130 5013,-130 5013,-78 4741,-78"/>
</g>
<g id="clust14" class="cluster">
<title>cluster_AppModule</title>
<polygon fill="none" stroke="#000000" stroke-dasharray="1,5" points="8,-70 8,-344 2012,-344 2012,-70 8,-70"/>
</g>
<g id="clust15" class="cluster">
<title>cluster_AppModule_declarations</title>
<polygon fill="none" stroke="#000000" points="839,-154 839,-206 2004,-206 2004,-154 839,-154"/>
</g>
<g id="clust23" class="cluster">
<title>cluster_AppModule_imports</title>
<polygon fill="none" stroke="#000000" points="68,-154 68,-206 831,-206 831,-154 68,-154"/>
</g>
<g id="clust25" class="cluster">
<title>cluster_AppModule_bootstrap</title>
<polygon fill="none" stroke="#000000" points="775,-284 775,-336 899,-336 899,-284 775,-284"/>
</g>
<g id="clust26" class="cluster">
<title>cluster_AppModule_providers</title>
<polygon fill="none" stroke="#000000" points="16,-78 16,-130 524,-130 524,-78 16,-78"/>
</g>
<g id="clust39" class="cluster">
<title>cluster_FileManagerModule</title>
<polygon fill="none" stroke="#000000" stroke-dasharray="1,5" points="2020,-70 2020,-138 3343,-138 3343,-70 2020,-70"/>
</g>
<g id="clust40" class="cluster">
<title>cluster_FileManagerModule_declarations</title>
<polygon fill="none" stroke="#000000" points="2380,-78 2380,-130 3335,-130 3335,-78 2380,-78"/>
</g>
<g id="clust47" class="cluster">
<title>cluster_FileManagerModule_imports</title>
<polygon fill="none" stroke="#000000" points="2180,-78 2180,-130 2372,-130 2372,-78 2180,-78"/>
</g>
<g id="clust48" class="cluster">
<title>cluster_FileManagerModule_exports</title>
<polygon fill="none" stroke="#000000" points="2028,-78 2028,-130 2172,-130 2172,-78 2028,-78"/>
</g>
<g id="clust57" class="cluster">
<title>cluster_SettingsModule</title>
<polygon fill="none" stroke="#000000" stroke-dasharray="1,5" points="5169,-70 5169,-206 5557,-206 5557,-70 5169,-70"/>
</g>
<g id="clust58" class="cluster">
<title>cluster_SettingsModule_declarations</title>
<polygon fill="none" stroke="#000000" points="5351,-78 5351,-130 5549,-130 5549,-78 5351,-78"/>
</g>
<g id="clust60" class="cluster">
<title>cluster_SettingsModule_imports</title>
<polygon fill="none" stroke="#000000" points="5177,-78 5177,-130 5343,-130 5343,-78 5177,-78"/>
</g>
<g id="clust70" class="cluster">
<title>cluster_SharedModule</title>
<polygon fill="none" stroke="#000000" stroke-dasharray="1,5" points="3476,-146 3476,-214 4725,-214 4725,-146 3476,-146"/>
</g>
<g id="clust71" class="cluster">
<title>cluster_SharedModule_declarations</title>
<polygon fill="none" stroke="#000000" points="4107,-154 4107,-206 4717,-206 4717,-154 4107,-154"/>
</g>
<g id="clust78" class="cluster">
<title>cluster_SharedModule_exports</title>
<polygon fill="none" stroke="#000000" points="3484,-154 3484,-206 4099,-206 4099,-154 3484,-154"/>
</g>
<g id="clust81" class="cluster">
<title>cluster_WorkspaceDetailModule</title>
<polygon fill="none" stroke="#000000" stroke-dasharray="1,5" points="3351,-70 3351,-138 4083,-138 4083,-70 3351,-70"/>
</g>
<g id="clust82" class="cluster">
<title>cluster_WorkspaceDetailModule_declarations</title>
<polygon fill="none" stroke="#000000" points="3791,-78 3791,-130 4075,-130 4075,-78 3791,-78"/>
</g>
<g id="clust85" class="cluster">
<title>cluster_WorkspaceDetailModule_imports</title>
<polygon fill="none" stroke="#000000" points="3565,-78 3565,-130 3783,-130 3783,-78 3565,-78"/>
</g>
<g id="clust86" class="cluster">
<title>cluster_WorkspaceDetailModule_exports</title>
<polygon fill="none" stroke="#000000" points="3359,-78 3359,-130 3557,-130 3557,-78 3359,-78"/>
</g>
<g id="clust95" class="cluster">
<title>cluster_WorkspaceManagerModule</title>
<polygon fill="none" stroke="#000000" stroke-dasharray="1,5" points="4091,-70 4091,-138 4725,-138 4725,-70 4091,-70"/>
</g>
<g id="clust96" class="cluster">
<title>cluster_WorkspaceManagerModule_declarations</title>
<polygon fill="none" stroke="#000000" points="4535,-78 4535,-130 4717,-130 4717,-78 4535,-78"/>
</g>
<g id="clust98" class="cluster">
<title>cluster_WorkspaceManagerModule_imports</title>
<polygon fill="none" stroke="#000000" points="4293,-78 4293,-130 4527,-130 4527,-78 4293,-78"/>
</g>
<g id="clust99" class="cluster">
<title>cluster_WorkspaceManagerModule_exports</title>
<polygon fill="none" stroke="#000000" points="4099,-78 4099,-130 4285,-130 4285,-78 4099,-78"/>
</g>
<!-- AboutComponent -->
<g id="node1" class="node">
<title>AboutComponent</title>
<polygon fill="#ffffb3" stroke="#000000" points="5145.3301,-122 5028.6699,-122 5028.6699,-86 5145.3301,-86 5145.3301,-122"/>
<text text-anchor="middle" x="5087" y="-99.8" font-family="Times,serif" font-size="14.00" fill="#000000">AboutComponent</text>
</g>
<!-- AboutModule -->
<g id="node2" class="node">
<title>AboutModule</title>
<polygon fill="#8dd3c7" stroke="#000000" points="4845.0481,-198 4842.0481,-202 4821.0481,-202 4818.0481,-198 4750.9519,-198 4750.9519,-162 4845.0481,-162 4845.0481,-198"/>
<text text-anchor="middle" x="4798" y="-175.8" font-family="Times,serif" font-size="14.00" fill="#000000">AboutModule</text>
</g>
<!-- AboutComponent&#45;&gt;AboutModule -->
<g id="edge1" class="edge">
<title>AboutComponent&#45;&gt;AboutModule</title>
<path fill="none" stroke="#000000" d="M5087,-122.0263C5087,-146.9773 5087,-189 5087,-189 5087,-189 4855.076,-189 4855.076,-189"/>
<polygon fill="#000000" stroke="#000000" points="4855.0761,-185.5001 4845.076,-189 4855.076,-192.5001 4855.0761,-185.5001"/>
</g>
<!-- AboutRoutingModule -->
<g id="node3" class="node">
<title>AboutRoutingModule</title>
<polygon fill="#8dd3c7" stroke="#000000" points="5004.6652,-122 5001.6652,-126 4980.6652,-126 4977.6652,-122 4865.3348,-122 4865.3348,-86 5004.6652,-86 5004.6652,-122"/>
<text text-anchor="middle" x="4935" y="-99.8" font-family="Times,serif" font-size="14.00" fill="#000000">AboutRoutingModule</text>
</g>
<!-- AboutRoutingModule&#45;&gt;AboutModule -->
<g id="edge2" class="edge">
<title>AboutRoutingModule&#45;&gt;AboutModule</title>
<path fill="none" stroke="#000000" d="M4935,-122.0109C4935,-144.4852 4935,-180 4935,-180 4935,-180 4855.1476,-180 4855.1476,-180"/>
<polygon fill="#000000" stroke="#000000" points="4855.1477,-176.5001 4845.1476,-180 4855.1476,-183.5001 4855.1477,-176.5001"/>
</g>
<!-- SharedModule -->
<g id="node4" class="node">
<title>SharedModule</title>
<polygon fill="#8dd3c7" stroke="#000000" points="4847.4231,-122 4844.4231,-126 4823.4231,-126 4820.4231,-122 4748.5769,-122 4748.5769,-86 4847.4231,-86 4847.4231,-122"/>
<text text-anchor="middle" x="4798" y="-99.8" font-family="Times,serif" font-size="14.00" fill="#000000">SharedModule</text>
</g>
<!-- SharedModule&#45;&gt;AboutModule -->
<g id="edge3" class="edge">
<title>SharedModule&#45;&gt;AboutModule</title>
<path fill="none" stroke="#000000" d="M4838.0007,-122.0109C4838.0007,-122.0109 4838.0007,-151.855 4838.0007,-151.855"/>
<polygon fill="#000000" stroke="#000000" points="4834.5008,-151.8549 4838.0007,-161.855 4841.5008,-151.855 4834.5008,-151.8549"/>
</g>
<!-- AppModule -->
<g id="node12" class="node">
<title>AppModule</title>
<polygon fill="#8dd3c7" stroke="#000000" points="878.6571,-263 875.6571,-267 854.6571,-267 851.6571,-263 795.3429,-263 795.3429,-227 878.6571,-227 878.6571,-263"/>
<text text-anchor="middle" x="837" y="-240.8" font-family="Times,serif" font-size="14.00" fill="#000000">AppModule</text>
</g>
<!-- SharedModule&#45;&gt;AppModule -->
<g id="edge14" class="edge">
<title>SharedModule&#45;&gt;AppModule</title>
<path fill="none" stroke="#000000" d="M4748.7876,-98C4741.0466,-98 4735.5418,-98 4735.5418,-98 4735.5418,-98 4735.5418,-259 4735.5418,-259 4735.5418,-259 888.7967,-259 888.7967,-259"/>
<polygon fill="#000000" stroke="#000000" points="888.7968,-255.5001 878.7967,-259 888.7967,-262.5001 888.7968,-255.5001"/>
</g>
<!-- FileManagerModule -->
<g id="node15" class="node">
<title>FileManagerModule</title>
<polygon fill="#8dd3c7" stroke="#000000" points="311.5772,-198 308.5772,-202 287.5772,-202 284.5772,-198 180.4228,-198 180.4228,-162 311.5772,-162 311.5772,-198"/>
<text text-anchor="middle" x="246" y="-175.8" font-family="Times,serif" font-size="14.00" fill="#000000">FileManagerModule</text>
</g>
<!-- SharedModule&#45;&gt;FileManagerModule -->
<g id="edge29" class="edge">
<title>SharedModule&#45;&gt;FileManagerModule</title>
<path fill="none" stroke="#000000" d="M4757.9993,-122.1944C4757.9993,-130.2782 4757.9993,-138 4757.9993,-138 4757.9993,-138 290.9074,-138 290.9074,-138 290.9074,-138 290.9074,-151.9445 290.9074,-151.9445"/>
<polygon fill="#000000" stroke="#000000" points="287.4075,-151.9444 290.9074,-161.9445 294.4075,-151.9445 287.4075,-151.9444"/>
</g>
<!-- WorkspaceDetailModule -->
<g id="node16" class="node">
<title>WorkspaceDetailModule</title>
<polygon fill="#8dd3c7" stroke="#000000" points="486.2212,-198 483.2212,-202 462.2212,-202 459.2212,-198 329.7788,-198 329.7788,-162 486.2212,-162 486.2212,-198"/>
<text text-anchor="middle" x="408" y="-175.8" font-family="Times,serif" font-size="14.00" fill="#000000">WorkspaceDetailModule</text>
</g>
<!-- SharedModule&#45;&gt;WorkspaceDetailModule -->
<g id="edge45" class="edge">
<title>SharedModule&#45;&gt;WorkspaceDetailModule</title>
<path fill="none" stroke="#000000" d="M4765.2722,-122.1025C4765.2722,-133.0859 4765.2722,-145 4765.2722,-145 4765.2722,-145 456.8057,-145 456.8057,-145 456.8057,-145 456.8057,-151.68 456.8057,-151.68"/>
<polygon fill="#000000" stroke="#000000" points="453.3058,-151.6799 456.8057,-161.68 460.3058,-151.68 453.3058,-151.6799"/>
</g>
<!-- WorkspaceManagerModule -->
<g id="node17" class="node">
<title>WorkspaceManagerModule</title>
<polygon fill="#8dd3c7" stroke="#000000" points="676.2626,-198 673.2626,-202 652.2626,-202 649.2626,-198 503.7374,-198 503.7374,-162 676.2626,-162 676.2626,-198"/>
<text text-anchor="middle" x="590" y="-175.8" font-family="Times,serif" font-size="14.00" fill="#000000">WorkspaceManagerModule</text>
</g>
<!-- SharedModule&#45;&gt;WorkspaceManagerModule -->
<g id="edge49" class="edge">
<title>SharedModule&#45;&gt;WorkspaceManagerModule</title>
<path fill="none" stroke="#000000" d="M4772.545,-122.037C4772.545,-135.2913 4772.545,-151 4772.545,-151 4772.545,-151 612.2003,-151 612.2003,-151 612.2003,-151 612.2003,-152.0799 612.2003,-152.0799"/>
<polygon fill="#000000" stroke="#000000" points="608.7004,-151.7985 612.2003,-161.7985 615.7004,-151.7986 608.7004,-151.7985"/>
</g>
<!-- SettingsModule -->
<g id="node31" class="node">
<title>SettingsModule</title>
<polygon fill="#8dd3c7" stroke="#000000" points="5312.1639,-198 5309.1639,-202 5288.1639,-202 5285.1639,-198 5207.8361,-198 5207.8361,-162 5312.1639,-162 5312.1639,-198"/>
<text text-anchor="middle" x="5260" y="-175.8" font-family="Times,serif" font-size="14.00" fill="#000000">SettingsModule</text>
</g>
<!-- SharedModule&#45;&gt;SettingsModule -->
<g id="edge33" class="edge">
<title>SharedModule&#45;&gt;SettingsModule</title>
<path fill="none" stroke="#000000" d="M4847.6033,-104C4852.7763,-104 4856.1894,-104 4856.1894,-104 4856.1894,-104 4856.1894,-171 4856.1894,-171 4856.1894,-171 5197.6228,-171 5197.6228,-171"/>
<polygon fill="#000000" stroke="#000000" points="5197.6228,-174.5001 5207.6228,-171 5197.6228,-167.5001 5197.6228,-174.5001"/>
</g>
<!-- BigInputActionComponent  -->
<g id="node37" class="node">
<title>BigInputActionComponent </title>
<polygon fill="#fb8072" stroke="#000000" points="4091.2134,-198 3918.7866,-198 3918.7866,-162 4091.2134,-162 4091.2134,-198"/>
<text text-anchor="middle" x="4005" y="-175.8" font-family="Times,serif" font-size="14.00" fill="#000000">BigInputActionComponent </text>
</g>
<!-- SharedModule&#45;&gt;BigInputActionComponent  -->
<g id="edge39" class="edge">
<title>SharedModule&#45;&gt;BigInputActionComponent </title>
<path fill="none" stroke="#000000" stroke-dasharray="5,2" d="M4808.9093,-122.2396C4808.9093,-137.5706 4808.9093,-157 4808.9093,-157 4808.9093,-157 4078.9827,-157 4078.9827,-157 4078.9827,-157 4078.9827,-157.4878 4078.9827,-157.4878"/>
<polygon fill="#000000" stroke="#000000" points="4075.4829,-151.8776 4078.9827,-161.8777 4082.4829,-151.8778 4075.4829,-151.8776"/>
</g>
<!-- BigInputComponent  -->
<g id="node38" class="node">
<title>BigInputComponent </title>
<polygon fill="#fb8072" stroke="#000000" points="3900.1114,-198 3765.8886,-198 3765.8886,-162 3900.1114,-162 3900.1114,-198"/>
<text text-anchor="middle" x="3833" y="-175.8" font-family="Times,serif" font-size="14.00" fill="#000000">BigInputComponent </text>
</g>
<!-- SharedModule&#45;&gt;BigInputComponent  -->
<g id="edge40" class="edge">
<title>SharedModule&#45;&gt;BigInputComponent </title>
<path fill="none" stroke="#000000" stroke-dasharray="5,2" d="M4801.6364,-122.1243C4801.6364,-136.7832 4801.6364,-155 4801.6364,-155 4801.6364,-155 3866.453,-155 3866.453,-155 3866.453,-155 3866.453,-155.6831 3866.453,-155.6831"/>
<polygon fill="#000000" stroke="#000000" points="3862.9532,-151.8313 3866.453,-161.8314 3869.9532,-151.8314 3862.9532,-151.8313"/>
</g>
<!-- ByteNamePipe  -->
<g id="node39" class="node">
<title>ByteNamePipe </title>
<polygon fill="#fb8072" stroke="#000000" points="3748.2563,-198 3643.7437,-198 3643.7437,-162 3748.2563,-162 3748.2563,-198"/>
<text text-anchor="middle" x="3696" y="-175.8" font-family="Times,serif" font-size="14.00" fill="#000000">ByteNamePipe </text>
</g>
<!-- SharedModule&#45;&gt;ByteNamePipe  -->
<g id="edge41" class="edge">
<title>SharedModule&#45;&gt;ByteNamePipe </title>
<path fill="none" stroke="#000000" stroke-dasharray="5,2" d="M4794.3636,-122.0511C4794.3636,-136.373 4794.3636,-154 4794.3636,-154 4794.3636,-154 3696,-154 3696,-154 3696,-154 3696,-154.7942 3696,-154.7942"/>
<polygon fill="#000000" stroke="#000000" points="3692.5001,-151.9421 3696,-161.9421 3699.5001,-151.9422 3692.5001,-151.9421"/>
</g>
<!-- RtlSupportDirective  -->
<g id="node40" class="node">
<title>RtlSupportDirective </title>
<polygon fill="#fb8072" stroke="#000000" points="3625.5344,-198 3492.4656,-198 3492.4656,-162 3625.5344,-162 3625.5344,-198"/>
<text text-anchor="middle" x="3559" y="-175.8" font-family="Times,serif" font-size="14.00" fill="#000000">RtlSupportDirective </text>
</g>
<!-- SharedModule&#45;&gt;RtlSupportDirective  -->
<g id="edge42" class="edge">
<title>SharedModule&#45;&gt;RtlSupportDirective </title>
<path fill="none" stroke="#000000" stroke-dasharray="5,2" d="M4787.0907,-122.1467C4787.0907,-135.7395 4787.0907,-152 4787.0907,-152 4787.0907,-152 3608.0383,-152 3608.0383,-152 3608.0383,-152 3608.0383,-152.9793 3608.0383,-152.9793"/>
<polygon fill="#000000" stroke="#000000" points="3604.5384,-151.793 3608.0383,-161.793 3611.5384,-151.7931 3604.5384,-151.793"/>
</g>
<!-- AppComponent -->
<g id="node5" class="node">
<title>AppComponent</title>
<polygon fill="#ffffb3" stroke="#000000" points="1995.9399,-198 1890.0601,-198 1890.0601,-162 1995.9399,-162 1995.9399,-198"/>
<text text-anchor="middle" x="1943" y="-175.8" font-family="Times,serif" font-size="14.00" fill="#000000">AppComponent</text>
</g>
<!-- AppComponent&#45;&gt;AppModule -->
<g id="edge4" class="edge">
<title>AppComponent&#45;&gt;AppModule</title>
<path fill="none" stroke="#000000" d="M1943,-198.2921C1943,-220.2057 1943,-254 1943,-254 1943,-254 888.6714,-254 888.6714,-254"/>
<polygon fill="#000000" stroke="#000000" points="888.6714,-250.5001 878.6714,-254 888.6713,-257.5001 888.6714,-250.5001"/>
</g>
<!-- LoginComponent -->
<g id="node6" class="node">
<title>LoginComponent</title>
<polygon fill="#ffffb3" stroke="#000000" points="1872.2758,-198 1757.7242,-198 1757.7242,-162 1872.2758,-162 1872.2758,-198"/>
<text text-anchor="middle" x="1815" y="-175.8" font-family="Times,serif" font-size="14.00" fill="#000000">LoginComponent</text>
</g>
<!-- LoginComponent&#45;&gt;AppModule -->
<g id="edge5" class="edge">
<title>LoginComponent&#45;&gt;AppModule</title>
<path fill="none" stroke="#000000" d="M1815,-198.0267C1815,-218.7672 1815,-250 1815,-250 1815,-250 888.7106,-250 888.7106,-250"/>
<polygon fill="#000000" stroke="#000000" points="888.7106,-246.5001 878.7106,-250 888.7105,-253.5001 888.7106,-246.5001"/>
</g>
<!-- RegisterComponent -->
<g id="node7" class="node">
<title>RegisterComponent</title>
<polygon fill="#ffffb3" stroke="#000000" points="1739.9846,-198 1612.0154,-198 1612.0154,-162 1739.9846,-162 1739.9846,-198"/>
<text text-anchor="middle" x="1676" y="-175.8" font-family="Times,serif" font-size="14.00" fill="#000000">RegisterComponent</text>
</g>
<!-- RegisterComponent&#45;&gt;AppModule -->
<g id="edge6" class="edge">
<title>RegisterComponent&#45;&gt;AppModule</title>
<path fill="none" stroke="#000000" d="M1676,-198.1061C1676,-217.3391 1676,-245 1676,-245 1676,-245 888.8932,-245 888.8932,-245"/>
<polygon fill="#000000" stroke="#000000" points="888.8932,-241.5001 878.8932,-245 888.8932,-248.5001 888.8932,-241.5001"/>
</g>
<!-- RequestPasswordResetComponent -->
<g id="node8" class="node">
<title>RequestPasswordResetComponent</title>
<polygon fill="#ffffb3" stroke="#000000" points="1593.6881,-198 1382.3119,-198 1382.3119,-162 1593.6881,-162 1593.6881,-198"/>
<text text-anchor="middle" x="1488" y="-175.8" font-family="Times,serif" font-size="14.00" fill="#000000">RequestPasswordResetComponent</text>
</g>
<!-- RequestPasswordResetComponent&#45;&gt;AppModule -->
<g id="edge7" class="edge">
<title>RequestPasswordResetComponent&#45;&gt;AppModule</title>
<path fill="none" stroke="#000000" d="M1488,-198.302C1488,-216.2699 1488,-241 1488,-241 1488,-241 888.7133,-241 888.7133,-241"/>
<polygon fill="#000000" stroke="#000000" points="888.7133,-237.5001 878.7133,-241 888.7133,-244.5001 888.7133,-237.5001"/>
</g>
<!-- ResponsePasswordResetComponent -->
<g id="node9" class="node">
<title>ResponsePasswordResetComponent</title>
<polygon fill="#ffffb3" stroke="#000000" points="1364.7422,-198 1145.2578,-198 1145.2578,-162 1364.7422,-162 1364.7422,-198"/>
<text text-anchor="middle" x="1255" y="-175.8" font-family="Times,serif" font-size="14.00" fill="#000000">ResponsePasswordResetComponent</text>
</g>
<!-- ResponsePasswordResetComponent&#45;&gt;AppModule -->
<g id="edge8" class="edge">
<title>ResponsePasswordResetComponent&#45;&gt;AppModule</title>
<path fill="none" stroke="#000000" d="M1255,-198.027C1255,-214.3976 1255,-236 1255,-236 1255,-236 888.9933,-236 888.9933,-236"/>
<polygon fill="#000000" stroke="#000000" points="888.9933,-232.5001 878.9933,-236 888.9932,-239.5001 888.9933,-232.5001"/>
</g>
<!-- TutorialComponent -->
<g id="node10" class="node">
<title>TutorialComponent</title>
<polygon fill="#ffffb3" stroke="#000000" points="1127.4327,-198 1000.5673,-198 1000.5673,-162 1127.4327,-162 1127.4327,-198"/>
<text text-anchor="middle" x="1064" y="-175.8" font-family="Times,serif" font-size="14.00" fill="#000000">TutorialComponent</text>
</g>
<!-- TutorialComponent&#45;&gt;AppModule -->
<g id="edge9" class="edge">
<title>TutorialComponent&#45;&gt;AppModule</title>
<path fill="none" stroke="#000000" d="M1064,-198.1871C1064,-213.1824 1064,-232 1064,-232 1064,-232 888.8998,-232 888.8998,-232"/>
<polygon fill="#000000" stroke="#000000" points="888.8999,-228.5001 878.8998,-232 888.8998,-235.5001 888.8999,-228.5001"/>
</g>
<!-- WorkareaComponent -->
<g id="node11" class="node">
<title>WorkareaComponent</title>
<polygon fill="#ffffb3" stroke="#000000" points="983.0129,-198 846.9871,-198 846.9871,-162 983.0129,-162 983.0129,-198"/>
<text text-anchor="middle" x="915" y="-175.8" font-family="Times,serif" font-size="14.00" fill="#000000">WorkareaComponent</text>
</g>
<!-- WorkareaComponent&#45;&gt;AppModule -->
<g id="edge10" class="edge">
<title>WorkareaComponent&#45;&gt;AppModule</title>
<path fill="none" stroke="#000000" d="M862.7861,-198.1061C862.7861,-198.1061 862.7861,-216.991 862.7861,-216.991"/>
<polygon fill="#000000" stroke="#000000" points="859.2862,-216.9909 862.7861,-226.991 866.2862,-216.991 859.2862,-216.9909"/>
</g>
<!-- AppComponent  -->
<g id="node18" class="node">
<title>AppComponent </title>
<polygon fill="#80b1d3" stroke="#000000" points="891.439,-328 782.561,-328 782.561,-292 891.439,-292 891.439,-328"/>
<text text-anchor="middle" x="837" y="-305.8" font-family="Times,serif" font-size="14.00" fill="#000000">AppComponent </text>
</g>
<!-- AppModule&#45;&gt;AppComponent  -->
<g id="edge17" class="edge">
<title>AppModule&#45;&gt;AppComponent </title>
<path fill="none" stroke="#000000" stroke-dasharray="1,5" d="M837,-263.1061C837,-263.1061 837,-281.991 837,-281.991"/>
<polygon fill="#000000" stroke="#000000" points="833.5001,-281.9909 837,-291.991 840.5001,-281.991 833.5001,-281.9909"/>
</g>
<!-- AppRoutingModule -->
<g id="node13" class="node">
<title>AppRoutingModule</title>
<polygon fill="#8dd3c7" stroke="#000000" points="823.2744,-198 820.2744,-202 799.2744,-202 796.2744,-198 694.7256,-198 694.7256,-162 823.2744,-162 823.2744,-198"/>
<text text-anchor="middle" x="759" y="-175.8" font-family="Times,serif" font-size="14.00" fill="#000000">AppRoutingModule</text>
</g>
<!-- AppRoutingModule&#45;&gt;AppModule -->
<g id="edge11" class="edge">
<title>AppRoutingModule&#45;&gt;AppModule</title>
<path fill="none" stroke="#000000" d="M809.2795,-198.1061C809.2795,-198.1061 809.2795,-216.991 809.2795,-216.991"/>
<polygon fill="#000000" stroke="#000000" points="805.7795,-216.9909 809.2795,-226.991 812.7795,-216.991 805.7795,-216.9909"/>
</g>
<!-- CoreModule -->
<g id="node14" class="node">
<title>CoreModule</title>
<polygon fill="#8dd3c7" stroke="#000000" points="162.2619,-198 159.2619,-202 138.2619,-202 135.2619,-198 75.7381,-198 75.7381,-162 162.2619,-162 162.2619,-198"/>
<text text-anchor="middle" x="119" y="-175.8" font-family="Times,serif" font-size="14.00" fill="#000000">CoreModule</text>
</g>
<!-- CoreModule&#45;&gt;AppModule -->
<g id="edge12" class="edge">
<title>CoreModule&#45;&gt;AppModule</title>
<path fill="none" stroke="#000000" d="M119,-198.3228C119,-221.6602 119,-259 119,-259 119,-259 785.2938,-259 785.2938,-259"/>
<polygon fill="#000000" stroke="#000000" points="785.2939,-262.5001 795.2938,-259 785.2938,-255.5001 785.2939,-262.5001"/>
</g>
<!-- FileManagerModule&#45;&gt;AppModule -->
<g id="edge13" class="edge">
<title>FileManagerModule&#45;&gt;AppModule</title>
<path fill="none" stroke="#000000" d="M246,-198.0267C246,-218.7672 246,-250 246,-250 246,-250 784.9705,-250 784.9705,-250"/>
<polygon fill="#000000" stroke="#000000" points="784.9706,-253.5001 794.9705,-250 784.9705,-246.5001 784.9706,-253.5001"/>
</g>
<!-- FileListComponent  -->
<g id="node29" class="node">
<title>FileListComponent </title>
<polygon fill="#fb8072" stroke="#000000" points="2164.3898,-122 2035.6102,-122 2035.6102,-86 2164.3898,-86 2164.3898,-122"/>
<text text-anchor="middle" x="2100" y="-99.8" font-family="Times,serif" font-size="14.00" fill="#000000">FileListComponent </text>
</g>
<!-- FileManagerModule&#45;&gt;FileListComponent  -->
<g id="edge30" class="edge">
<title>FileManagerModule&#45;&gt;FileListComponent </title>
<path fill="none" stroke="#000000" stroke-dasharray="5,2" d="M301.223,-161.7604C301.223,-146.4294 301.223,-127 301.223,-127 301.223,-127 2100,-127 2100,-127 2100,-127 2100,-126.5122 2100,-126.5122"/>
<polygon fill="#000000" stroke="#000000" points="2103.5002,-132.1222 2100,-122.1223 2096.5002,-132.1224 2103.5002,-132.1222"/>
</g>
<!-- WorkspaceDetailModule&#45;&gt;AppModule -->
<g id="edge15" class="edge">
<title>WorkspaceDetailModule&#45;&gt;AppModule</title>
<path fill="none" stroke="#000000" d="M408,-198.302C408,-216.2699 408,-241 408,-241 408,-241 785.0846,-241 785.0846,-241"/>
<polygon fill="#000000" stroke="#000000" points="785.0846,-244.5001 795.0846,-241 785.0845,-237.5001 785.0846,-244.5001"/>
</g>
<!-- WorkspaceDetailComponent  -->
<g id="node44" class="node">
<title>WorkspaceDetailComponent </title>
<polygon fill="#fb8072" stroke="#000000" points="3549.0036,-122 3366.9964,-122 3366.9964,-86 3549.0036,-86 3549.0036,-122"/>
<text text-anchor="middle" x="3458" y="-99.8" font-family="Times,serif" font-size="14.00" fill="#000000">WorkspaceDetailComponent </text>
</g>
<!-- WorkspaceDetailModule&#45;&gt;WorkspaceDetailComponent  -->
<g id="edge47" class="edge">
<title>WorkspaceDetailModule&#45;&gt;WorkspaceDetailComponent </title>
<path fill="none" stroke="#000000" stroke-dasharray="5,2" d="M471.5831,-161.8726C471.5831,-151.2891 471.5831,-140 471.5831,-140 471.5831,-140 3429.7405,-140 3429.7405,-140 3429.7405,-140 3429.7405,-132.4218 3429.7405,-132.4218"/>
<polygon fill="#000000" stroke="#000000" points="3433.2406,-132.4218 3429.7405,-122.4218 3426.2406,-132.4219 3433.2406,-132.4218"/>
</g>
<!-- WorkspaceManagerModule&#45;&gt;AppModule -->
<g id="edge16" class="edge">
<title>WorkspaceManagerModule&#45;&gt;AppModule</title>
<path fill="none" stroke="#000000" d="M590,-198.1871C590,-213.1824 590,-232 590,-232 590,-232 785.0998,-232 785.0998,-232"/>
<polygon fill="#000000" stroke="#000000" points="785.0999,-235.5001 795.0998,-232 785.0998,-228.5001 785.0999,-235.5001"/>
</g>
<!-- WorkspaceListComponent  -->
<g id="node47" class="node">
<title>WorkspaceListComponent </title>
<polygon fill="#fb8072" stroke="#000000" points="4276.5749,-122 4107.4251,-122 4107.4251,-86 4276.5749,-86 4276.5749,-122"/>
<text text-anchor="middle" x="4192" y="-99.8" font-family="Times,serif" font-size="14.00" fill="#000000">WorkspaceListComponent </text>
</g>
<!-- WorkspaceManagerModule&#45;&gt;WorkspaceListComponent  -->
<g id="edge51" class="edge">
<title>WorkspaceManagerModule&#45;&gt;WorkspaceListComponent </title>
<path fill="none" stroke="#000000" stroke-dasharray="5,2" d="M644.1657,-161.9551C644.1657,-154.251 644.1657,-147 644.1657,-147 644.1657,-147 4158.4109,-147 4158.4109,-147 4158.4109,-147 4158.4109,-132.4854 4158.4109,-132.4854"/>
<polygon fill="#000000" stroke="#000000" points="4161.911,-132.4854 4158.4109,-122.4854 4154.911,-132.4855 4161.911,-132.4854"/>
</g>
<!-- AuthService -->
<g id="node19" class="node">
<title>AuthService</title>
<ellipse fill="#fdb462" stroke="#000000" cx="457" cy="-104" rx="59.1083" ry="18"/>
<text text-anchor="middle" x="457" y="-99.8" font-family="Times,serif" font-size="14.00" fill="#000000">AuthService</text>
</g>
<!-- AuthService&#45;&gt;AppModule -->
<g id="edge18" class="edge">
<title>AuthService&#45;&gt;AppModule</title>
<path fill="none" stroke="#000000" d="M495.1147,-118.1263C495.1147,-152.1787 495.1147,-236 495.1147,-236 495.1147,-236 785.0781,-236 785.0781,-236"/>
<polygon fill="#000000" stroke="#000000" points="785.0782,-239.5001 795.0781,-236 785.0781,-232.5001 785.0782,-239.5001"/>
</g>
<!-- HttpErrorInterceptor -->
<g id="node20" class="node">
<title>HttpErrorInterceptor</title>
<ellipse fill="#fdb462" stroke="#000000" cx="289" cy="-104" rx="90.8665" ry="18"/>
<text text-anchor="middle" x="289" y="-99.8" font-family="Times,serif" font-size="14.00" fill="#000000">HttpErrorInterceptor</text>
</g>
<!-- HttpErrorInterceptor&#45;&gt;AppModule -->
<g id="edge19" class="edge">
<title>HttpErrorInterceptor&#45;&gt;AppModule</title>
<path fill="none" stroke="#000000" d="M320.5891,-121.0079C320.5891,-158.5096 320.5891,-245 320.5891,-245 320.5891,-245 785.1774,-245 785.1774,-245"/>
<polygon fill="#000000" stroke="#000000" points="785.1774,-248.5001 795.1774,-245 785.1773,-241.5001 785.1774,-248.5001"/>
</g>
<!-- HttpErrorInterceptor&#45;&gt;CoreModule -->
<g id="edge21" class="edge">
<title>HttpErrorInterceptor&#45;&gt;CoreModule</title>
<path fill="none" stroke="#000000" d="M208.3824,-112.5415C208.3824,-118.3555 208.3824,-125 208.3824,-125 208.3824,-125 119,-125 119,-125 119,-125 119,-151.9909 119,-151.9909"/>
<polygon fill="#000000" stroke="#000000" points="115.5001,-151.9909 119,-161.9909 122.5001,-151.991 115.5001,-151.9909"/>
</g>
<!-- TokenInterceptor -->
<g id="node21" class="node">
<title>TokenInterceptor</title>
<ellipse fill="#fdb462" stroke="#000000" cx="102" cy="-104" rx="78.1308" ry="18"/>
<text text-anchor="middle" x="102" y="-99.8" font-family="Times,serif" font-size="14.00" fill="#000000">TokenInterceptor</text>
</g>
<!-- TokenInterceptor&#45;&gt;AppModule -->
<g id="edge20" class="edge">
<title>TokenInterceptor&#45;&gt;AppModule</title>
<path fill="none" stroke="#000000" d="M171.2231,-112.4944C171.2231,-144.226 171.2231,-254 171.2231,-254 171.2231,-254 785.1005,-254 785.1005,-254"/>
<polygon fill="#000000" stroke="#000000" points="785.1005,-257.5001 795.1005,-254 785.1004,-250.5001 785.1005,-257.5001"/>
</g>
<!-- AddDialogComponent -->
<g id="node22" class="node">
<title>AddDialogComponent</title>
<polygon fill="#ffffb3" stroke="#000000" points="3326.5421,-122 3183.4579,-122 3183.4579,-86 3326.5421,-86 3326.5421,-122"/>
<text text-anchor="middle" x="3255" y="-99.8" font-family="Times,serif" font-size="14.00" fill="#000000">AddDialogComponent</text>
</g>
<!-- AddDialogComponent&#45;&gt;FileManagerModule -->
<g id="edge22" class="edge">
<title>AddDialogComponent&#45;&gt;FileManagerModule</title>
<path fill="none" stroke="#000000" d="M3255,-122.0449C3255,-129.749 3255,-137 3255,-137 3255,-137 280.5917,-137 280.5917,-137 280.5917,-137 280.5917,-151.5146 280.5917,-151.5146"/>
<polygon fill="#000000" stroke="#000000" points="277.0918,-151.5145 280.5917,-161.5146 284.0918,-151.5146 277.0918,-151.5145"/>
</g>
<!-- ByteNamePipe -->
<g id="node23" class="node">
<title>ByteNamePipe</title>
<polygon fill="#ffffb3" stroke="#000000" points="3165.2563,-122 3064.7437,-122 3064.7437,-86 3165.2563,-86 3165.2563,-122"/>
<text text-anchor="middle" x="3115" y="-99.8" font-family="Times,serif" font-size="14.00" fill="#000000">ByteNamePipe</text>
</g>
<!-- ByteNamePipe&#45;&gt;SharedModule -->
<g id="edge37" class="edge">
<title>ByteNamePipe&#45;&gt;SharedModule</title>
<path fill="none" stroke="#000000" d="M3131.7927,-122.1543C3131.7927,-123.2969 3131.7927,-124 3131.7927,-124 3131.7927,-124 4779.8179,-124 4779.8179,-124 4779.8179,-124 4779.8179,-123.8154 4779.8179,-123.8154"/>
<polygon fill="#000000" stroke="#000000" points="4783.3185,-132.1541 4779.8179,-122.1543 4776.3185,-132.1545 4783.3185,-132.1541"/>
</g>
<!-- ByteNamePipe&#45;&gt;FileManagerModule -->
<g id="edge23" class="edge">
<title>ByteNamePipe&#45;&gt;FileManagerModule</title>
<path fill="none" stroke="#000000" d="M3098.2073,-122.0328C3098.2073,-128.8526 3098.2073,-135 3098.2073,-135 3098.2073,-135 270.2761,-135 270.2761,-135 270.2761,-135 270.2761,-151.9561 270.2761,-151.9561"/>
<polygon fill="#000000" stroke="#000000" points="266.7762,-151.956 270.2761,-161.9561 273.7762,-151.9561 266.7762,-151.956"/>
</g>
<!-- DeleteDialogComponent -->
<g id="node24" class="node">
<title>DeleteDialogComponent</title>
<polygon fill="#ffffb3" stroke="#000000" points="3046.9664,-122 2891.0336,-122 2891.0336,-86 3046.9664,-86 3046.9664,-122"/>
<text text-anchor="middle" x="2969" y="-99.8" font-family="Times,serif" font-size="14.00" fill="#000000">DeleteDialogComponent</text>
</g>
<!-- DeleteDialogComponent&#45;&gt;FileManagerModule -->
<g id="edge24" class="edge">
<title>DeleteDialogComponent&#45;&gt;FileManagerModule</title>
<path fill="none" stroke="#000000" d="M2969,-122.1432C2969,-128.4611 2969,-134 2969,-134 2969,-134 259.9605,-134 259.9605,-134 259.9605,-134 259.9605,-151.8196 259.9605,-151.8196"/>
<polygon fill="#000000" stroke="#000000" points="256.4606,-151.8195 259.9605,-161.8196 263.4606,-151.8196 256.4606,-151.8195"/>
</g>
<!-- EditDialogComponent -->
<g id="node25" class="node">
<title>EditDialogComponent</title>
<polygon fill="#ffffb3" stroke="#000000" points="2873.2688,-122 2730.7312,-122 2730.7312,-86 2873.2688,-86 2873.2688,-122"/>
<text text-anchor="middle" x="2802" y="-99.8" font-family="Times,serif" font-size="14.00" fill="#000000">EditDialogComponent</text>
</g>
<!-- EditDialogComponent&#45;&gt;FileManagerModule -->
<g id="edge25" class="edge">
<title>EditDialogComponent&#45;&gt;FileManagerModule</title>
<path fill="none" stroke="#000000" d="M2802,-122.207C2802,-127.5549 2802,-132 2802,-132 2802,-132 249.6449,-132 249.6449,-132 249.6449,-132 249.6449,-151.8533 249.6449,-151.8533"/>
<polygon fill="#000000" stroke="#000000" points="246.145,-151.8532 249.6449,-161.8533 253.145,-151.8533 246.145,-151.8532"/>
</g>
<!-- FileListComponent -->
<g id="node26" class="node">
<title>FileListComponent</title>
<polygon fill="#ffffb3" stroke="#000000" points="2712.3892,-122 2587.6108,-122 2587.6108,-86 2712.3892,-86 2712.3892,-122"/>
<text text-anchor="middle" x="2650" y="-99.8" font-family="Times,serif" font-size="14.00" fill="#000000">FileListComponent</text>
</g>
<!-- FileListComponent&#45;&gt;FileManagerModule -->
<g id="edge26" class="edge">
<title>FileListComponent&#45;&gt;FileManagerModule</title>
<path fill="none" stroke="#000000" d="M2650,-122.1592C2650,-127.0433 2650,-131 2650,-131 2650,-131 239.3292,-131 239.3292,-131 239.3292,-131 239.3292,-151.7542 239.3292,-151.7542"/>
<polygon fill="#000000" stroke="#000000" points="235.8293,-151.7542 239.3292,-161.7542 242.8293,-151.7542 235.8293,-151.7542"/>
</g>
<!-- ProgressSnackbarComponent -->
<g id="node27" class="node">
<title>ProgressSnackbarComponent</title>
<polygon fill="#ffffb3" stroke="#000000" points="2569.6274,-122 2388.3726,-122 2388.3726,-86 2569.6274,-86 2569.6274,-122"/>
<text text-anchor="middle" x="2479" y="-99.8" font-family="Times,serif" font-size="14.00" fill="#000000">ProgressSnackbarComponent</text>
</g>
<!-- ProgressSnackbarComponent&#45;&gt;FileManagerModule -->
<g id="edge27" class="edge">
<title>ProgressSnackbarComponent&#45;&gt;FileManagerModule</title>
<path fill="none" stroke="#000000" d="M2479,-122.0579C2479,-126.4945 2479,-130 2479,-130 2479,-130 229.0136,-130 229.0136,-130 229.0136,-130 229.0136,-151.9489 229.0136,-151.9489"/>
<polygon fill="#000000" stroke="#000000" points="225.5137,-151.9488 229.0136,-161.9489 232.5137,-151.9489 225.5137,-151.9488"/>
</g>
<!-- FileManagerRoutingModule -->
<g id="node28" class="node">
<title>FileManagerRoutingModule</title>
<polygon fill="#8dd3c7" stroke="#000000" points="2364.1951,-122 2361.1951,-126 2340.1951,-126 2337.1951,-122 2187.8049,-122 2187.8049,-86 2364.1951,-86 2364.1951,-122"/>
<text text-anchor="middle" x="2276" y="-99.8" font-family="Times,serif" font-size="14.00" fill="#000000">FileManagerRoutingModule</text>
</g>
<!-- FileManagerRoutingModule&#45;&gt;FileManagerModule -->
<g id="edge28" class="edge">
<title>FileManagerRoutingModule&#45;&gt;FileManagerModule</title>
<path fill="none" stroke="#000000" d="M2276,-122.1903C2276,-125.5376 2276,-128 2276,-128 2276,-128 218.698,-128 218.698,-128 218.698,-128 218.698,-151.8129 218.698,-151.8129"/>
<polygon fill="#000000" stroke="#000000" points="215.1981,-151.8129 218.698,-161.8129 222.1981,-151.813 215.1981,-151.8129"/>
</g>
<!-- SettingsContainerComponent -->
<g id="node30" class="node">
<title>SettingsContainerComponent</title>
<polygon fill="#ffffb3" stroke="#000000" points="5540.6539,-122 5359.3461,-122 5359.3461,-86 5540.6539,-86 5540.6539,-122"/>
<text text-anchor="middle" x="5450" y="-99.8" font-family="Times,serif" font-size="14.00" fill="#000000">SettingsContainerComponent</text>
</g>
<!-- SettingsContainerComponent&#45;&gt;SettingsModule -->
<g id="edge31" class="edge">
<title>SettingsContainerComponent&#45;&gt;SettingsModule</title>
<path fill="none" stroke="#000000" d="M5450,-122.0109C5450,-144.4852 5450,-180 5450,-180 5450,-180 5322.1696,-180 5322.1696,-180"/>
<polygon fill="#000000" stroke="#000000" points="5322.1697,-176.5001 5312.1696,-180 5322.1696,-183.5001 5322.1697,-176.5001"/>
</g>
<!-- SettingsRoutingModule -->
<g id="node32" class="node">
<title>SettingsRoutingModule</title>
<polygon fill="#8dd3c7" stroke="#000000" points="5334.7814,-122 5331.7814,-126 5310.7814,-126 5307.7814,-122 5185.2186,-122 5185.2186,-86 5334.7814,-86 5334.7814,-122"/>
<text text-anchor="middle" x="5260" y="-99.8" font-family="Times,serif" font-size="14.00" fill="#000000">SettingsRoutingModule</text>
</g>
<!-- SettingsRoutingModule&#45;&gt;SettingsModule -->
<g id="edge32" class="edge">
<title>SettingsRoutingModule&#45;&gt;SettingsModule</title>
<path fill="none" stroke="#000000" d="M5260,-122.0109C5260,-122.0109 5260,-151.855 5260,-151.855"/>
<polygon fill="#000000" stroke="#000000" points="5256.5001,-151.8549 5260,-161.855 5263.5001,-151.855 5256.5001,-151.8549"/>
</g>
<!-- AlertComponent -->
<g id="node33" class="node">
<title>AlertComponent</title>
<polygon fill="#ffffb3" stroke="#000000" points="4709.0954,-198 4598.9046,-198 4598.9046,-162 4709.0954,-162 4709.0954,-198"/>
<text text-anchor="middle" x="4654" y="-175.8" font-family="Times,serif" font-size="14.00" fill="#000000">AlertComponent</text>
</g>
<!-- AlertComponent&#45;&gt;SharedModule -->
<g id="edge34" class="edge">
<title>AlertComponent&#45;&gt;SharedModule</title>
<path fill="none" stroke="#000000" d="M4709.1268,-180C4716.8925,-180 4722.2948,-180 4722.2948,-180 4722.2948,-180 4722.2948,-110 4722.2948,-110 4722.2948,-110 4738.7728,-110 4738.7728,-110"/>
<polygon fill="#000000" stroke="#000000" points="4738.7728,-113.5001 4748.7728,-110 4738.7727,-106.5001 4738.7728,-113.5001"/>
</g>
<!-- BigInputActionComponent -->
<g id="node34" class="node">
<title>BigInputActionComponent</title>
<polygon fill="#ffffb3" stroke="#000000" points="4580.7133,-198 4411.2867,-198 4411.2867,-162 4580.7133,-162 4580.7133,-198"/>
<text text-anchor="middle" x="4496" y="-175.8" font-family="Times,serif" font-size="14.00" fill="#000000">BigInputActionComponent</text>
</g>
<!-- BigInputActionComponent&#45;&gt;SharedModule -->
<g id="edge35" class="edge">
<title>BigInputActionComponent&#45;&gt;SharedModule</title>
<path fill="none" stroke="#000000" d="M4568.0587,-161.8164C4568.0587,-161.2969 4568.0587,-161 4568.0587,-161 4568.0587,-161 4830.7278,-161 4830.7278,-161 4830.7278,-161 4830.7278,-132.0352 4830.7278,-132.0352"/>
<polygon fill="#000000" stroke="#000000" points="4834.2279,-132.0351 4830.7278,-122.0352 4827.2279,-132.0352 4834.2279,-132.0351"/>
</g>
<!-- BigInputComponent -->
<g id="node35" class="node">
<title>BigInputComponent</title>
<polygon fill="#ffffb3" stroke="#000000" points="4393.6108,-198 4262.3892,-198 4262.3892,-162 4393.6108,-162 4393.6108,-198"/>
<text text-anchor="middle" x="4328" y="-175.8" font-family="Times,serif" font-size="14.00" fill="#000000">BigInputComponent</text>
</g>
<!-- BigInputComponent&#45;&gt;SharedModule -->
<g id="edge36" class="edge">
<title>BigInputComponent&#45;&gt;SharedModule</title>
<path fill="none" stroke="#000000" d="M4362.8069,-161.8457C4362.8069,-160.7031 4362.8069,-160 4362.8069,-160 4362.8069,-160 4823.455,-160 4823.455,-160 4823.455,-160 4823.455,-132.027 4823.455,-132.027"/>
<polygon fill="#000000" stroke="#000000" points="4826.9551,-132.027 4823.455,-122.027 4819.9551,-132.027 4826.9551,-132.027"/>
</g>
<!-- RtlSupportDirective -->
<g id="node36" class="node">
<title>RtlSupportDirective</title>
<polygon fill="#ffffb3" stroke="#000000" points="4244.5352,-198 4115.4648,-198 4115.4648,-162 4244.5352,-162 4244.5352,-198"/>
<text text-anchor="middle" x="4180" y="-175.8" font-family="Times,serif" font-size="14.00" fill="#000000">RtlSupportDirective</text>
</g>
<!-- RtlSupportDirective&#45;&gt;SharedModule -->
<g id="edge38" class="edge">
<title>RtlSupportDirective&#45;&gt;SharedModule</title>
<path fill="none" stroke="#000000" d="M4201.5891,-161.8321C4201.5891,-159.5522 4201.5891,-158 4201.5891,-158 4201.5891,-158 4816.1821,-158 4816.1821,-158 4816.1821,-158 4816.1821,-132.2819 4816.1821,-132.2819"/>
<polygon fill="#000000" stroke="#000000" points="4819.6822,-132.2819 4816.1821,-122.2819 4812.6822,-132.282 4819.6822,-132.2819"/>
</g>
<!-- FilterPipe -->
<g id="node41" class="node">
<title>FilterPipe</title>
<polygon fill="#ffffb3" stroke="#000000" points="4066.7177,-122 3995.2823,-122 3995.2823,-86 4066.7177,-86 4066.7177,-122"/>
<text text-anchor="middle" x="4031" y="-99.8" font-family="Times,serif" font-size="14.00" fill="#000000">FilterPipe</text>
</g>
<!-- FilterPipe&#45;&gt;WorkspaceDetailModule -->
<g id="edge43" class="edge">
<title>FilterPipe&#45;&gt;WorkspaceDetailModule</title>
<path fill="none" stroke="#000000" d="M4031,-122.1274C4031,-132.7109 4031,-144 4031,-144 4031,-144 442.0283,-144 442.0283,-144 442.0283,-144 442.0283,-151.5782 442.0283,-151.5782"/>
<polygon fill="#000000" stroke="#000000" points="438.5284,-151.5781 442.0283,-161.5782 445.5284,-151.5782 438.5284,-151.5781"/>
</g>
<!-- WorkspaceDetailComponent -->
<g id="node42" class="node">
<title>WorkspaceDetailComponent</title>
<polygon fill="#ffffb3" stroke="#000000" points="3977.0043,-122 3798.9957,-122 3798.9957,-86 3977.0043,-86 3977.0043,-122"/>
<text text-anchor="middle" x="3888" y="-99.8" font-family="Times,serif" font-size="14.00" fill="#000000">WorkspaceDetailComponent</text>
</g>
<!-- WorkspaceDetailComponent&#45;&gt;WorkspaceDetailModule -->
<g id="edge44" class="edge">
<title>WorkspaceDetailComponent&#45;&gt;WorkspaceDetailModule</title>
<path fill="none" stroke="#000000" d="M3832.6006,-122.1097C3832.6006,-131.897 3832.6006,-142 3832.6006,-142 3832.6006,-142 427.2509,-142 427.2509,-142 427.2509,-142 427.2509,-151.8903 427.2509,-151.8903"/>
<polygon fill="#000000" stroke="#000000" points="423.751,-151.8903 427.2509,-161.8903 430.751,-151.8904 423.751,-151.8903"/>
</g>
<!-- WorkspaceDetailRoutingModule -->
<g id="node43" class="node">
<title>WorkspaceDetailRoutingModule</title>
<polygon fill="#8dd3c7" stroke="#000000" points="3774.8389,-122 3771.8389,-126 3750.8389,-126 3747.8389,-122 3573.1611,-122 3573.1611,-86 3774.8389,-86 3774.8389,-122"/>
<text text-anchor="middle" x="3674" y="-99.8" font-family="Times,serif" font-size="14.00" fill="#000000">WorkspaceDetailRoutingModule</text>
</g>
<!-- WorkspaceDetailRoutingModule&#45;&gt;WorkspaceDetailModule -->
<g id="edge46" class="edge">
<title>WorkspaceDetailRoutingModule&#45;&gt;WorkspaceDetailModule</title>
<path fill="none" stroke="#000000" d="M3590.5595,-122.0664C3590.5595,-131.4587 3590.5595,-141 3590.5595,-141 3590.5595,-141 412.4735,-141 412.4735,-141 412.4735,-141 412.4735,-151.8701 412.4735,-151.8701"/>
<polygon fill="#000000" stroke="#000000" points="408.9736,-151.8701 412.4735,-161.8701 415.9736,-151.8701 408.9736,-151.8701"/>
</g>
<!-- WorkspaceListComponent -->
<g id="node45" class="node">
<title>WorkspaceListComponent</title>
<polygon fill="#ffffb3" stroke="#000000" points="4709.0744,-122 4542.9256,-122 4542.9256,-86 4709.0744,-86 4709.0744,-122"/>
<text text-anchor="middle" x="4626" y="-99.8" font-family="Times,serif" font-size="14.00" fill="#000000">WorkspaceListComponent</text>
</g>
<!-- WorkspaceListComponent&#45;&gt;WorkspaceManagerModule -->
<g id="edge48" class="edge">
<title>WorkspaceListComponent&#45;&gt;WorkspaceManagerModule</title>
<path fill="none" stroke="#000000" d="M4555.5107,-122.1804C4555.5107,-135.0382 4555.5107,-150 4555.5107,-150 4555.5107,-150 580.2348,-150 580.2348,-150 580.2348,-150 580.2348,-151.8568 580.2348,-151.8568"/>
<polygon fill="#000000" stroke="#000000" points="576.7349,-151.8568 580.2348,-161.8568 583.7349,-151.8568 576.7349,-151.8568"/>
</g>
<!-- WorkspaceManagerRoutingModule -->
<g id="node46" class="node">
<title>WorkspaceManagerRoutingModule</title>
<polygon fill="#8dd3c7" stroke="#000000" points="4518.8805,-122 4515.8805,-126 4494.8805,-126 4491.8805,-122 4301.1195,-122 4301.1195,-86 4518.8805,-86 4518.8805,-122"/>
<text text-anchor="middle" x="4410" y="-99.8" font-family="Times,serif" font-size="14.00" fill="#000000">WorkspaceManagerRoutingModule</text>
</g>
<!-- WorkspaceManagerRoutingModule&#45;&gt;WorkspaceManagerModule -->
<g id="edge50" class="edge">
<title>WorkspaceManagerRoutingModule&#45;&gt;WorkspaceManagerModule</title>
<path fill="none" stroke="#000000" d="M4332.0584,-122.1505C4332.0584,-134.2708 4332.0584,-148 4332.0584,-148 4332.0584,-148 548.2693,-148 548.2693,-148 548.2693,-148 548.2693,-151.7566 548.2693,-151.7566"/>
<polygon fill="#000000" stroke="#000000" points="544.7694,-151.7566 548.2693,-161.7566 551.7694,-151.7566 544.7694,-151.7566"/>
</g>
</g>
</svg>
